<?xml version="1.0" encoding="UTF-8"?><svg id="uuid-0ace10ba-104b-4fa1-bb8f-2837c55a4d1c" xmlns="http://www.w3.org/2000/svg" viewBox="0 0 18.07 15.33"><defs><style>.uuid-bd32b8f7-1583-46ab-a152-526770ac619e{fill:#f8debb;}.uuid-bd32b8f7-1583-46ab-a152-526770ac619e,.uuid-2176dbfc-78fe-496a-9082-286da53acd28,.uuid-31701944-f887-4624-841e-d4a1953fe1f0,.uuid-4b995655-eb13-410f-ae9b-9880c0741852,.uuid-cfe001a3-4fa3-4709-bd2b-21c5b972eb91,.uuid-d082fd86-95a1-4a3e-bb47-79914d5fe793,.uuid-d9b32194-36a2-4832-ab1d-3e5abc761999,.uuid-8eb27821-502a-4b83-8a9d-d2013a360440,.uuid-ec133158-a2bf-4d9e-a43b-b27e6cd8b029,.uuid-4857dc91-e886-4e11-8e4c-a8d3b4dea39a,.uuid-d8cd1f8f-5df1-422c-b1ba-04a9e1e4fcd9,.uuid-227c075d-63b1-41f8-96c4-2cb0eda9f054,.uuid-cd579225-45f9-4ef8-a292-e6205ce8e33a,.uuid-6d2b2b20-3d10-434d-9211-921a96575954,.uuid-47e4c8ef-2279-4db7-82d2-7001822913ef,.uuid-f272e571-4067-42bd-a721-6b88772e9be9,.uuid-0aede3e5-1c1f-431b-99a3-a19de3979ee6,.uuid-2437acce-0f8c-4c8d-8510-4b4635974114,.uuid-fe6a4b04-b825-4195-bb89-cf1d4b568ee0,.uuid-d0ad71c0-9a16-48bf-bfcb-5a97398cb115{stroke-width:0px;}.uuid-2176dbfc-78fe-496a-9082-286da53acd28{fill:#472e2f;}.uuid-31701944-f887-4624-841e-d4a1953fe1f0{fill:#2c3743;}.uuid-4b995655-eb13-410f-ae9b-9880c0741852{fill:#de918d;}.uuid-cfe001a3-4fa3-4709-bd2b-21c5b972eb91{fill:#c9c9c9;}.uuid-d082fd86-95a1-4a3e-bb47-79914d5fe793{fill:#d87273;}.uuid-d9b32194-36a2-4832-ab1d-3e5abc761999{fill:#d98e54;}.uuid-8eb27821-502a-4b83-8a9d-d2013a360440{fill:#d56f6f;}.uuid-ec133158-a2bf-4d9e-a43b-b27e6cd8b029{fill:#d58f8b;}.uuid-4857dc91-e886-4e11-8e4c-a8d3b4dea39a{fill:#d57575;}.uuid-d8cd1f8f-5df1-422c-b1ba-04a9e1e4fcd9{fill:#aa7b78;}.uuid-227c075d-63b1-41f8-96c4-2cb0eda9f054{fill:#b0b0b0;}.uuid-cd579225-45f9-4ef8-a292-e6205ce8e33a{fill:#a6a6a6;}.uuid-6d2b2b20-3d10-434d-9211-921a96575954{fill:#9d9d9d;}.uuid-47e4c8ef-2279-4db7-82d2-7001822913ef{fill:#b6b6b6;}.uuid-f272e571-4067-42bd-a721-6b88772e9be9{fill:#6c6c6c;}.uuid-0aede3e5-1c1f-431b-99a3-a19de3979ee6{fill:#edae6b;}.uuid-2437acce-0f8c-4c8d-8510-4b4635974114{fill:#fefefe;}.uuid-fe6a4b04-b825-4195-bb89-cf1d4b568ee0{fill:#030303;}.uuid-d0ad71c0-9a16-48bf-bfcb-5a97398cb115{fill:#020202;}</style></defs><g id="uuid-20db5772-5397-4db7-b9ff-3e4cb8d32346"><path class="uuid-d0ad71c0-9a16-48bf-bfcb-5a97398cb115" d="m.08,3.95s0-.01-.01-.03c-.01-.06-.02-.09-.03-.13,0,0,0,0,.02,0,.05,0,.09,0,.13-.01.33,0,.66,0,1.01,0,.1,0,.17-.01.25-.02.16,0,.32-.01.5-.01.04,0,.06,0,.07-.01.1,0,.2-.01.33-.02.12-.01.21-.02.31-.04.25,0,.48,0,.71,0,0-.02,0-.04,0-.05-.24,0-.49,0-.75,0-.1,0-.19,0-.28,0-.14-.01-.28-.02-.45-.04-.04,0-.06,0-.08,0-.06,0-.13-.01-.21-.03-.07-.01-.13-.02-.18-.02-.18-.03-.36-.06-.57-.09-.08-.02-.13-.03-.19-.04,0,0-.02-.01-.04-.02-.07-.03-.13-.04-.19-.06-.01,0-.02-.01-.05-.03-.08-.04-.15-.08-.21-.11-.04-.05-.08-.1-.13-.17-.01-.03-.03-.05-.04-.07,0-.04,0-.07,0-.13.07-.03.14-.05.2-.05.2,0,.39,0,.59,0,.06,0,.11,0,.19.01.06,0,.1,0,.14,0,.1,0,.2.02.33.03.12,0,.21,0,.3,0,.06,0,.11.01.19.02.16.01.3.02.43.02.03,0,.07,0,.13.02.15.01.27.02.4.02.12,0,.23.02.37.03.06,0,.1,0,.14,0,.07,0,.13,0,.22.02.07,0,.11.01.17.02.04.01.06.02.1.03.05,0,.08,0,.13,0,.09,0,.16,0,.23,0,0,0,0-.02,0-.03-.08-.01-.16-.02-.26-.04-.14-.03-.26-.05-.38-.07-.01,0-.02,0-.05-.02-.06-.01-.11-.02-.15-.02-.01,0-.03,0-.06-.02-.15-.03-.27-.05-.4-.07,0,0-.02-.01-.04-.02-.15-.04-.28-.07-.42-.09-.03,0-.06-.02-.11-.03-.28-.09-.55-.16-.81-.24-.01,0-.02,0-.05-.02-.09-.04-.17-.07-.25-.1-.09-.06-.18-.11-.28-.18-.05-.04-.08-.07-.11-.09,0-.02-.02-.03-.03-.06-.02-.08-.03-.14-.04-.19.02-.04.04-.08.08-.12.14,0,.26.02.39.04,0,0,.02.01.05.02.06.01.11.02.15.02.01,0,.03,0,.06.02.07.01.12.02.17.02.01,0,.03,0,.06.02.09.01.16.02.23.03.03,0,.06.01.11.02.08.01.13.02.19.02.01,0,.03,0,.06.02.15.02.27.03.4.05.01,0,.03,0,.06.02.05,0,.07,0,.1,0,.02,0,.04,0,.08.02.08.01.13.02.19.02.01,0,.03,0,.06.02.09.01.16.02.24.03.02,0,.04,0,.06.01.09.02.17.03.26.06.16.04.32.05.47.09.32.08.63.19.94.26.68.17,1.35.36,1.96.71.23.13.48.26.66.44.58.59.7,1.35.61,2.13-.08.68-.16,1.36-.16,2.05,0,.55.09,1.08.31,1.59.27.64.68,1.13,1.34,1.38.9.35,1.83.38,2.77.21.72-.13,1.4-.37,2.07-.66.16-.07.31-.18.47-.27.19-.05.37-.11.55-.16-.06.4-.12.81-.2,1.21-.01.06-.06.11-.1.16-.55.64-1.24,1.11-1.97,1.51-.87.47-1.75.91-2.65,1.34-.58.28-1.22.39-1.85.48-.57.08-1.14.12-1.73.02.15-.1.32-.19.48-.27.23-.11.47-.21.7-.32,0-.01,0-.03,0-.04-.27,0-.39-.17-.44-.43-.11.06-.2.09-.28.14-.23.14-.47.2-.74.12-.07-.02-.2,0-.26.06-.25.24-.54.41-.88.51-.09.03-.16.06-.23.09,0,.01,0,.02,0,.04.03,0,.07,0,.12,0,.06,0,.1,0,.16,0,.02,0,.04,0,.07,0,.06,0,.1-.02.16-.02.06.02.12.04.16.06-.04.02-.07.04-.11.06-.02,0-.03.02-.05.03-.02,0-.03.01-.05.02-.03.01-.05.03-.08.05-.21.1-.41.2-.61.3,0,.01,0,.02.01.03.12,0,.25,0,.37.01-.05.06-.1.1-.15.14-.01,0-.02,0-.05.02-.04.02-.06.03-.08.05-.03.01-.07.03-.12.04-.27,0-.51,0-.75,0,0,0,0,0,0-.01-.02-.06-.04-.11-.06-.15,0-.01,0-.02.02-.05.03-.07.05-.12.09-.2-.08.03-.13.04-.17.06-.01,0-.03,0-.06,0-.08.01-.13.03-.18.04-.04,0-.08,0-.15,0-.14,0-.25,0-.36,0-.02,0-.04,0-.08-.02-.06-.03-.11-.05-.15-.08,0,0,0-.01-.01-.03,0-.06,0-.1,0-.13,0,0,.01-.01.02-.02.04-.04.07-.07.09-.1h-.6s-.03,0-.06-.01c-.03,0-.05,0-.07,0-.02,0-.04,0-.08-.02-.05-.01-.09-.02-.12-.02-.01,0-.03,0-.06-.03-.07-.03-.12-.05-.17-.06,0,0-.01,0-.02-.02-.07-.06-.12-.1-.18-.15,0,0,0-.01,0-.03,0-.03.02-.05.02-.07.02-.02.04-.04.07-.06.05-.03.08-.05.13-.08-.16-.04-.31-.07-.46-.1-.04-.03-.08-.06-.13-.11-.01-.05-.02-.08-.02-.1,0-.01.01-.02.03-.05.02-.04.04-.06.05-.08.02-.02.04-.03.08-.06.06-.04.1-.07.13-.1.02-.01.05-.02.09-.04.09-.05.16-.09.24-.13.01,0,.02,0,.06-.01.1-.04.17-.07.25-.11.02,0,.04,0,.08-.02.12-.04.21-.08.31-.12.02,0,.04,0,.09-.01.13-.04.24-.08.34-.12.03,0,.06,0,.11-.02.04-.01.05-.02.07-.03.01,0,.03,0,.06,0,.05-.01.07-.02.1-.04.01,0,.03,0,.06,0,.05-.01.08-.03.12-.04.03,0,.06,0,.12-.02.16-.04.3-.08.44-.12.01,0,.02,0,.05,0,.12-.03.22-.05.33-.08.01,0,.03,0,.06,0,.06-.01.11-.03.15-.04.01,0,.02,0,.05,0,.13-.03.25-.06.36-.08.01,0,.03,0,.06,0,.06-.01.11-.03.15-.04.01,0,.02,0,.05,0,.06,0,.1-.02.17-.03-.08-.06-.14-.11-.2-.15,0,0,0-.01-.01-.03-.02-.12-.03-.21-.05-.33-.04.02-.08.04-.12.06-.05,0-.1,0-.16-.01-.07-.03-.13-.05-.19-.07-.02-.02-.04-.04-.06-.07-.04-.1-.07-.18-.11-.26-.01-.08-.02-.15-.05-.23-.04,0-.06,0-.07,0-.01,0-.02,0-.05-.02-.06-.03-.11-.05-.15-.07-.06-.07-.11-.14-.18-.23-.01-.11-.03-.21-.03-.3,0-.09-.01-.14-.1-.15-.05,0-.11-.02-.16-.04-.06-.06-.13-.12-.2-.21-.02-.04-.03-.06-.04-.09,0-.01,0-.02,0-.05,0-.06,0-.1,0-.14,0-.01,0-.03.02-.06.01-.04.02-.05.02-.07,0-.01.01-.02.03-.04,0-.05,0-.09,0-.13,0,0,0,0,0-.01-.06-.03-.12-.05-.17-.07-.03-.04-.07-.08-.1-.13-.02-.05-.03-.07-.04-.1,0-.03,0-.05.01-.1.01-.05.02-.08.02-.11.01-.02.03-.05.06-.08,0-.03,0-.06-.01-.08-.02-.01-.05-.02-.08-.05-.04-.03-.06-.04-.08-.05,0,0,0,0,0-.01-.03-.05-.06-.09-.09-.13,0-.04,0-.09,0-.15.05-.1.09-.18.14-.26,0,0,.01,0,.03,0,.09-.12-.04-.09-.07-.13,0,0,0,0,0-.01-.03-.05-.06-.09-.08-.13,0-.03,0-.05.01-.1.02-.04.02-.07.03-.09.01-.01.02-.03.05-.05.04-.02.07-.03.1-.04-.01-.01-.02-.03-.03-.04h-.38c-.05,0-.11-.01-.19-.02-.11-.01-.19-.02-.27-.02-.02,0-.05,0-.09-.02-.09-.02-.16-.03-.23-.03-.01,0-.02,0-.05-.02-.05-.01-.09-.02-.12-.02-.01,0-.03,0-.06-.02-.05-.01-.08-.02-.11-.02-.01,0-.03,0-.06-.02-.05-.01-.07-.02-.1-.02-.01,0-.02,0-.05-.02-.05-.03-.09-.06-.12-.08.03-.03.05-.05.1-.08.05-.01.09-.03.12-.04.01,0,.02,0,.05,0,.18-.04.34-.09.51-.13.01,0,.02,0,.05,0,.23-.05.45-.1.66-.16,0-.02,0-.03-.01-.05-.11.01-.21.02-.32.04-.21,0-.42,0-.65,0-.1,0-.17,0-.24,0-.05,0-.1-.01-.17-.02-.09,0-.15-.01-.22-.01-.02,0-.04,0-.08-.02-.09-.01-.15-.02-.22-.02-.01,0-.03,0-.06-.02-.17-.06-.31-.11-.46-.16-.02-.02-.04-.04-.07-.07,0-.04,0-.07,0-.1.07,0,.13,0,.23,0,.09-.01.15-.03.22-.04.01,0,.02,0,.05,0,.2-.05.39-.11.57-.17.02,0,.04,0,.08-.02.11-.04.19-.08.28-.11.03-.01.07-.02.12-.04.19-.08.36-.16.53-.24,0-.02-.02-.04-.03-.06-.11.04-.22.08-.35.12-.04.01-.06.03-.1.04-.13.04-.25.08-.36.12-.02,0-.04,0-.09.01-.14.04-.26.08-.38.11-.01,0-.02,0-.05,0-.18,0-.33,0-.49,0-.03,0-.06,0-.11-.02-.15-.04-.28-.07-.42-.1,0,0-.02-.01-.03-.04,0-.03,0-.05,0-.07.03-.01.05-.02.1-.04.1-.03.17-.06.24-.08.01,0,.02,0,.06,0,.12-.04.21-.08.3-.12.01,0,.02,0,.06,0,.25-.1.47-.19.7-.29.01,0,.02,0,.06-.01.12-.05.23-.09.33-.13l-.02-.05c-.14.03-.27.06-.41.1-.01,0-.03,0-.06,0-.06.01-.11.03-.15.04-.01,0-.02,0-.05,0-.07.01-.12.02-.18.04-.02,0-.04,0-.08,0-.05,0-.07,0-.1.01-.01,0-.03,0-.07,0-.22,0-.42,0-.62,0-.01,0-.02,0-.05-.02-.13-.04-.24-.07-.35-.1-.01,0-.02-.01-.05-.03-.05-.08-.24-.04-.16-.2.05,0,.1,0,.18,0,.09,0,.15-.02.22-.03.01,0,.02,0,.05,0,.04,0,.07-.01.1-.02.01,0,.03,0,.06,0,.07-.01.12-.02.16-.04.01,0,.03,0,.07,0,.18-.03.34-.06.5-.1.04,0,.06-.02.09-.03.01,0,.03,0,.06,0,.07-.01.13-.03.18-.05.01,0,.02,0,.05,0,.05,0,.08-.02.11-.03.04,0,.08-.01.15-.02.05-.01.08-.02.1-.03.01,0,.03,0,.06,0,.11-.02.19-.05.28-.07.03,0,.06-.01.12-.02.22-.06.42-.11.61-.17-.19,0-.38.02-.57.04-.08,0-.16.03-.24.04-.04,0-.09,0-.16,0-.39,0-.76,0-1.13,0-.02,0-.05,0-.09-.02-.07-.01-.12-.02-.17-.02-.01,0-.03,0-.06-.02-.17-.06-.32-.11-.46-.15-.01,0-.02-.01-.04-.03-.04-.02-.06-.03-.09-.04-.1-.08-.21-.17-.32-.27-.03-.04-.05-.05-.07-.07Z"/><path class="uuid-31701944-f887-4624-841e-d4a1953fe1f0" d="m15.25,9.98c-.15.09-.3.19-.46.26-.67.29-1.35.53-2.07.66-.94.17-1.87.13-2.77-.21-.66-.25-1.07-.75-1.34-1.38-.22-.51-.3-1.04-.31-1.59,0-.69.08-1.37.16-2.05.09-.78-.03-1.54-.61-2.13-.18-.19-.43-.31-.66-.44-.61-.35-1.28-.55-1.96-.71-.32-.08-.63-.18-.94-.26-.15-.04-.31-.05-.47-.1-.14-.08-.26-.13-.39-.19,0,0,0,0-.02-.02-.09-.04-.17-.07-.25-.1-.01,0-.02,0-.05-.03-.09-.04-.17-.07-.25-.1-.04-.02-.08-.04-.14-.07-.09-.04-.15-.07-.22-.1-.01,0-.02-.01-.05-.03-.06-.03-.1-.05-.15-.08-.02-.01-.04-.03-.08-.05-.07-.05-.13-.08-.18-.11-.01-.01-.03-.02-.06-.05-.09-.08-.05-.13,0-.18.02,0,.04,0,.09,0,.19,0,.36,0,.52,0,.02,0,.04,0,.08.02.05.01.09.01.12.02.01,0,.02,0,.05.02.06.01.11.02.15.03.01,0,.03,0,.06.02.08.02.14.02.2.03.01,0,.02,0,.05.02.05.01.08.02.12.02.01,0,.02,0,.05.02.06.01.11.02.15.03.01,0,.03,0,.06.02.12.03.23.05.33.07.01,0,.02,0,.05.02.14.03.26.06.38.08.01,0,.02,0,.04.02.04,0,.06.01.09.01.01,0,.02,0,.05.02.05.01.09.02.12.02.01,0,.03,0,.06.02.11.03.19.05.29.06.08.02.15.04.21.06.71.22,1.43.4,2.12.66.69.26,1.37.56,2.04.88.26.12.49.31.71.48.12.09.19.23.16.41-.07.36-.15.73-.17,1.09-.02.42.06.83.21,1.23.28.76.76,1.36,1.4,1.85.14.11.27.11.44.07.26-.06.52-.09.78-.11-.07.17-.05.32.03.45.08.13.16.26.27.37.55.53,1.18.93,1.95,1.07Z"/><path class="uuid-fe6a4b04-b825-4195-bb89-cf1d4b568ee0" d="m13,8.07c-.26.04-.53.06-.78.12-.17.04-.29.04-.44-.07-.64-.49-1.13-1.09-1.4-1.85-.14-.4-.23-.81-.21-1.23.02-.37.11-.73.17-1.09.03-.17-.04-.31-.16-.41-.22-.18-.46-.36-.71-.48-.67-.31-1.35-.62-2.04-.88-.69-.26-1.41-.44-2.12-.66-.07-.02-.13-.04-.22-.08-.08-.06-.14-.11-.21-.17-.06-.07-.13-.14-.2-.22-.03-.03-.05-.05-.07-.07,0,0,0-.01,0-.03-.03-.06-.06-.1-.08-.15,0-.01,0-.02,0-.05.04-.04.08-.06.12-.08.01,0,.03,0,.06.02.1.03.18.04.26.06.02,0,.04.01.07.03.12.04.22.07.32.1.01,0,.02,0,.05.02.1.04.19.07.28.1.02,0,.04.01.07.03.11.04.2.07.29.1.55.21,1.11.43,1.68.57.01-.02.02-.05.04-.07-.76-.54-1.53-1.08-2.3-1.62.18-.05.37-.03.54.04.67.26,1.33.52,1.99.8,1.31.56,2.59,1.2,3.78,2,.37.26.73.54,1.09.82.09.07.17.17.25.26.16.19.2.37.08.63-.49,1.08-.5,2.16.04,3.25-.07.09-.15.17-.23.24Z"/><path class="uuid-bd32b8f7-1583-46ab-a152-526770ac619e" d="m13,8.09c.08-.09.16-.16.24-.25.26-.07.51-.15.76-.19.19-.03.4-.03.59-.01.11.01.22.1.34.17-.08.18-.22.34-.07.54.15.19.35.33.6.36.23.03.46.04.69.07.08.33-.05.61-.23.88-.03.05-.07.09-.11.15-.19.06-.37.11-.56.16-.79-.13-1.41-.54-1.97-1.07-.11-.1-.19-.24-.27-.37-.09-.14-.1-.29-.03-.45Z"/><path class="uuid-4b995655-eb13-410f-ae9b-9880c0741852" d="m16.17,8.77c-.23,0-.47-.03-.7-.05-.25-.03-.44-.17-.6-.36-.16-.2-.01-.36.08-.54.1-.14.07-.28.04-.43-.04-.23-.1-.46-.1-.69-.01-.47.31-.71.72-.89.04.01.07.03.08.02.37-.08.73.01,1.07.15.16.06.35.12.35.35-.06.03-.1.07-.16.09-.05-.05-.11-.08-.14-.13-.16-.21-.3-.25-.56-.16-.17.06-.29.18-.29.32,0,.15.11.27.28.35.21.09.4.02.61.01,0,.1,0,.19,0,.29-.3.22-.41.52-.42.88-.09.27-.17.53-.26.81Z"/><path class="uuid-ec133158-a2bf-4d9e-a43b-b27e6cd8b029" d="m5.83,14.96h-.37s0-.02-.01-.03c.2-.1.4-.2.62-.3.04-.02.06-.03.08-.05,0,0,.02-.01.05-.02.03-.01.04-.02.05-.03.03-.02.06-.03.11-.06.1-.03.11-.08.03-.1-.06-.01-.14.02-.21.03-.04,0-.09.02-.15.02-.04,0-.06,0-.07.01-.05,0-.09,0-.15,0,.03-.05.07-.08.12-.12.33-.1.62-.27.87-.51.06-.05.18-.08.26-.06.27.08.51.03.74-.12.08-.05.17-.09.28-.14.05.26.17.42.44.43,0,.01,0,.03,0,.04-.23.1-.47.21-.7.32-.17.08-.33.17-.5.27-.13.05-.26.09-.39.13-.31.1-.61.19-.95.29-.06,0-.1,0-.14,0Z"/><path class="uuid-d082fd86-95a1-4a3e-bb47-79914d5fe793" d="m17.12,6.32c-.01-.23-.21-.29-.36-.35-.34-.13-.69-.23-1.07-.15-.02,0-.04-.01-.07-.02.03-.09.05-.19.12-.24.15-.13.32-.25.5-.34.09-.05.22-.04.33-.02.19.03.37.09.55.13.26.06.38.2.3.45-.07.2.06.36.04.55-.12,0-.23-.01-.34-.02Z"/><path class="uuid-0aede3e5-1c1f-431b-99a3-a19de3979ee6" d="m17.11,6.32c.12.01.23.02.35.04.18.14.37.26.52.42.12.13.12.26.04.32-.09-.07-.16-.13-.24-.15-.19-.05-.4-.07-.59-.11-.07-.01-.13-.04-.2-.06,0,.02-.01.03-.02.05.04.02.08.05.12.06.19.05.38.1.56.15-.12.03-.24.07-.37.1-.07.01-.14,0-.23,0-.08-.03-.13-.04-.19-.06,0-.09,0-.18,0-.29.04-.14.07-.25.1-.36.05-.03.09-.06.15-.1Z"/><path class="uuid-4857dc91-e886-4e11-8e4c-a8d3b4dea39a" d="m16.85,7.08c.06.01.12.03.18.06-.01.11-.03.21-.06.3-.02.07-.07.15-.12.17-.15.05-.22.14-.28.27-.01.04-.08.05-.13.07,0-.35.11-.65.41-.88Z"/><path class="uuid-d9b32194-36a2-4832-ab1d-3e5abc761999" d="m17.66,7.04c-.2-.05-.39-.1-.58-.15-.04-.01-.08-.04-.12-.06,0-.02.01-.03.02-.05.07.02.13.05.2.06.2.04.4.06.59.11.08.02.16.09.24.14-.11-.01-.22-.03-.35-.05Z"/><path class="uuid-cd579225-45f9-4ef8-a292-e6205ce8e33a" d="m2.68,4.56c.07-.02.15-.04.23-.05.19-.02.37-.04.57-.04-.2.06-.39.11-.6.16-.07-.03-.13-.05-.2-.08Z"/><path class="uuid-227c075d-63b1-41f8-96c4-2cb0eda9f054" d="m3.33,6.93c.1-.02.21-.03.31-.05,0,.02,0,.03.01.05-.21.05-.43.11-.65.15.1-.05.21-.1.32-.16Z"/><path class="uuid-227c075d-63b1-41f8-96c4-2cb0eda9f054" d="m2.87,5.92c.11-.04.22-.08.34-.12,0,.02.02.04.03.06-.17.08-.34.16-.52.23,0-.02,0-.03.02-.06,0,0,0,0,.01,0,.05-.03.09-.07.12-.11Z"/><path class="uuid-cfe001a3-4fa3-4709-bd2b-21c5b972eb91" d="m3.42,1.83c.13.05.25.1.38.17-.07,0-.15-.02-.24-.05-.02-.03-.03-.04-.05-.05,0,.02-.02.03-.02.05-.07,0-.14-.01-.22-.03.04-.03.1-.05.15-.09Z"/><path class="uuid-227c075d-63b1-41f8-96c4-2cb0eda9f054" d="m4.67,15.24c.24-.01.48,0,.74,0-.23.14-.49.12-.74,0Z"/><path class="uuid-227c075d-63b1-41f8-96c4-2cb0eda9f054" d="m3.06,14.56c.19-.01.39-.01.6-.01-.03.03-.05.06-.09.09-.04-.01-.07-.05-.1-.05-.13-.01-.27-.01-.4-.03Z"/><path class="uuid-47e4c8ef-2279-4db7-82d2-7001822913ef" d="m2.25,5.35c.13-.04.27-.07.4-.1l.02.05c-.1.04-.21.09-.32.13-.04-.02-.07-.05-.1-.08Z"/><path class="uuid-227c075d-63b1-41f8-96c4-2cb0eda9f054" d="m4.5,10.39s.1.02.15.03c.09.01.11.06.1.15,0,.09.01.18.02.29-.03-.11-.06-.23-.1-.37-.04-.02-.11-.05-.18-.09Z"/><path class="uuid-cfe001a3-4fa3-4709-bd2b-21c5b972eb91" d="m4.01,3s-.07,0-.12,0c-.05-.02-.08-.02-.11-.02-.05,0-.09,0-.15-.01,0-.02-.01-.03-.02-.07.12,0,.24.02.38.06.01.03.01.04.01.05Z"/><path class="uuid-227c075d-63b1-41f8-96c4-2cb0eda9f054" d="m2.93,7.09c-.15.05-.31.09-.48.13.15-.05.31-.09.48-.13Z"/><path class="uuid-227c075d-63b1-41f8-96c4-2cb0eda9f054" d="m3.62,7.67c.12,0,.25,0,.37,0,.01.01.02.03.03.04-.03.01-.06.02-.09.04-.11-.02-.21-.04-.31-.07Z"/><path class="uuid-cfe001a3-4fa3-4709-bd2b-21c5b972eb91" d="m2.89,2.88c-.12,0-.24,0-.38-.01.12,0,.25,0,.38.01Z"/><path class="uuid-227c075d-63b1-41f8-96c4-2cb0eda9f054" d="m5.82,11.83s.07-.04.11-.06c.02.11.03.21.05.32-.03-.04-.05-.1-.08-.16-.02-.03-.04-.06-.07-.1Z"/><path class="uuid-227c075d-63b1-41f8-96c4-2cb0eda9f054" d="m4.73,12.57c-.13.04-.26.08-.42.12.13-.04.26-.08.42-.12Z"/><path class="uuid-cfe001a3-4fa3-4709-bd2b-21c5b972eb91" d="m4.87,1.29c.07.04.13.09.2.16-.08,0-.17-.03-.26-.05.01-.04.04-.06.06-.1Z"/><path class="uuid-cfe001a3-4fa3-4709-bd2b-21c5b972eb91" d="m2.76,1.82c-.12,0-.25-.02-.38-.04.12,0,.25.02.38.04Z"/><path class="uuid-cfe001a3-4fa3-4709-bd2b-21c5b972eb91" d="m2.97,2.74c.12.01.24.03.38.06-.12-.01-.24-.03-.38-.06Z"/><path class="uuid-cfe001a3-4fa3-4709-bd2b-21c5b972eb91" d="m2.5,2.63c.13.02.26.05.41.08-.13-.02-.27-.05-.41-.08Z"/><path class="uuid-227c075d-63b1-41f8-96c4-2cb0eda9f054" d="m3.79,14.94c.1-.01.22-.02.34-.02-.1.01-.22.02-.34.02Z"/><path class="uuid-cfe001a3-4fa3-4709-bd2b-21c5b972eb91" d="m4.43,1.29c-.11-.01-.23-.04-.36-.07.11.01.23.04.36.07Z"/><path class="uuid-227c075d-63b1-41f8-96c4-2cb0eda9f054" d="m5.74,12.35c-.11.04-.22.07-.34.09.1-.04.22-.07.34-.09Z"/><path class="uuid-47e4c8ef-2279-4db7-82d2-7001822913ef" d="m2.4,6.08c.1-.05.22-.09.34-.12,0,.03,0,.04-.02.06,0,0,0,0,0,0-.1.02-.21.04-.33.06Z"/><path class="uuid-227c075d-63b1-41f8-96c4-2cb0eda9f054" d="m5.12,12.48c-.09.04-.2.06-.31.09.09-.03.2-.07.31-.09Z"/><path class="uuid-227c075d-63b1-41f8-96c4-2cb0eda9f054" d="m5.99,12.14c.06.03.12.08.2.14-.07.02-.11.02-.16.03.08-.08-.04-.1-.04-.17Z"/><path class="uuid-227c075d-63b1-41f8-96c4-2cb0eda9f054" d="m3.65,12.83c-.09.04-.2.08-.32.12.09-.04.2-.08.32-.12Z"/><path class="uuid-cfe001a3-4fa3-4709-bd2b-21c5b972eb91" d="m4.01,1.19c-.1,0-.2-.03-.31-.06.1.01.2.03.31.06Z"/><path class="uuid-227c075d-63b1-41f8-96c4-2cb0eda9f054" d="m5.83,14.98s.07,0,.12,0c-.07.05-.16.1-.26.15.04-.05.09-.09.14-.15Z"/><path class="uuid-227c075d-63b1-41f8-96c4-2cb0eda9f054" d="m3.22,12.96c-.08.04-.18.08-.29.12.08-.04.18-.08.29-.12Z"/><path class="uuid-227c075d-63b1-41f8-96c4-2cb0eda9f054" d="m3.16,7.63c.08,0,.16,0,.25.01-.08,0-.16,0-.25-.01Z"/><path class="uuid-227c075d-63b1-41f8-96c4-2cb0eda9f054" d="m3.94,8.26c-.03.08-.07.16-.13.25.03-.08.07-.16.13-.25Z"/><path class="uuid-cfe001a3-4fa3-4709-bd2b-21c5b972eb91" d="m5.36.89c-.1-.02-.2-.05-.31-.09.1.02.2.05.31.09Z"/><path class="uuid-cfe001a3-4fa3-4709-bd2b-21c5b972eb91" d="m4.96.75c-.08,0-.16-.03-.25-.05.08,0,.16.03.25.05Z"/><path class="uuid-cd579225-45f9-4ef8-a292-e6205ce8e33a" d="m2.73,4.66c-.07.03-.16.06-.26.08.07-.03.16-.06.26-.08Z"/><path class="uuid-227c075d-63b1-41f8-96c4-2cb0eda9f054" d="m4.55,14.88s.09-.04.17-.07c-.04.08-.06.13-.09.19-.03-.03-.05-.07-.08-.12Z"/><path class="uuid-227c075d-63b1-41f8-96c4-2cb0eda9f054" d="m5.28,11.42c.04.07.07.15.11.25-.04-.07-.08-.15-.11-.25Z"/><path class="uuid-cfe001a3-4fa3-4709-bd2b-21c5b972eb91" d="m6.05,1.14c-.09-.02-.18-.05-.27-.09.09.02.18.05.27.09Z"/><path class="uuid-cfe001a3-4fa3-4709-bd2b-21c5b972eb91" d="m5.69,1.01c-.09-.02-.18-.05-.27-.09.09.02.18.05.27.09Z"/><path class="uuid-227c075d-63b1-41f8-96c4-2cb0eda9f054" d="m2.83,13.1c-.06.04-.14.07-.23.11.06-.04.14-.08.23-.11Z"/><path class="uuid-cfe001a3-4fa3-4709-bd2b-21c5b972eb91" d="m3.16,1.71c.08.02.15.05.24.09-.07-.02-.16-.05-.24-.09Z"/><path class="uuid-227c075d-63b1-41f8-96c4-2cb0eda9f054" d="m2.84,7.57c.06,0,.13.01.21.03-.06,0-.13,0-.21-.03Z"/><path class="uuid-cfe001a3-4fa3-4709-bd2b-21c5b972eb91" d="m2.86,1.58c.07.02.15.05.24.09-.07-.02-.15-.05-.24-.09Z"/><path class="uuid-cfe001a3-4fa3-4709-bd2b-21c5b972eb91" d="m4.64.67s-.08.05-.12.09c-.04-.09-.02-.11.12-.09Z"/><path class="uuid-cfe001a3-4fa3-4709-bd2b-21c5b972eb91" d="m2.5,1.42c.07.02.13.05.21.09-.06-.02-.13-.05-.21-.09Z"/><path class="uuid-cfe001a3-4fa3-4709-bd2b-21c5b972eb91" d="m3.25,1.03c-.05,0-.11,0-.18-.03.05,0,.11,0,.18.03Z"/><path class="uuid-cfe001a3-4fa3-4709-bd2b-21c5b972eb91" d="m3.19,1.89c-.05,0-.11,0-.17-.01.05,0,.11,0,.17.01Z"/><path class="uuid-227c075d-63b1-41f8-96c4-2cb0eda9f054" d="m5.46,11.76c.05,0,.11.03.17.06-.05,0-.11-.03-.17-.06Z"/><path class="uuid-227c075d-63b1-41f8-96c4-2cb0eda9f054" d="m4.31,14.92s.1-.03.16-.04c-.04.02-.1.03-.16.04Z"/><path class="uuid-227c075d-63b1-41f8-96c4-2cb0eda9f054" d="m4.6,15.07s.04.09.07.15c-.02-.04-.05-.09-.07-.15Z"/><path class="uuid-227c075d-63b1-41f8-96c4-2cb0eda9f054" d="m4.14,9.53c.05,0,.11.03.17.06-.05,0-.11-.03-.17-.06Z"/><path class="uuid-227c075d-63b1-41f8-96c4-2cb0eda9f054" d="m3.91,8.14s.16,0,.07.11c-.03-.03-.05-.07-.07-.11Z"/><path class="uuid-227c075d-63b1-41f8-96c4-2cb0eda9f054" d="m3.82,8.69s.06.07.09.12c-.03-.03-.06-.07-.09-.12Z"/><path class="uuid-227c075d-63b1-41f8-96c4-2cb0eda9f054" d="m3.53,14.66s0,.07,0,.13c0-.03,0-.08,0-.13Z"/><path class="uuid-227c075d-63b1-41f8-96c4-2cb0eda9f054" d="m4.96,11.1s.09.03.14.06c-.04,0-.09-.03-.14-.06Z"/><path class="uuid-227c075d-63b1-41f8-96c4-2cb0eda9f054" d="m3.55,14.84s.09.03.14.06c-.04-.01-.09-.03-.14-.06Z"/><path class="uuid-227c075d-63b1-41f8-96c4-2cb0eda9f054" d="m4.24,9.9s.01.07.01.12c-.01-.03-.02-.08-.01-.12Z"/><path class="uuid-cfe001a3-4fa3-4709-bd2b-21c5b972eb91" d="m2.99.97s-.09,0-.14-.02c.04,0,.09,0,.14.02Z"/><path class="uuid-cfe001a3-4fa3-4709-bd2b-21c5b972eb91" d="m3.62,1.11s-.09,0-.14-.02c.04,0,.09,0,.14.02Z"/><path class="uuid-cfe001a3-4fa3-4709-bd2b-21c5b972eb91" d="m3.42,2.84s.09,0,.14.01c-.04,0-.09,0-.14-.01Z"/><path class="uuid-227c075d-63b1-41f8-96c4-2cb0eda9f054" d="m5.95,12.31s-.07.03-.13.04c.03-.02.07-.03.13-.04Z"/><path class="uuid-cfe001a3-4fa3-4709-bd2b-21c5b972eb91" d="m4.52.83s.06.08.08.13c-.03-.03-.06-.07-.08-.13Z"/><path class="uuid-227c075d-63b1-41f8-96c4-2cb0eda9f054" d="m3.82,7.99s.06.07.09.12c-.03-.03-.06-.07-.09-.12Z"/><path class="uuid-227c075d-63b1-41f8-96c4-2cb0eda9f054" d="m5.33,12.44s-.07.03-.13.04c.03-.02.07-.03.13-.04Z"/><path class="uuid-227c075d-63b1-41f8-96c4-2cb0eda9f054" d="m4.18,12.7s-.05.03-.1.04c.02-.02.05-.03.1-.04Z"/><path class="uuid-227c075d-63b1-41f8-96c4-2cb0eda9f054" d="m4.01,12.74s-.05.03-.09.04c.02-.02.05-.03.09-.04Z"/><path class="uuid-cfe001a3-4fa3-4709-bd2b-21c5b972eb91" d="m2.92,1.85s-.05,0-.09,0c.02,0,.05,0,.09,0Z"/><path class="uuid-cfe001a3-4fa3-4709-bd2b-21c5b972eb91" d="m3.41,1.06s-.06,0-.1,0c.03,0,.06,0,.1,0Z"/><path class="uuid-6d2b2b20-3d10-434d-9211-921a96575954" d="m3.39,2.92s-.07.01-.11,0c.03-.01.06-.01.11,0Z"/><path class="uuid-227c075d-63b1-41f8-96c4-2cb0eda9f054" d="m2.73,14.5s.06,0,.11.01c-.03,0-.06,0-.11-.01Z"/><path class="uuid-227c075d-63b1-41f8-96c4-2cb0eda9f054" d="m2.67,7.54s.07,0,.11.01c-.03,0-.07,0-.11-.01Z"/><path class="uuid-cfe001a3-4fa3-4709-bd2b-21c5b972eb91" d="m2.79.93s-.06,0-.1,0c.03,0,.06,0,.1,0Z"/><path class="uuid-cfe001a3-4fa3-4709-bd2b-21c5b972eb91" d="m4.74,1.36s-.07,0-.11-.01c.03,0,.07,0,.11.01Z"/><path class="uuid-227c075d-63b1-41f8-96c4-2cb0eda9f054" d="m4.02,9.08s0,.06-.01.09c0-.03,0-.06.01-.09Z"/><path class="uuid-227c075d-63b1-41f8-96c4-2cb0eda9f054" d="m3.99,9.29s.03.05.04.08c-.02-.02-.03-.05-.04-.08Z"/><path class="uuid-227c075d-63b1-41f8-96c4-2cb0eda9f054" d="m4.32,9.61s.01.06,0,.1c0-.03,0-.06,0-.1Z"/><path class="uuid-227c075d-63b1-41f8-96c4-2cb0eda9f054" d="m2.93,14.54s.03-.01.06,0c-.01,0-.03.01-.06,0Z"/><path class="uuid-227c075d-63b1-41f8-96c4-2cb0eda9f054" d="m5.56,15.19s.03-.03.06-.05c-.01.02-.03.03-.06.05Z"/><path class="uuid-227c075d-63b1-41f8-96c4-2cb0eda9f054" d="m4.25,10.09s.03.03.04.07c-.02-.01-.03-.03-.04-.07Z"/><path class="uuid-cfe001a3-4fa3-4709-bd2b-21c5b972eb91" d="m4.61,1s.04.03.06.06c-.02,0-.04-.03-.06-.06Z"/><path class="uuid-227c075d-63b1-41f8-96c4-2cb0eda9f054" d="m3.86,7.8s0,.05-.02.08c0-.02,0-.05.02-.08Z"/><path class="uuid-227c075d-63b1-41f8-96c4-2cb0eda9f054" d="m3.91,8.83s.05.01.07.04c-.02,0-.05-.01-.07-.04Z"/><path class="uuid-227c075d-63b1-41f8-96c4-2cb0eda9f054" d="m4.08,8.93s.02.03.02.06c-.01-.01-.01-.03-.02-.06Z"/><path class="uuid-227c075d-63b1-41f8-96c4-2cb0eda9f054" d="m4.29,9.77s0,.04-.01.06c0-.02,0-.04.01-.06Z"/><path class="uuid-227c075d-63b1-41f8-96c4-2cb0eda9f054" d="m5.17,11.19s.03,0,.06,0c-.01,0-.03,0-.06,0Z"/><path class="uuid-227c075d-63b1-41f8-96c4-2cb0eda9f054" d="m3.84,12.78s-.03.03-.06.03c.01-.02.03-.03.06-.03Z"/><path class="uuid-cfe001a3-4fa3-4709-bd2b-21c5b972eb91" d="m4.56,1.32s-.04,0-.07,0c.02,0,.04,0,.07,0Z"/><path class="uuid-f272e571-4067-42bd-a721-6b88772e9be9" d="m2.65,3.66s-.02-.02-.03-.05c.24,0,.49,0,.73,0,0,.02,0,.04,0,.05-.23,0-.46,0-.71,0Z"/><path class="uuid-d8cd1f8f-5df1-422c-b1ba-04a9e1e4fcd9" d="m6.19,14.42c.06-.02.13-.05.2-.04.08.02.07.07-.02.09-.06-.02-.11-.03-.18-.06Z"/><path class="uuid-d8cd1f8f-5df1-422c-b1ba-04a9e1e4fcd9" d="m5.91,14.32s-.07.07-.12.11c-.04.01-.07.01-.11.01,0-.01,0-.02,0-.04.07-.03.15-.06.23-.09Z"/><path class="uuid-6d2b2b20-3d10-434d-9211-921a96575954" d="m4.03,3s-.01-.03-.01-.05c.08,0,.16.01.25.02,0,0,0,.02,0,.03-.07,0-.14,0-.23,0Z"/><path class="uuid-2437acce-0f8c-4c8d-8510-4b4635974114" d="m2.74,6.03s0-.03.02-.06c.03-.02.06-.04.1-.05-.03.04-.06.07-.11.11Z"/><path class="uuid-6d2b2b20-3d10-434d-9211-921a96575954" d="m3.79,2.97s.06,0,.09.01c-.03,0-.05,0-.09-.01Z"/><path class="uuid-d8cd1f8f-5df1-422c-b1ba-04a9e1e4fcd9" d="m5.96,14.44s.03-.02.05-.02c-.01.01-.03.02-.05.02Z"/><path class="uuid-d8cd1f8f-5df1-422c-b1ba-04a9e1e4fcd9" d="m6.14,14.58s-.03.03-.06.05c.01-.02.03-.03.06-.05Z"/><path class="uuid-2437acce-0f8c-4c8d-8510-4b4635974114" d="m3.5,1.95s0-.04.01-.05c.01.01.02.02.04.05-.01,0-.03,0-.05,0Z"/><path class="uuid-d8cd1f8f-5df1-422c-b1ba-04a9e1e4fcd9" d="m6.24,14.53s0,.02-.03.03c0,0,0-.02.03-.03Z"/><path class="uuid-8eb27821-502a-4b83-8a9d-d2013a360440" d="m16.95,6.41c-.03.12-.06.23-.1.36-.2.04-.4.11-.61.02-.17-.08-.28-.19-.28-.35,0-.13.11-.26.29-.32.26-.09.39-.04.56.16.04.05.09.08.14.13m-.29,0c-.09-.07-.17-.09-.22.03-.02.04,0,.12.02.15.04.03.13.05.16.02.04-.04.04-.12.04-.2Z"/><path class="uuid-2176dbfc-78fe-496a-9082-286da53acd28" d="m16.67,6.41c0,.07-.01.15-.05.19-.02.02-.12,0-.16-.02-.03-.02-.04-.11-.02-.15.05-.12.14-.1.23-.02Z"/></g></svg>