<?xml version="1.0" encoding="UTF-8"?><svg id="uuid-f50a7713-a3b1-41f1-b9d3-e4aea1ba37f8" xmlns="http://www.w3.org/2000/svg" viewBox="0 0 8.4 52.25"><defs><style>.uuid-f730771b-08b4-4a38-853a-0f5deea83d0a{opacity:.1;}.uuid-f730771b-08b4-4a38-853a-0f5deea83d0a,.uuid-7f3b9bc9-e41b-4d1c-a54d-6e0f61789398,.uuid-9855e69c-040b-4260-82ab-b146ad0ad38d,.uuid-6fcd5dd8-a7c2-4c56-bc5c-57823d7850dc,.uuid-f5343aed-dd8d-45cc-b20d-6ffc4492c006,.uuid-c3e9e497-9ec2-46bc-a00f-df91330a6ce2,.uuid-1ef2e5d7-1761-4bf0-a398-fcd68e0ba1b3{stroke-width:0px;}.uuid-7f3b9bc9-e41b-4d1c-a54d-6e0f61789398{fill:#fff;}.uuid-7f3b9bc9-e41b-4d1c-a54d-6e0f61789398,.uuid-1ef2e5d7-1761-4bf0-a398-fcd68e0ba1b3{opacity:.2;}.uuid-9855e69c-040b-4260-82ab-b146ad0ad38d{opacity:.5;}.uuid-9855e69c-040b-4260-82ab-b146ad0ad38d,.uuid-f5343aed-dd8d-45cc-b20d-6ffc4492c006{fill:#2745f9;}.uuid-6fcd5dd8-a7c2-4c56-bc5c-57823d7850dc{fill:#4e8afa;}.uuid-c3e9e497-9ec2-46bc-a00f-df91330a6ce2{fill:#4173fa;}</style></defs><g id="uuid-86d346c8-1d01-4e01-a9f5-adb7b2298a4a"><rect class="uuid-f5343aed-dd8d-45cc-b20d-6ffc4492c006" x=".63" y="1.34" width="7.1" height="26.89"/><polygon class="uuid-1ef2e5d7-1761-4bf0-a398-fcd68e0ba1b3" points="7.71 26.68 6.37 6.88 6.37 1.34 7.55 3.73 7.71 26.68"/><polygon class="uuid-1ef2e5d7-1761-4bf0-a398-fcd68e0ba1b3" points=".72 27.95 .86 6.88 .86 1.34 2.04 3.73 .72 27.95"/><path class="uuid-6fcd5dd8-a7c2-4c56-bc5c-57823d7850dc" d="m.32,52.25h3.89V0h-2.1s-.11,2.78-1,18.56C-.03,38.33.32,52.25.32,52.25Z"/><path class="uuid-c3e9e497-9ec2-46bc-a00f-df91330a6ce2" d="m8.09,52.25h-3.89V0h2.1s.11,2.78,1,18.56c1.12,19.77.78,33.69.78,33.69Z"/><polygon class="uuid-6fcd5dd8-a7c2-4c56-bc5c-57823d7850dc" points=".57 52.25 0 52.25 .56 .16 .88 .16 .57 52.25"/><polygon class="uuid-c3e9e497-9ec2-46bc-a00f-df91330a6ce2" points="7.82 52.25 8.4 52.25 7.84 .16 7.52 .16 7.82 52.25"/><rect class="uuid-7f3b9bc9-e41b-4d1c-a54d-6e0f61789398" x=".54" y="1.7" width="7.31" height=".25"/><rect class="uuid-7f3b9bc9-e41b-4d1c-a54d-6e0f61789398" x="2.1" y="1.19" width="4.19" height=".25"/><rect class="uuid-7f3b9bc9-e41b-4d1c-a54d-6e0f61789398" x="2.1" y=".69" width="4.19" height=".25"/><rect class="uuid-7f3b9bc9-e41b-4d1c-a54d-6e0f61789398" x="2.1" y=".18" width="4.19" height=".25"/><rect class="uuid-7f3b9bc9-e41b-4d1c-a54d-6e0f61789398" x=".54" y="2.21" width="7.31" height=".25"/><rect class="uuid-7f3b9bc9-e41b-4d1c-a54d-6e0f61789398" x=".54" y="2.72" width="7.31" height=".25"/><rect class="uuid-7f3b9bc9-e41b-4d1c-a54d-6e0f61789398" x=".54" y="3.23" width="7.31" height=".25"/><rect class="uuid-7f3b9bc9-e41b-4d1c-a54d-6e0f61789398" x=".54" y="3.74" width="7.31" height=".25"/><rect class="uuid-7f3b9bc9-e41b-4d1c-a54d-6e0f61789398" x=".54" y="4.25" width="7.31" height=".25"/><rect class="uuid-7f3b9bc9-e41b-4d1c-a54d-6e0f61789398" x=".54" y="4.76" width="7.31" height=".25"/><rect class="uuid-7f3b9bc9-e41b-4d1c-a54d-6e0f61789398" x=".54" y="5.27" width="7.31" height=".25"/><rect class="uuid-7f3b9bc9-e41b-4d1c-a54d-6e0f61789398" x=".54" y="5.78" width="7.31" height=".25"/><rect class="uuid-7f3b9bc9-e41b-4d1c-a54d-6e0f61789398" x=".54" y="6.29" width="7.31" height=".25"/><rect class="uuid-7f3b9bc9-e41b-4d1c-a54d-6e0f61789398" x=".54" y="6.8" width="7.31" height=".25"/><rect class="uuid-7f3b9bc9-e41b-4d1c-a54d-6e0f61789398" x=".54" y="7.31" width="7.31" height=".25"/><rect class="uuid-7f3b9bc9-e41b-4d1c-a54d-6e0f61789398" x=".54" y="7.82" width="7.31" height=".25"/><rect class="uuid-7f3b9bc9-e41b-4d1c-a54d-6e0f61789398" x=".54" y="8.33" width="7.31" height=".25"/><rect class="uuid-7f3b9bc9-e41b-4d1c-a54d-6e0f61789398" x=".45" y="8.84" width="7.5" height=".25"/><rect class="uuid-7f3b9bc9-e41b-4d1c-a54d-6e0f61789398" x=".45" y="9.35" width="7.5" height=".25"/><rect class="uuid-7f3b9bc9-e41b-4d1c-a54d-6e0f61789398" x=".45" y="9.86" width="7.5" height=".25"/><rect class="uuid-7f3b9bc9-e41b-4d1c-a54d-6e0f61789398" x=".45" y="10.37" width="7.5" height=".25"/><rect class="uuid-7f3b9bc9-e41b-4d1c-a54d-6e0f61789398" x=".45" y="10.88" width="7.5" height=".25"/><rect class="uuid-7f3b9bc9-e41b-4d1c-a54d-6e0f61789398" x=".45" y="11.39" width="7.5" height=".25"/><rect class="uuid-7f3b9bc9-e41b-4d1c-a54d-6e0f61789398" x=".45" y="11.9" width="7.5" height=".25"/><rect class="uuid-7f3b9bc9-e41b-4d1c-a54d-6e0f61789398" x=".41" y="12.41" width="7.58" height=".25"/><rect class="uuid-7f3b9bc9-e41b-4d1c-a54d-6e0f61789398" x=".41" y="12.92" width="7.58" height=".25"/><rect class="uuid-7f3b9bc9-e41b-4d1c-a54d-6e0f61789398" x=".41" y="13.43" width="7.58" height=".25"/><rect class="uuid-7f3b9bc9-e41b-4d1c-a54d-6e0f61789398" x=".41" y="13.94" width="7.58" height=".25"/><rect class="uuid-7f3b9bc9-e41b-4d1c-a54d-6e0f61789398" x=".41" y="14.45" width="7.58" height=".25"/><rect class="uuid-7f3b9bc9-e41b-4d1c-a54d-6e0f61789398" x=".41" y="14.96" width="7.58" height=".25"/><rect class="uuid-7f3b9bc9-e41b-4d1c-a54d-6e0f61789398" x=".41" y="15.47" width="7.58" height=".25"/><rect class="uuid-7f3b9bc9-e41b-4d1c-a54d-6e0f61789398" x=".37" y="15.98" width="7.66" height=".25"/><rect class="uuid-7f3b9bc9-e41b-4d1c-a54d-6e0f61789398" x=".37" y="16.49" width="7.66" height=".25"/><rect class="uuid-7f3b9bc9-e41b-4d1c-a54d-6e0f61789398" x=".37" y="17" width="7.66" height=".25"/><rect class="uuid-7f3b9bc9-e41b-4d1c-a54d-6e0f61789398" x=".37" y="17.51" width="7.66" height=".25"/><rect class="uuid-7f3b9bc9-e41b-4d1c-a54d-6e0f61789398" x=".37" y="18.02" width="7.66" height=".25"/><rect class="uuid-7f3b9bc9-e41b-4d1c-a54d-6e0f61789398" x=".37" y="18.53" width="7.66" height=".25"/><rect class="uuid-7f3b9bc9-e41b-4d1c-a54d-6e0f61789398" x=".37" y="19.04" width="7.66" height=".25"/><rect class="uuid-7f3b9bc9-e41b-4d1c-a54d-6e0f61789398" x=".33" y="19.54" width="7.73" height=".25"/><rect class="uuid-7f3b9bc9-e41b-4d1c-a54d-6e0f61789398" x=".33" y="20.05" width="7.73" height=".25"/><rect class="uuid-7f3b9bc9-e41b-4d1c-a54d-6e0f61789398" x=".33" y="20.56" width="7.73" height=".25"/><rect class="uuid-7f3b9bc9-e41b-4d1c-a54d-6e0f61789398" x=".33" y="21.07" width="7.73" height=".25"/><rect class="uuid-7f3b9bc9-e41b-4d1c-a54d-6e0f61789398" x=".33" y="21.58" width="7.73" height=".25"/><rect class="uuid-7f3b9bc9-e41b-4d1c-a54d-6e0f61789398" x=".33" y="22.09" width="7.73" height=".25"/><rect class="uuid-7f3b9bc9-e41b-4d1c-a54d-6e0f61789398" x=".33" y="22.6" width="7.73" height=".25"/><rect class="uuid-7f3b9bc9-e41b-4d1c-a54d-6e0f61789398" x=".3" y="23.11" width="7.81" height=".25"/><rect class="uuid-7f3b9bc9-e41b-4d1c-a54d-6e0f61789398" x=".3" y="23.62" width="7.81" height=".25"/><rect class="uuid-7f3b9bc9-e41b-4d1c-a54d-6e0f61789398" x=".3" y="24.13" width="7.81" height=".25"/><rect class="uuid-7f3b9bc9-e41b-4d1c-a54d-6e0f61789398" x=".3" y="24.64" width="7.81" height=".25"/><rect class="uuid-7f3b9bc9-e41b-4d1c-a54d-6e0f61789398" x=".3" y="25.15" width="7.81" height=".25"/><rect class="uuid-7f3b9bc9-e41b-4d1c-a54d-6e0f61789398" x=".3" y="25.66" width="7.81" height=".25"/><rect class="uuid-7f3b9bc9-e41b-4d1c-a54d-6e0f61789398" x=".3" y="26.17" width="7.81" height=".25"/><rect class="uuid-7f3b9bc9-e41b-4d1c-a54d-6e0f61789398" x=".27" y="26.68" width="7.86" height=".25"/><rect class="uuid-7f3b9bc9-e41b-4d1c-a54d-6e0f61789398" x=".27" y="27.19" width="7.86" height=".25"/><rect class="uuid-7f3b9bc9-e41b-4d1c-a54d-6e0f61789398" x=".27" y="27.7" width="7.86" height=".25"/><rect class="uuid-7f3b9bc9-e41b-4d1c-a54d-6e0f61789398" x=".27" y="28.21" width="7.86" height=".25"/><rect class="uuid-7f3b9bc9-e41b-4d1c-a54d-6e0f61789398" x=".27" y="28.72" width="7.86" height=".25"/><rect class="uuid-7f3b9bc9-e41b-4d1c-a54d-6e0f61789398" x=".27" y="29.23" width="7.86" height=".25"/><rect class="uuid-7f3b9bc9-e41b-4d1c-a54d-6e0f61789398" x=".27" y="29.74" width="7.86" height=".25"/><rect class="uuid-7f3b9bc9-e41b-4d1c-a54d-6e0f61789398" x=".22" y="30.25" width="7.96" height=".25"/><rect class="uuid-7f3b9bc9-e41b-4d1c-a54d-6e0f61789398" x=".22" y="30.76" width="7.96" height=".25"/><rect class="uuid-7f3b9bc9-e41b-4d1c-a54d-6e0f61789398" x=".22" y="31.27" width="7.96" height=".25"/><rect class="uuid-7f3b9bc9-e41b-4d1c-a54d-6e0f61789398" x=".22" y="31.78" width="7.96" height=".25"/><rect class="uuid-7f3b9bc9-e41b-4d1c-a54d-6e0f61789398" x=".22" y="32.29" width="7.96" height=".25"/><rect class="uuid-7f3b9bc9-e41b-4d1c-a54d-6e0f61789398" x=".22" y="32.8" width="7.96" height=".25"/><rect class="uuid-7f3b9bc9-e41b-4d1c-a54d-6e0f61789398" x=".22" y="33.31" width="7.96" height=".25"/><rect class="uuid-7f3b9bc9-e41b-4d1c-a54d-6e0f61789398" x=".22" y="33.82" width="7.96" height=".25"/><rect class="uuid-7f3b9bc9-e41b-4d1c-a54d-6e0f61789398" x=".22" y="34.33" width="7.96" height=".25"/><rect class="uuid-7f3b9bc9-e41b-4d1c-a54d-6e0f61789398" x=".22" y="34.84" width="7.96" height=".25"/><rect class="uuid-7f3b9bc9-e41b-4d1c-a54d-6e0f61789398" x=".22" y="35.35" width="7.96" height=".25"/><rect class="uuid-7f3b9bc9-e41b-4d1c-a54d-6e0f61789398" x=".22" y="35.86" width="7.96" height=".25"/><rect class="uuid-7f3b9bc9-e41b-4d1c-a54d-6e0f61789398" x=".22" y="36.37" width="7.96" height=".25"/><rect class="uuid-7f3b9bc9-e41b-4d1c-a54d-6e0f61789398" x=".22" y="36.88" width="7.96" height=".25"/><rect class="uuid-7f3b9bc9-e41b-4d1c-a54d-6e0f61789398" x=".22" y="37.39" width="7.96" height=".25"/><rect class="uuid-7f3b9bc9-e41b-4d1c-a54d-6e0f61789398" x=".22" y="37.9" width="7.96" height=".25"/><rect class="uuid-7f3b9bc9-e41b-4d1c-a54d-6e0f61789398" x=".22" y="38.4" width="7.96" height=".25"/><rect class="uuid-7f3b9bc9-e41b-4d1c-a54d-6e0f61789398" x=".22" y="38.91" width="7.96" height=".25"/><rect class="uuid-7f3b9bc9-e41b-4d1c-a54d-6e0f61789398" x=".22" y="39.42" width="7.96" height=".25"/><rect class="uuid-7f3b9bc9-e41b-4d1c-a54d-6e0f61789398" x=".22" y="39.93" width="7.96" height=".25"/><rect class="uuid-7f3b9bc9-e41b-4d1c-a54d-6e0f61789398" x=".22" y="40.44" width="7.96" height=".25"/><rect class="uuid-7f3b9bc9-e41b-4d1c-a54d-6e0f61789398" x=".12" y="40.95" width="8.15" height=".25"/><rect class="uuid-7f3b9bc9-e41b-4d1c-a54d-6e0f61789398" x=".12" y="41.46" width="8.15" height=".25"/><rect class="uuid-7f3b9bc9-e41b-4d1c-a54d-6e0f61789398" x=".12" y="41.97" width="8.15" height=".25"/><rect class="uuid-7f3b9bc9-e41b-4d1c-a54d-6e0f61789398" x=".12" y="42.48" width="8.15" height=".25"/><rect class="uuid-7f3b9bc9-e41b-4d1c-a54d-6e0f61789398" x=".12" y="42.99" width="8.15" height=".25"/><rect class="uuid-7f3b9bc9-e41b-4d1c-a54d-6e0f61789398" x=".12" y="43.5" width="8.15" height=".25"/><rect class="uuid-7f3b9bc9-e41b-4d1c-a54d-6e0f61789398" x=".12" y="44.01" width="8.15" height=".25"/><rect class="uuid-7f3b9bc9-e41b-4d1c-a54d-6e0f61789398" x=".06" y="44.52" width="8.27" height=".25"/><rect class="uuid-7f3b9bc9-e41b-4d1c-a54d-6e0f61789398" x=".06" y="45.03" width="8.27" height=".25"/><rect class="uuid-7f3b9bc9-e41b-4d1c-a54d-6e0f61789398" x=".06" y="45.54" width="8.27" height=".25"/><rect class="uuid-7f3b9bc9-e41b-4d1c-a54d-6e0f61789398" x=".06" y="46.05" width="8.27" height=".25"/><rect class="uuid-7f3b9bc9-e41b-4d1c-a54d-6e0f61789398" x=".06" y="46.56" width="8.27" height=".25"/><rect class="uuid-7f3b9bc9-e41b-4d1c-a54d-6e0f61789398" x=".06" y="47.07" width="8.27" height=".25"/><rect class="uuid-7f3b9bc9-e41b-4d1c-a54d-6e0f61789398" x=".06" y="47.58" width="8.27" height=".25"/><rect class="uuid-7f3b9bc9-e41b-4d1c-a54d-6e0f61789398" x=".03" y="48.09" width="8.35" height=".25"/><rect class="uuid-7f3b9bc9-e41b-4d1c-a54d-6e0f61789398" x=".03" y="48.6" width="8.35" height=".25"/><rect class="uuid-7f3b9bc9-e41b-4d1c-a54d-6e0f61789398" x=".03" y="49.11" width="8.35" height=".25"/><rect class="uuid-7f3b9bc9-e41b-4d1c-a54d-6e0f61789398" x=".03" y="49.62" width="8.35" height=".25"/><rect class="uuid-7f3b9bc9-e41b-4d1c-a54d-6e0f61789398" x=".03" y="50.13" width="8.35" height=".25"/><rect class="uuid-7f3b9bc9-e41b-4d1c-a54d-6e0f61789398" x=".03" y="50.64" width="8.35" height=".25"/><rect class="uuid-7f3b9bc9-e41b-4d1c-a54d-6e0f61789398" x=".03" y="51.15" width="8.35" height=".25"/><rect class="uuid-7f3b9bc9-e41b-4d1c-a54d-6e0f61789398" x="2.1" width=".1" height="52.25"/><rect class="uuid-7f3b9bc9-e41b-4d1c-a54d-6e0f61789398" x=".78" y=".16" width=".1" height="52.09"/><rect class="uuid-7f3b9bc9-e41b-4d1c-a54d-6e0f61789398" x="7.52" y=".18" width=".1" height="52.07"/><rect class="uuid-7f3b9bc9-e41b-4d1c-a54d-6e0f61789398" x="3.12" width=".1" height="52.25"/><rect class="uuid-7f3b9bc9-e41b-4d1c-a54d-6e0f61789398" x="4.14" width=".1" height="52.25"/><rect class="uuid-7f3b9bc9-e41b-4d1c-a54d-6e0f61789398" x="5.16" width=".1" height="52.25"/><rect class="uuid-7f3b9bc9-e41b-4d1c-a54d-6e0f61789398" x="6.2" width=".1" height="52.25"/><polygon class="uuid-9855e69c-040b-4260-82ab-b146ad0ad38d" points="8.4 52.25 0 52.25 .03 51.39 8.4 51.39 8.4 52.25"/><rect class="uuid-f730771b-08b4-4a38-853a-0f5deea83d0a" y="51.39" width="8.39" height=".33"/><rect class="uuid-7f3b9bc9-e41b-4d1c-a54d-6e0f61789398" x=".01" y="51.86" width="8.38" height=".12"/></g></svg>