<?xml version="1.0" encoding="UTF-8"?><svg id="uuid-77fc024e-bcd4-4131-871f-5e88c3ecfaac" xmlns="http://www.w3.org/2000/svg" viewBox="0 0 108.92 186.85"><defs><style>.uuid-b4599f3c-8e06-4534-98fa-aa44073f4597{fill:#f9f9ed;}.uuid-b4599f3c-8e06-4534-98fa-aa44073f4597,.uuid-b95f88f0-be4a-42e5-a323-6e9171cf8ef7,.uuid-b0b1020d-247a-4ddc-b991-97d0528dc536,.uuid-e3b7d985-1f7c-4edf-9298-50d3ace4dcb4,.uuid-200c2948-4732-42ea-ad15-abb54cb2297f,.uuid-0bbe38ec-d738-472e-9ebf-1fcf205653de,.uuid-fd7e47dd-4c16-4cb1-b73a-70d2c1859699,.uuid-c6c2ab4a-0d59-4df4-9d16-113a4e16e1de,.uuid-6f39237f-cd74-42fb-bec6-01f65bc178f1,.uuid-d811d629-4410-4f4c-bbf1-ee9c608aeb51,.uuid-4e1ec3e2-d3ae-47ff-b8d6-304fa097c79f,.uuid-560db13c-792f-4364-94b8-cb11992445cf,.uuid-5330980d-1309-4d5e-bdd9-490904f9feaa,.uuid-9f71e094-dbbe-4ac6-8f53-05c636a03baa,.uuid-5c154120-afdd-4afc-aeed-827810af9be8,.uuid-67af0569-fc09-4373-a856-a7d40576b42e,.uuid-7b925aa8-d0e1-4ac1-8741-8642f2fb3c64,.uuid-f0ebc11d-c954-4957-9e29-aa0ee2ba3814{stroke-width:0px;}.uuid-b95f88f0-be4a-42e5-a323-6e9171cf8ef7{fill:#755e54;}.uuid-b0b1020d-247a-4ddc-b991-97d0528dc536{fill:#75635a;}.uuid-e3b7d985-1f7c-4edf-9298-50d3ace4dcb4{fill:#49362e;}.uuid-200c2948-4732-42ea-ad15-abb54cb2297f{fill:#594a42;}.uuid-0bbe38ec-d738-472e-9ebf-1fcf205653de{fill:#6f8902;}.uuid-fd7e47dd-4c16-4cb1-b73a-70d2c1859699{fill:#ddddd3;}.uuid-c6c2ab4a-0d59-4df4-9d16-113a4e16e1de{fill:#d3f2f4;}.uuid-6f39237f-cd74-42fb-bec6-01f65bc178f1{fill:#a59081;}.uuid-d811d629-4410-4f4c-bbf1-ee9c608aeb51{fill:#bcbcad;}.uuid-4e1ec3e2-d3ae-47ff-b8d6-304fa097c79f{fill:#cecec4;}.uuid-560db13c-792f-4364-94b8-cb11992445cf{fill:#8e7d75;}.uuid-5330980d-1309-4d5e-bdd9-490904f9feaa{fill:#c1c1b6;}.uuid-9f71e094-dbbe-4ac6-8f53-05c636a03baa{fill:#b7a28b;}.uuid-5c154120-afdd-4afc-aeed-827810af9be8{fill:#6b5c53;}.uuid-67af0569-fc09-4373-a856-a7d40576b42e{fill:#685249;}.uuid-7b925aa8-d0e1-4ac1-8741-8642f2fb3c64{fill:#e8e8dd;}.uuid-f0ebc11d-c954-4957-9e29-aa0ee2ba3814{fill:#efefe4;}</style></defs><g id="uuid-1765115e-bf2a-47b9-b456-6e428c133d4d"><path class="uuid-c6c2ab4a-0d59-4df4-9d16-113a4e16e1de" d="m75.82,124.02c-.53-2.92-7.1-2.41-7.1-2.41,0,0,0-3.1-4.08-3.78-4.08-.69-4.44,3.27-4.44,3.27,0,0-3.55-4.13-8.7-1.89s-1.42,5.5-1.42,5.5c-2.66-.34-9.49-.88-8.34,3.1.89,3.1,6.92,1.2,6.92,1.2,0,0,.18,3.78,4.26,4.64,4.08.86,4.97-2.24,4.97-2.24,0,0,2.66,2.06,5.86,1.2,3.2-.86,2.84-3.96,2.84-3.96,3.55,1.2,10.19.63,9.23-4.64Z"/><path class="uuid-c6c2ab4a-0d59-4df4-9d16-113a4e16e1de" d="m51.82,64.94c-1.98-4.27-20.93,0-20.93,0,0,0-.44-4.69-5.29-5.12-4.85-.43-5.73,3.84-6.39,4.06-.66.21-6.83-3.63-12.78-.43-5.95,3.2-2.64,7.04-2.64,7.04,0,0-7.93,5.34-.88,7.9,7.05,2.56,10.13-3.2,10.13-3.2,0,0,2.2,6.83,7.93,5.12,5.73-1.71,5.73-3.41,5.73-3.41,0,0,2.64,4.27,8.15.85,5.51-3.41,3.74-7.68,3.74-7.68,0,0,17.3,3.67,13.22-5.12Z"/><path class="uuid-c6c2ab4a-0d59-4df4-9d16-113a4e16e1de" d="m24.91,40.31s-3.3-4.91,2.2-5.12c5.51-.21,6.61,4.05,6.61,4.05,0,0,10.99-5.23,15.2,1.71,2.2,3.63-1.98,4.48-1.98,4.48,0,0,3.5,1.78.66,3.84-5.29,3.84-7.27-1.71-7.93-1.28-.66.43-7.71,4.91-12.56,1.28-4.85-3.63-1.98-4.91-1.98-4.91,0,0-13,5.98-13.44-1.49-.51-8.63,13.22-2.56,13.22-2.56Z"/><path class="uuid-7b925aa8-d0e1-4ac1-8741-8642f2fb3c64" d="m44.25,84.2c.15,6.06.21,12.13.27,18.18l1.44.14c-.01-3.76-.06-7.52-.19-11.29-.25-7.32-.75-14.64-.89-21.97-.1-4.05-.08-8.1-.18-12.15l-1.78-.78c.21,1.88.5,3.73.5,5.68-.07,7.39.64,14.79.82,22.18Z"/><path class="uuid-7b925aa8-d0e1-4ac1-8741-8642f2fb3c64" d="m62.06,65.97c-.09-.46-.17-.91-.26-1.35l-1.35-.59c.37,3.99.71,7.96,1.36,12.08,1.32,8.25,2.35,15.92,3.63,24.21.22,1.4.44,2.78.68,4.15l2.53.24c-.19-1.06-.38-2.14-.57-3.22-2.17-12.19-3.95-23.32-6.01-35.51Z"/><path class="uuid-7b925aa8-d0e1-4ac1-8741-8642f2fb3c64" d="m50.29,99.13c0,1.27,0,2.54.02,3.81l1.54.15c0-3.2,0-6.41,0-9.61,0-11.28-.75-22.51-1.19-33.75l-3.05-1.34c.29,3.21.2,6.45.47,9.71.96,10.41,2.17,20.62,2.2,31.03Z"/><path class="uuid-7b925aa8-d0e1-4ac1-8741-8642f2fb3c64" d="m55.41,61.81l-2.75-1.2c.46,5.36.82,10.62,1.36,16.02.57,5.9,1.14,11.69,1.42,17.59.15,3.1.31,6.18.49,9.26l6.17.59c-.85-3.42-1.62-6.9-2.25-10.49-1.94-10.83-3.65-21.24-4.44-31.77Z"/><path class="uuid-4e1ec3e2-d3ae-47ff-b8d6-304fa097c79f" d="m44.25,84.2c-.18-7.39-.89-14.79-.82-22.18,0-1.95-.29-3.81-.5-5.68l-1.14-.5-.14,46.27,2.87.28c-.07-6.06-.13-12.12-.27-18.18Z"/><path class="uuid-4e1ec3e2-d3ae-47ff-b8d6-304fa097c79f" d="m63.58,65.39l-1.78-.78c.09.45.17.9.26,1.35,2.06,12.19,3.84,23.32,6.01,35.51.19,1.09.38,2.16.57,3.22l.8.08-5.86-39.38Z"/><path class="uuid-4e1ec3e2-d3ae-47ff-b8d6-304fa097c79f" d="m45.78,91.24c.12,3.76.18,7.52.19,11.29l4.35.42c0-1.27-.01-2.54-.02-3.81-.04-10.41-1.24-20.61-2.2-31.03-.28-3.26-.19-6.49-.47-9.71l-2.9-1.27c.1,4.05.08,8.1.18,12.15.14,7.32.64,14.64.89,21.97Z"/><path class="uuid-4e1ec3e2-d3ae-47ff-b8d6-304fa097c79f" d="m61.81,76.1c-.65-4.11-.99-8.08-1.36-12.08l-5.04-2.21c.79,10.53,2.5,20.95,4.44,31.77.63,3.58,1.4,7.07,2.25,10.49l2.52.24c-.58-2.55-1.14-5.13-1.71-7.74-2.52-11.55-3.31-22.5-5.19-33.7,1.88,11.2,2.67,22.14,5.19,33.7.57,2.61,1.13,5.19,1.71,7.74l1.49.14c-.23-1.38-.46-2.76-.68-4.15-1.28-8.28-2.31-15.96-3.63-24.21Z"/><path class="uuid-4e1ec3e2-d3ae-47ff-b8d6-304fa097c79f" d="m51.85,103.09l4.09.39c-.18-3.08-.34-6.16-.49-9.26-.28-5.9-.85-11.69-1.42-17.59-.54-5.41-.9-10.66-1.36-16.02l-2-.88c.44,11.24,1.19,22.47,1.19,33.75,0,3.2,0,6.41,0,9.61Z"/><polygon class="uuid-5c154120-afdd-4afc-aeed-827810af9be8" points="39.84 101.03 33.01 101.06 31.42 140.29 39.86 140.29 39.84 101.03"/><path class="uuid-b95f88f0-be4a-42e5-a323-6e9171cf8ef7" d="m41.44,95.9l-5.19.03v7.39h4.53c.1-1.53.22-3.07.37-4.62.1-.94.21-1.87.29-2.8Z"/><polygon class="uuid-5c154120-afdd-4afc-aeed-827810af9be8" points="76.5 100.85 68.27 100.89 70.41 140.29 78.9 140.29 76.5 100.85"/><path class="uuid-4e1ec3e2-d3ae-47ff-b8d6-304fa097c79f" d="m51.58.06s-.92-.38-2.71.78c-1.22.79-1.78,2.67-1.71,5.65.07,2.99-.85,9.24-.85,9.24l10.98,1.03s-1.5-8.28-1.42-10.56c.11-2.91-.24-4.94-1.99-5.72-1.34-.6-2.3-.43-2.3-.43Z"/><path class="uuid-d811d629-4410-4f4c-bbf1-ee9c608aeb51" d="m18.67,15.91c-.11-.04-1,2.92.51,5.98,1.74,3.54,5.27,7.79,5.27,7.79,0,0,1.79-11.27-5.78-13.77Z"/><path class="uuid-4e1ec3e2-d3ae-47ff-b8d6-304fa097c79f" d="m10.79,16.13c-.05-.28-3.84-.36-3.88-.66-.12-.89,5.98-.2,5.98-.2,0,0-.1-.4-1.15-.33-1.85.12-1.75-.5-1.75-.5,0,0,.65-.15,1.77-.31.57-.08,1.09-.31,2.08-.2,1.61.17,2.08,1.55,2.08,1.55l7.47,1.27,1.39,3.6-8.68-1.84s-2.32.18-4.78,0c-1.07-.08-3.03-.39-3.43-.41-.19-.58,2.78-.58,2.78-.58l-3.92-.23c-.31-1.08,3.71-.25,3.75-.57,0,0-4.24-.17-4.28-.35-.22-.9,4.59-.23,4.59-.23Z"/><path class="uuid-560db13c-792f-4364-94b8-cb11992445cf" d="m66.86,95.76l-25.41.14c-.08.93-.19,1.85-.29,2.8-.15,1.55-.27,3.09-.37,4.62h26.81c-.04-.26-.09-.52-.13-.78-.37-2.2-.33-4.54-.6-6.78Z"/><path class="uuid-b95f88f0-be4a-42e5-a323-6e9171cf8ef7" d="m72.45,95.73l-5.59.03c.27,2.23.23,4.57.6,6.78.05.26.09.52.13.78h6.76l-1.9-7.59Z"/><polygon class="uuid-200c2948-4732-42ea-ad15-abb54cb2297f" points="76.5 100.85 33.01 101.06 31.42 140.29 78.9 140.29 76.5 100.85"/><path class="uuid-d811d629-4410-4f4c-bbf1-ee9c608aeb51" d="m81.6,15.18c.11-.04,1.42,3.18,1.07,6.56-.36,3.39-1.78,6.52-1.78,6.52,0,0-6.75-10.28.71-13.08Z"/><path class="uuid-4e1ec3e2-d3ae-47ff-b8d6-304fa097c79f" d="m89.48,15.09c.04-.28,3.82-.51,3.85-.82.09-.89-5.98.03-5.98.03,0,0,.08-.41,1.14-.38,1.85.05,1.73-.57,1.73-.57,0,0-.66-.13-1.78-.24-.58-.06-1.1-.26-2.09-.12-1.6.23-2.01,1.64-2.01,1.64l-7.42,1.56-1.26,3.44,8.6-2.18s2.33.31,4.79.02c1.07-.12,3.02-.51,3.41-.55.17-.58-2.8-.47-2.8-.47l3.91-.38c.27-1.09-3.71-.11-3.77-.43,0,0,4.23-.33,4.27-.52.19-.91-4.6-.05-4.6-.05Z"/><path class="uuid-fd7e47dd-4c16-4cb1-b73a-70d2c1859699" d="m49.5,9.47s.83,4.29-1.77,5.21c-2.08.74,7.82.43,7.82.43,0,0-2-1.63-1.49-5.72.04-.28-4.56.08-4.56.08Z"/><path class="uuid-fd7e47dd-4c16-4cb1-b73a-70d2c1859699" d="m18.76,16.03s7.31.73,12.65,0c6.26-.85,8.27-2.77,20.64-3.2,11.87-.41,14.71,2.77,21.02,2.91,6.26.14,8.53-.57,8.53-.57,0,0-3.84,5.4-.71,13.08,0,0-6.68-2.27-11.37-3.27-4.73-1-6.82.14-6.82.14.28,12.94,5.4,48.91,5.4,48.91,0,0-7.68-.85-17.63-7.39-9.95-6.54-11.66-4.41-11.66-4.41l2.7-38.24s-3.98.14-10.95,2.42c-3.27,1.07-6.11,3.27-6.11,3.27,0,0,1.71-6.82-5.69-13.65Z"/><path class="uuid-fd7e47dd-4c16-4cb1-b73a-70d2c1859699" d="m55.31,3.8c-.12-1.57-1.08-2.84-3.78-2.67-3.9.26-3.61,2.89-3.61,2.89,0,0,.24,1.86.58,3.55.15.76.13,1.6.47,2.2.49.86,1.49,1.34,2.95,1.35,1.14,0,1.91-.35,2.36-1.18.38-.7.5-1.78.64-2.72.18-1.16.48-2.28.39-3.41Z"/><path class="uuid-5330980d-1309-4d5e-bdd9-490904f9feaa" d="m50.54,8.38s.57-.46.77-.51c.24-.06.39.07.39.07,0,0,.14-.07.33-.04.32.06.71.47.71.47,0,0-.38-.14-1.02-.17-.5-.02-.87.07-1.18.17Z"/><path class="uuid-5330980d-1309-4d5e-bdd9-490904f9feaa" d="m50.85,8.73c0-.06.38-.02.78-.03.4-.01.8-.02.78.03-.11.43-1.55.3-1.56,0Z"/><path class="uuid-b0b1020d-247a-4ddc-b991-97d0528dc536" d="m68.6,114.48c-.27-4.5-.04-9.08-.32-13.59l-28.44.14c-.02,2.99-.06,5.98-.17,8.97-.4,10.13-.21,20.17.2,30.28h30.55c-.33-3.82-.63-7.64-.93-11.52-.39-4.8-.6-9.49-.89-14.29Z"/><path class="uuid-7b925aa8-d0e1-4ac1-8741-8642f2fb3c64" d="m41.82,17.12l-2.24.85s-.21,12.16-.43,16c-.21,3.84-1.81,10.45-1.81,10.45l6.93.32-2.45-27.62Z"/><path class="uuid-5330980d-1309-4d5e-bdd9-490904f9feaa" d="m48.71,5.47s-.26-.79-.09-1.01c.47-.63,2.39-.88,2.67-.15.34.9.25,1.71.25,1.71,0,0-2.7.06-2.82-.56Z"/><path class="uuid-4e1ec3e2-d3ae-47ff-b8d6-304fa097c79f" d="m48.62,5.44s.62-.53,1.3-.61c.68-.07.94.62.94.62,0,0-1.52.77-2.23,0Z"/><path class="uuid-5330980d-1309-4d5e-bdd9-490904f9feaa" d="m48.71,5.47s.34-.14.91-.25c.68-.13,1.09.26,1.09.26,0,0-1.11.79-2.01-.01Z"/><path class="uuid-5330980d-1309-4d5e-bdd9-490904f9feaa" d="m48.69,5.4s.26.63.55.68c.5.07,1.34-.51,1.34-.51,0,0-.87.38-1.88-.17Z"/><path class="uuid-5330980d-1309-4d5e-bdd9-490904f9feaa" d="m54.61,5.27s.17-.84-.07-.97c-.76-.4-2.59-.59-2.69,0-.13.77.05,1.53.05,1.53,0,0,2.39.46,2.71-.56Z"/><path class="uuid-4e1ec3e2-d3ae-47ff-b8d6-304fa097c79f" d="m54.6,5.44s-.54-.51-1.22-.58c-.68-.07-.98.57-.98.57,0,0,1.49.8,2.21.02Z"/><path class="uuid-5330980d-1309-4d5e-bdd9-490904f9feaa" d="m54.6,5.44s-.56-.11-1-.22c-.64-.15-1.12.18-1.12.18,0,0,.96.85,2.12.04Z"/><path class="uuid-5330980d-1309-4d5e-bdd9-490904f9feaa" d="m54.6,5.44s-.44.62-.74.6c-.29-.02-1.21-.5-1.21-.5,0,0,.88.5,1.95-.1Z"/><path class="uuid-f0ebc11d-c954-4957-9e29-aa0ee2ba3814" d="m35.31,15.2s6.4,10.02,13.44,9.28c7.04-.75,17.33-10.01,17.33-10.01,0,0-3.99-1.38-6.97-1.59,0,0-2.17,3.87-8.04,3.12-4.3-.55-4.41-2.84-4.41-2.84,0,0-4.51.55-5.84.79-1.51.27-5.51,1.26-5.51,1.26Z"/><path class="uuid-7b925aa8-d0e1-4ac1-8741-8642f2fb3c64" d="m41.55,13.79s3.07,5.03,7.18,5.19c4.5.18,13.99-5.06,13.99-5.06l-3.95-.64s-6.87,3.32-9.38,1.6c-1.88-1.29-2.24-2.03-2.24-2.03l-5.6.94Z"/><path class="uuid-f0ebc11d-c954-4957-9e29-aa0ee2ba3814" d="m69.12,69.58s-5.77-37.65-5.71-43.03c.06-5.38-1.65-11.78-1.65-11.78l-2.99-1.49s2.56,40.63,2.56,44.15-.53,7.04-.53,7.04l8.32,5.12Z"/><path class="uuid-b4599f3c-8e06-4534-98fa-aa44073f4597" d="m56.96,12.64c.11.43,1.92,27.51,2.03,30.93.11,3.41-.64,10.13-.64,10.13l9.49,3.09s-4.46-42.03-5.24-43.15c-.5-.71-5.64-1-5.64-1Z"/><path class="uuid-0bbe38ec-d738-472e-9ebf-1fcf205653de" d="m2.73,186.85h106.16c0-25.95,2.99-46.59-52.33-46.98-50.01-.35-53.2,19.67-53.83,46.98Z"/><path class="uuid-e3b7d985-1f7c-4edf-9298-50d3ace4dcb4" d="m36.61,130.44h-11.39s0,9.9,0,9.9h11.47c0-3.3-.02-6.6-.09-9.9Z"/><path class="uuid-67af0569-fc09-4373-a856-a7d40576b42e" d="m36.61,130.44c.07,3.3.1,6.6.09,9.9h35.44c-.13-3.29-.24-6.57-.42-9.86l-35.11-.04Z"/><path class="uuid-e3b7d985-1f7c-4edf-9298-50d3ace4dcb4" d="m83.11,130.49h-11.4c.19,3.28.3,6.56.42,9.85h12.53l-1.56-9.85Z"/><polygon class="uuid-e3b7d985-1f7c-4edf-9298-50d3ace4dcb4" points="97.7 148.92 15.9 148.5 14.62 136.55 98.34 136.55 97.7 148.92"/><path class="uuid-6f39237f-cd74-42fb-bec6-01f65bc178f1" d="m33.71,184.01c5.87.26,11.78-.05,17.65-.12,7.96-.07,15.85-.5,23.85-1,.08,0,.15,0,.23-.01v-5.57c-13.95,1.02-27.82,2.48-41.72,3.63v3.06Z"/><path class="uuid-6f39237f-cd74-42fb-bec6-01f65bc178f1" d="m33.71,175.68c.69-.03,1.39-.05,2.08-.06,10.59-.11,21.15-.53,31.74-.71,2.64-.05,5.27-.07,7.91-.09v-4.04c-13.9.85-27.8,1.59-41.72,1.84v3.06Z"/><path class="uuid-6f39237f-cd74-42fb-bec6-01f65bc178f1" d="m39.2,164.14c-1.83.09-3.66.1-5.49.06v4.03h6.13c3.7-.07,7.39-.07,11.09-.25,8.21-.39,16.34-1.03,24.5-1.63v-4.1c-5.24.25-10.48.54-15.76.82-6.86.36-13.61.75-20.47,1.07Z"/><path class="uuid-6f39237f-cd74-42fb-bec6-01f65bc178f1" d="m33.71,159.63c13.92-.29,27.81-.01,41.72-.09v-4.25c-13.91.46-27.81.98-41.72,1.57v2.77Z"/><path class="uuid-6f39237f-cd74-42fb-bec6-01f65bc178f1" d="m33.71,152.28c3.82-.07,7.65-.29,11.46-.44,7.89-.25,15.75-.39,23.64-.43,2.21-.01,4.42-.02,6.63-.03v-4.36c-13.92-.23-27.81-.09-41.72-.23v5.49Z"/><path class="uuid-9f71e094-dbbe-4ac6-8f53-05c636a03baa" d="m51.36,183.9c-5.87.07-11.78.37-17.65.12v2.84h41.72v-3.96c-.08,0-.15,0-.23.01-8,.5-15.89.92-23.85,1Z"/><path class="uuid-9f71e094-dbbe-4ac6-8f53-05c636a03baa" d="m35.79,175.62c-.69.01-1.38.03-2.08.06v5.28c13.91-1.16,27.78-2.62,41.72-3.63v-2.51c-2.64.01-5.27.04-7.91.09-10.59.18-21.15.6-31.74.71Z"/><path class="uuid-9f71e094-dbbe-4ac6-8f53-05c636a03baa" d="m39.84,168.23h-6.13v4.39c13.92-.25,27.83-.99,41.72-1.84v-4.44c-8.17.6-16.3,1.24-24.5,1.63-3.7.18-7.39.18-11.09.25Z"/><path class="uuid-9f71e094-dbbe-4ac6-8f53-05c636a03baa" d="m33.71,159.63v4.57c1.83.04,3.66.02,5.49-.06,6.86-.32,13.61-.71,20.47-1.07,5.28-.28,10.52-.57,15.76-.82v-2.71c-13.91.07-27.81-.2-41.72.09Z"/><path class="uuid-9f71e094-dbbe-4ac6-8f53-05c636a03baa" d="m45.17,151.84c-3.82.15-7.64.37-11.46.44v4.58c13.91-.59,27.82-1.11,41.72-1.57v-3.91c-2.21,0-4.42.01-6.63.03-7.89.04-15.75.18-23.64.43Z"/><path class="uuid-9f71e094-dbbe-4ac6-8f53-05c636a03baa" d="m33.71,144.03v2.76c13.91.15,27.81,0,41.72.23v-3.57c-5.54,0-11.07.04-16.61.04-8.37,0-16.76,1.05-25.11.55Z"/><path class="uuid-9f71e094-dbbe-4ac6-8f53-05c636a03baa" d="m33.71,137.16v3.37c6.26.03,12.47-.65,18.71-.84,4.34-.14,8.64-.14,12.97-.25,3.35-.09,6.7-.07,10.04.02v-2.3h-41.72Z"/><path class="uuid-6f39237f-cd74-42fb-bec6-01f65bc178f1" d="m65.4,139.44c-4.34.11-8.64.11-12.97.25-6.24.19-12.45.87-18.71.84v3.51c8.35.51,16.74-.55,25.11-.55,5.54,0,11.08-.03,16.61-.04v-4c-3.34-.08-6.69-.1-10.04-.02Z"/><polygon class="uuid-200c2948-4732-42ea-ad15-abb54cb2297f" points="27.44 186.85 36.53 186.85 36.91 136.87 29.38 136.99 27.44 186.85"/><polygon class="uuid-200c2948-4732-42ea-ad15-abb54cb2297f" points="74.64 186.85 83.74 186.85 81.81 137.09 74.66 136.55 74.64 186.85"/><path class="uuid-4e1ec3e2-d3ae-47ff-b8d6-304fa097c79f" d="m48.22,3.87s.78-1.17,1.87-1.47c1.48-.41,1.54-.97,1.54-.97,0,0,.42.66,1.92,1.07,1.23.33,1.56,1.21,1.56,1.21l.57,7.42.52-.31s-.24-7.77-1.04-8.86c-.45-.6-1.96-1.57-3.63-1.45-1.33.1-3.03.88-3.03.88,0,0-.5-.12-.88,1.85-.38,1.97-.47,9.03-.47,9.03l1.04-.78s-.31-6.3.02-7.61Z"/><path class="uuid-d811d629-4410-4f4c-bbf1-ee9c608aeb51" d="m50.16,10.89s.9,1.24,1.9,1.14c1.01-.11,1.7-1.28,1.7-1.28,0,0-.32.52-1.66.59-1.24.07-1.95-.45-1.95-.45Z"/><path class="uuid-f0ebc11d-c954-4957-9e29-aa0ee2ba3814" d="m49.95,9.06l.97.81s.43-.26.83-.21c.4.05,1.02.12,1.02.12l.83-.76-.57,1.18s-.9-.19-1.33-.12c-.43.07-1.09.09-1.09.09l-.66-1.11Z"/><polygon class="uuid-d811d629-4410-4f4c-bbf1-ee9c608aeb51" points="52.11 6.8 51.25 6.81 50.99 7.4 52.41 7.38 52.11 6.8"/><path class="uuid-7b925aa8-d0e1-4ac1-8741-8642f2fb3c64" d="m51.78,4.41l-.37.04c0,.06-.16,2.36-.16,2.36h.86s-.33-2.4-.33-2.4Z"/><path class="uuid-4e1ec3e2-d3ae-47ff-b8d6-304fa097c79f" d="m53.01,5.22s-.03.5.28.52c.43.02.44-.21.44-.21,0,0-.57.25-.72-.31Z"/><path class="uuid-4e1ec3e2-d3ae-47ff-b8d6-304fa097c79f" d="m49.38,5.26s-.11.45.25.49c.37.04.6-.21.6-.21,0,0-.75.24-.85-.27Z"/></g></svg>