<?xml version="1.0" encoding="UTF-8"?><svg id="uuid-586bad83-406b-4539-a8c6-b376ed7b4ec2" xmlns="http://www.w3.org/2000/svg" viewBox="0 0 59.54 37.44"><defs><style>.uuid-a0f62d6e-4056-4f0f-aa29-57a24741981e{fill:#f9e2a4;}.uuid-a0f62d6e-4056-4f0f-aa29-57a24741981e,.uuid-3564c223-141a-4885-977e-5b374d21a746,.uuid-273119db-8c3a-444e-b871-c44c53899cf7,.uuid-10b6e503-5942-47e3-8958-ea766cb4f4bf,.uuid-56aa08c8-21c9-43ab-84c2-a8fc2a2a5c06,.uuid-c3b9627b-a198-436f-a731-f55ad9a0cf28,.uuid-60061777-9886-4d53-ab78-a84d7b44975b,.uuid-cb86af47-eff3-422e-ac85-d6407cf26d51,.uuid-3bd35e12-f37c-4aaa-a8d2-725302aa02c4,.uuid-b28f0ec4-70f1-44b8-b439-4a97c7c38ebe,.uuid-ddbb1ed8-072f-4e42-9142-669ca25b3fb5,.uuid-baf3e0b0-92ae-4d6e-8902-4039cd484b14,.uuid-b0c6551a-2cc2-4f6f-b32d-147d11804537,.uuid-5e7e3b6f-9312-4624-b599-a6dec96b3b9b,.uuid-49f8a5f4-639d-44b4-9666-dad5392a5710,.uuid-cd48c9cd-e031-41f5-bebb-52a61876605f,.uuid-0c4312a8-ad2d-4858-9577-9a72dc32e63b,.uuid-326e1baa-df39-4ee9-b8d0-59a14a3c5797,.uuid-ee566fa0-8596-4dba-949d-76797954467d,.uuid-66b327de-28fd-453f-969e-ea17a6f545f7,.uuid-a8e10cfa-0905-4919-a174-94a1c75d72f1,.uuid-1021f289-cfef-4e57-aa69-aa7b33fbf4a1,.uuid-2138e304-7bc2-4d55-a1ad-88e126e94123{stroke-width:0px;}.uuid-3564c223-141a-4885-977e-5b374d21a746{fill:#f9e3a3;}.uuid-273119db-8c3a-444e-b871-c44c53899cf7{fill:#f8e3a6;}.uuid-10b6e503-5942-47e3-8958-ea766cb4f4bf{fill:#d2ad85;}.uuid-56aa08c8-21c9-43ab-84c2-a8fc2a2a5c06{fill:#d2ad86;}.uuid-c3b9627b-a198-436f-a731-f55ad9a0cf28{fill:#dbb38b;}.uuid-60061777-9886-4d53-ab78-a84d7b44975b{fill:#caa27b;}.uuid-cb86af47-eff3-422e-ac85-d6407cf26d51{fill:#cca37f;}.uuid-3bd35e12-f37c-4aaa-a8d2-725302aa02c4{fill:#d9b786;}.uuid-b28f0ec4-70f1-44b8-b439-4a97c7c38ebe{fill:#d3ae89;}.uuid-ddbb1ed8-072f-4e42-9142-669ca25b3fb5{fill:#c1996f;}.uuid-baf3e0b0-92ae-4d6e-8902-4039cd484b14{fill:#d7b37d;}.uuid-b0c6551a-2cc2-4f6f-b32d-147d11804537{fill:#c09a72;}.uuid-5e7e3b6f-9312-4624-b599-a6dec96b3b9b{fill:#c09870;}.uuid-49f8a5f4-639d-44b4-9666-dad5392a5710{fill:#c0986f;}.uuid-cd48c9cd-e031-41f5-bebb-52a61876605f{fill:#d8b089;}.uuid-0c4312a8-ad2d-4858-9577-9a72dc32e63b{fill:#a87f54;}.uuid-326e1baa-df39-4ee9-b8d0-59a14a3c5797{fill:#b58d63;}.uuid-ee566fa0-8596-4dba-949d-76797954467d{fill:#b78e64;}.uuid-66b327de-28fd-453f-969e-ea17a6f545f7{fill:#b48c62;}.uuid-a8e10cfa-0905-4919-a174-94a1c75d72f1{fill:#edd698;}.uuid-1021f289-cfef-4e57-aa69-aa7b33fbf4a1{fill:#e5c38f;}.uuid-2138e304-7bc2-4d55-a1ad-88e126e94123{fill:#e8d08e;}</style></defs><g id="uuid-7eb9fb08-3339-4f11-8200-336cbe00ebd4"><path class="uuid-10b6e503-5942-47e3-8958-ea766cb4f4bf" d="m24.51,31.2c.86-1.55,1.52-3.17,1.82-4.92.16-.95.23-1.93.3-2.89.1-1.28.12-2.57.26-3.85.09-.86.35-1.71.51-2.56.19-.97.39-1.94.52-2.92.24-1.77.53-3.53.98-5.26.44-1.7.78-3.42,1.16-5.14.14-.61.3-1.21.71-1.7.13-.16.32-.28.53-.41.37.18.59.47.69.81.15.48.28.98.36,1.48.07.42.05.85.08,1.28-.69-.03-1.32-.08-1.96.02v.11h1.93c.03.32.08.6.08.88-.03,1.4-.07,2.81-.14,4.21-1.08.07-2.15.05-3.18.37,1.09.2,2.15.02,3.2-.23-.04.9-.11,1.78-.11,2.65,0,.75.34,1.41.71,2.04.02.03.11,0,.17,0,.14-.92.3-1.84.43-2.76.09-.62.18-1.24.21-1.87.07-1.45.07-2.91.14-4.36.07-1.49.1-2.98.4-4.45.1-.5.24-1,.64-1.36.37-.35.81-.49,1.3-.33.49.15.78.51.89,1.01.07.32.11.65.21.99.03-.08.07-.16.09-.25.19-.59.56-.98,1.19-1.02.55-.04.93.26,1.21.7.34.53.45,1.12.5,1.74.06.76.16,1.5.52,2.22.64.42,1.03.99,1.25,1.67.29.91.54,1.83.81,2.78h-2.28c.74.64,1.5.29,2.25.1.06.21.11.4.16.59.35,1.45.7,2.91,1.06,4.36.27,1.07.57,2.14.82,3.21.41,1.79.79,3.59,1.17,5.39.16.75.29,1.52.41,2.27-.24-.02-.45-.04-.67-.06-.89-.08-1.79-.14-2.68-.24-1.16-.13-2.33-.25-3.49-.42-1.4-.2-2.8-.42-4.16-.82-1.37-.4-2.66-.96-3.84-1.77-.81-.55-1.49-1.23-2.01-2.06-.1-.15-.2-.31-.33-.51-.01.11-.03.15-.02.19.23.85.59,1.63,1.21,2.28.73.76,1.58,1.33,2.53,1.78,1.2.56,2.45.95,3.74,1.2,1.36.27,2.74.44,4.11.6.85.1,1.72.11,2.58.13,1.04.02,2.09,0,3.13.03.2,1.13.41,2.23.59,3.34.13.8.25,1.6.34,2.4.05.39.07.79-.37,1.03-.51.27-1.06.37-1.61.4-.77.04-1.54.03-2.32,0-.72-.02-1.45-.07-2.17-.11-1.17-.07-2.34-.17-3.51-.23-.88-.04-1.77-.06-2.65-.06-1.14,0-2.28.04-3.42.05-1.34,0-2.68.02-4.01,0-.58-.01-1.17-.09-1.74-.22-.6-.13-1.18-.36-1.75-.57.18-.34.36-.65.53-.97m15.36-21.74c-.59.08-1.19.16-1.81.2-.11-.92-.21-1.84-.32-2.75-.08-.71-.16-1.41-.19-2.12.06,0,.12.01.17.02.7.16,1.38.11,2.02-.23.08-.04.14-.1.22-.16,0-.03-.02-.07-.03-.1-.16,0-.33-.02-.48,0-.65.11-1.3.23-1.96.29-.05-.31-.09-.63-.14-.94,0,.85.05,1.7.1,2.55.02.31.04.62.06.94.05.82.11,1.64.11,2.46-1.16,0-2.32.06-3.45.38.39.08.77.13,1.16.15.8.05,1.58-.09,2.35-.24v5.61c.11-.95.22-1.9.29-2.85.07-.96.08-1.92.17-2.88.62.1,1.23.04,1.84-.06.02.34.04.68.06,1.02.08,1.27.33,2.51.64,3.74.18.72.4,1.43.55,2.14-.18-.03-.37-.06-.55-.09-.88-.16-1.76-.36-2.65-.49-.8-.12-1.6-.18-2.41-.25-.7-.06-1.4-.14-2.1-.16-.5-.02-1,.04-1.5.05-.98.01-1.95.1-2.91.34-.17.04-.34.06-.51.09,0,.04.01.08.02.12.41-.03.81-.08,1.22-.07,1.07,0,2.14.01,3.21.06,1.17.05,2.34.14,3.51.24.69.06,1.37.18,2.06.26.6.07,1.2.14,1.8.21.64.07,1.28.14,1.92.21.32.03.64.06.95.09,0-.03,0-.06.01-.09-.25-.06-.5-.12-.75-.18-.37-.09-.74-.17-1.14-.29-.04-.2-.09-.4-.13-.6-.2-1.01-.43-2.03-.6-3.05-.15-.89-.31-1.79-.35-2.7-.05-1.03,0-2.07.04-3.11.01-.38.11-.77.17-1.15-.06.04-.08.1-.1.15-.32.88-.48,1.79-.48,2.73,0,.16-.04.32-.11.48m-2.04,10.63c.83.16,1.66.36,2.5.46.92.1,1.86.14,2.79.12.52-.01,1.04-.17,1.54-.3.4-.1.63-.61.32-1.02-.39-.51-.84-.95-1.39-1.29-.88-.55-1.85-.71-2.86-.74-.56-.01-1.11,0-1.67,0-.96-.01-1.92-.02-2.89-.06-1.1-.04-2.19-.13-3.28-.17-.96-.04-1.93-.09-2.88-.05-.51.02-1.06.01-1.51.37-.15.11-.2.22-.13.37.08.14.18.3.31.37.64.34,1.34.55,2.06.65,1.11.15,2.23.24,3.34.44,1.24.23,2.47.57,3.75.86m-2.94,10.87c.51.02,1.02.06,1.53.06,1.54,0,3.08-.03,4.63-.06.6,0,1.2-.04,1.79-.06.04,0,.08-.02.12-.03,0-.04,0-.07,0-.11-5.06.18-10.01-.61-14.94-1.62.18.37.48.55.79.69,1.54.66,3.17.91,4.82,1.02.4.03.8.07,1.25.12m.94-26.22h-1.51c.54.46,2.33.66,2.89.21-.43-.21-.89-.16-1.38-.21m6.78,9.69c-.4.03-.8.05-1.22.08.54.52,1.67.22,2.14-.18-.29.04-.58.07-.92.11m1.47,16.38c-.07-.03-.14-.05-.21-.08,0,.03-.01.06-.02.09.07,0,.13,0,.23-.01"/><path class="uuid-a8e10cfa-0905-4919-a174-94a1c75d72f1" d="m5.95,36.17c-.08,0-.16-.02-.26-.05-.18-.12-.33-.23-.49-.32-.56-.34-.58-.67-.03-1.03.64-.41,1.38-.6,2.11-.75,1.16-.23,2.33-.45,3.51-.64.71-.11,1.43-.17,2.15-.23-.05.19-.1.36-.13.53-.01.07.04.14.08.23.12.06.22.13.33.16.91.18,1.81.41,2.73.52,1.19.15,2.39.23,3.59.3,1.01.06,2.02.12,3.03.12,1.73,0,3.46-.04,5.18-.12,1.21-.06,2.41-.24,3.62-.34,1.13-.09,2.27-.17,3.4-.18,3.12,0,6.23.04,9.35.04,1.55,0,3.1-.02,4.65-.13.96-.06,1.91-.3,2.86-.44-.62.52-1.39.64-2.11.85-.66.19-1.35.28-2.03.4-.7.12-1.41.23-2.11.32-.79.1-1.59.16-2.39.25-.87.09-1.74.21-2.62.29-1.1.1-2.2.17-3.3.24-1.02.07-2.03.13-3.05.18-1.05.05-2.1.08-3.14.12-.73.02-1.45.05-2.18.06-1.26.02-2.51.06-3.77.06-1.96,0-3.91-.03-5.87-.06-1.31-.02-2.62-.04-3.93-.06-1.09-.02-2.18-.04-3.27-.06-.5-.01-1-.03-1.5-.06-1.25-.07-2.5-.15-3.75-.23-.16-.01-.32-.06-.49-.07-.05,0-.1.06-.15.09Z"/><path class="uuid-2138e304-7bc2-4d55-a1ad-88e126e94123" d="m5.97,36.19s.09-.1.14-.1c.16.01.32.06.49.07,1.25.08,2.5.16,3.75.23.5.03,1,.05,1.5.06,1.09.02,2.18.04,3.27.06,1.31.02,2.62.04,3.93.06,1.96.02,3.91.05,5.87.06,1.26,0,2.51-.03,3.77-.06.73-.01,1.45-.03,2.18-.06,1.05-.04,2.1-.07,3.14-.12,1.02-.05,2.03-.11,3.05-.18,1.1-.07,2.2-.14,3.3-.24.87-.08,1.75-.19,2.62-.29.8-.08,1.59-.15,2.39-.25.71-.09,1.41-.2,2.11-.32.68-.12,1.37-.21,2.03-.4.72-.21,1.49-.33,2.13-.86.09-.06.15-.1.24-.13.26-.11.52-.19.73-.33.18-.12.41-.26.37-.55,0,0,0,0,.03,0,.57.04,1.12.07,1.66.12.61.06,1.22.15,1.83.21.45.05.89.08,1.34.12.48.2.98.35,1.42.6.4.23.37.6-.02.86-.64.43-1.38.64-2.12.78-1.52.29-3.05.56-4.58.77-1.43.2-2.86.33-4.29.47-.97.09-1.94.14-2.91.19-1.52.09-3.04.16-4.56.24-.84.04-1.69.09-2.53.11-1.28.03-2.56.06-3.83.07-2.95.02-5.9.04-8.85.04-.96,0-1.93-.03-2.89-.06-1.2-.03-2.4-.07-3.59-.12-1.16-.05-2.31-.1-3.47-.18-1.44-.09-2.88-.17-4.32-.3-1.67-.15-3.33-.34-5-.52-.11-.01-.21-.05-.33-.08Z"/><path class="uuid-49f8a5f4-639d-44b4-9666-dad5392a5710" d="m23.97,32.19c.59.19,1.17.42,1.76.55.57.13,1.16.2,1.74.22,1.34.03,2.68.02,4.01,0,1.14,0,2.28-.05,3.42-.05.88,0,1.77.02,2.65.06,1.17.06,2.34.16,3.51.23.72.05,1.45.1,2.17.11.77.02,1.55.04,2.32,0,.55-.03,1.1-.13,1.61-.4.44-.24.42-.64.37-1.03-.09-.8-.21-1.61-.34-2.4-.18-1.11-.39-2.21-.59-3.36-.02-.13-.04-.21-.06-.3-.14-.76-.27-1.52-.43-2.27-.38-1.8-.76-3.59-1.17-5.39-.25-1.08-.56-2.14-.82-3.21-.36-1.45-.71-2.91-1.06-4.36-.05-.19-.1-.38-.16-.59-.75.19-1.5.54-2.25-.1h2.28c-.27-.95-.52-1.87-.81-2.78-.22-.68-.61-1.25-1.23-1.66.47-.31.86-.28,1.22.14.2.23.37.49.5.76.75,1.68,1.5,3.35,2.21,5.05.9,2.17,1.49,4.42,1.96,6.72.42,2.07.9,4.12,1.34,6.18.53,2.48,1.03,4.96,1.54,7.44,0,.05,0,.1.01.2.04.25.08.45.12.68,0,.8-.06.93-.84,1.08-.68.13-1.37.23-2.06.24-1.3.02-2.59-.03-3.89-.05-.03,0-.06,0-.09,0-.99-.08-1.99-.15-2.98-.23-.76-.06-1.52-.12-2.28-.18-.92-.08-1.83-.19-2.75-.22-.86-.03-1.73.02-2.59.05-.55.02-1.09.07-1.64.12-1.17.12-2.33.05-3.49-.1-.6-.07-1.2-.16-1.79-.27-.57-.11-1.13-.26-1.71-.39.06-.15.09-.23.14-.32.06-.06.11-.12.16-.17Z"/><path class="uuid-10b6e503-5942-47e3-8958-ea766cb4f4bf" d="m12.87,33.91c-.02-.07-.07-.15-.06-.21.03-.17.08-.33.15-.54.2-.52.39-1,.58-1.48.27-.6.53-1.21.83-1.82.11.16.2.33.28.53-.04.13-.08.23-.14.34-.05.1-.07.2-.1.31,0,.05,0,.07-.02.1-.03.04-.03.08-.04.14-.06.18-.12.35-.19.52,0,.03,0,.06,0,.08.03-.03.05-.06.09-.1.2-.23.39-.44.55-.67.93-1.33,1.8-2.68,2.34-4.22.22-.6.38-1.23.6-1.84.54.06,1.05.12,1.57.21-.04.24-.12.47-.11.69.05,1.04.08,2.09.19,3.13.11,1.04.11,2.06-.19,3.07-.18.61-.36,1.22-.56,1.83-.79-.08-1.55-.2-2.32-.22-.9-.03-1.8.02-2.7.05-.25,0-.49.07-.74.11Z"/><path class="uuid-3564c223-141a-4885-977e-5b374d21a746" d="m13.5,31.67c-.16.49-.35.97-.55,1.46-.73.09-1.45.15-2.16.26-1.17.19-2.34.4-3.51.64-.74.15-1.47.33-2.11.75-.55.35-.53.69.03,1.03.16.09.31.2.46.32-.56-.06-1.13-.1-1.68-.22-.98-.22-1.96-.48-2.93-.75-.28-.08-.54-.24-.78-.39-.37-.24-.36-.58-.03-.86.47-.39,1.05-.53,1.61-.68,1.49-.41,3.01-.67,4.55-.84,1.08-.12,2.15-.27,3.23-.39.57-.06,1.15-.09,1.73-.13.7-.06,1.4-.11,2.13-.17Z"/><path class="uuid-5e7e3b6f-9312-4624-b599-a6dec96b3b9b" d="m18.66,33.97c.18-.61.35-1.22.54-1.83.3-1.01.3-2.03.19-3.07-.11-1.04-.14-2.08-.19-3.13,0-.22.07-.44.11-.69,0-.03,0-.03.03-.03.4.06.77.13,1.15.19,0-.03.01-.06.02-.09-.36-.11-.72-.23-1.08-.36.04-.19.09-.36.12-.53.09-.56.21-1.12.24-1.68.03-.79.03-1.59-.04-2.37-.06-.63-.21-1.25-.38-1.86-.12-.42-.34-.81-.51-1.23,0-.06,0-.11,0-.15.56-.02.88.35,1.14.76.48.73.7,1.56.85,2.4.34,1.83.43,3.65,0,5.49-.14.58-.14,1.22-.09,1.81.11,1.23.31,2.45.48,3.72.08.4.14.75.2,1.13.06.41.11.79.18,1.18.04.22-.07.34-.28.36-.35.04-.7.09-1.04.09-.54-.01-1.09-.07-1.63-.11Z"/><path class="uuid-56aa08c8-21c9-43ab-84c2-a8fc2a2a5c06" d="m18.84,17.31c.17.4.4.79.51,1.21.17.61.33,1.23.38,1.86.07.79.08,1.58.04,2.37-.02.56-.15,1.12-.24,1.68-.03.17-.08.34-.13.54-.01.03-.04.03-.07.03-.52-.06-1.02-.12-1.51-.2.08-.32.17-.6.24-.9.23-1,.46-2,.68-3,.18-.79.24-1.59.19-2.39-.01-.15-.12-.34-.24-.43-.07-.05-.29.01-.38.1-.41.37-.8.77-1.22,1.15-.05-.1-.08-.2-.1-.3,0,0,0,0,.02,0,.33-.14.34-.16.15-.42.01-.03.03-.06.07-.11.06-.09.09-.17.11-.25,0-.02,0-.03.05-.05.04-.05.05-.08.06-.12.01-.03.03-.06.07-.11.04-.03.05-.04.06-.06,0,0,0,0,.01,0,.02-.02.03-.04.04-.06,0,0,0,0,.02,0,.08-.08.15-.16.21-.25,0,0,0,0,.02,0,.02-.02.03-.04.05-.05,0,0,0,0,.02,0,.31-.08.59-.15.87-.23Z"/><path class="uuid-b0c6551a-2cc2-4f6f-b32d-147d11804537" d="m33.11,15.18s-.14.03-.15,0c-.37-.63-.71-1.29-.71-2.04,0-.88.07-1.75.13-2.66.06-.05.09-.07.18-.13-.1-.01-.15-.01-.2-.02.04-1.4.08-2.8.11-4.21,0-.28-.05-.56-.08-.88h-1.93v-.11c.63-.1,1.27-.05,1.96-.02-.02-.43,0-.86-.08-1.28-.08-.5-.21-.99-.36-1.48-.11-.34-.32-.63-.67-.81.33-.15.55-.12.8.14.37.39.5.88.59,1.39.28,1.66.28,3.34.19,5.02-.1,1.98-.09,3.97.1,5.95.02.26.04.53.04.82-.02.05,0,.06,0,.08.01.07.03.15.06.23Z"/><path class="uuid-a0f62d6e-4056-4f0f-aa29-57a24741981e" d="m21.44,32.43c-.06-.35-.13-.71-.19-1.09.34-.05.68-.07,1.03-.09.73-.02,1.45-.04,2.21-.06-.15.32-.32.64-.5.97-.06.07-.1.13-.19.19-.81.03-1.58.05-2.35.07Z"/><path class="uuid-b28f0ec4-70f1-44b8-b439-4a97c7c38ebe" d="m14.88,28.59c.18-.5.37-.99.52-1.49.2-.7.42-1.4.53-2.12.17-1.02.22-2.06.37-3.09.12-.78.32-1.54.5-2.33.02-.01.03,0,.03.02.02.11.04.19.06.29-.06.16-.15.29-.16.43-.05.73-.14,1.47-.1,2.2.04.65,0,1.27-.14,1.89-.22.93-.48,1.85-.74,2.77-.15.51-.34,1-.52,1.49-.04-.08-.06-.14-.09-.23-.1.07-.17.13-.25.18Z"/><path class="uuid-273119db-8c3a-444e-b871-c44c53899cf7" d="m57.83,33.28c-.44-.02-.88-.06-1.33-.1-.61-.07-1.22-.15-1.83-.21-.54-.05-1.09-.08-1.67-.14-.23-.19-.42-.35-.62-.51.34.02.69.02,1.03.08,1.13.18,2.25.38,3.37.59.35.07.69.2,1.04.31Z"/><path class="uuid-1021f289-cfef-4e57-aa69-aa7b33fbf4a1" d="m52.36,32.31c.22.17.42.33.62.51,0,.02,0,.02-.02.02-.58-.04-1.14-.08-1.71-.12-.5-.04-.98-.07-1.45-.11-.04-.2-.08-.4-.12-.63.7.05,1.4.13,2.09.21.19.02.38.07.6.11Z"/><path class="uuid-10b6e503-5942-47e3-8958-ea766cb4f4bf" d="m14.88,28.59c.07-.06.15-.11.25-.18.03.08.05.15.09.25-.06.24-.14.44-.24.64-.03.06-.03.12-.04.2-.02.07-.04.11-.08.16-.11.03-.2.06-.29.1-.04-.05-.07-.1-.11-.16,0-.03.02-.07.06-.11.06-.11.09-.21.11-.31,0,0,0-.03.03-.04.09-.07.18-.11.2-.17.03-.12,0-.25,0-.37,0,0,0,0,0,0Z"/><path class="uuid-b28f0ec4-70f1-44b8-b439-4a97c7c38ebe" d="m14.45,29.61c.05.04.09.09.12.14.09-.03.18-.06.28-.07-.06.24-.14.46-.21.69-.08-.17-.17-.35-.27-.53,0-.08.03-.15.07-.23Z"/><path class="uuid-b28f0ec4-70f1-44b8-b439-4a97c7c38ebe" d="m18.84,17.29c-.28.1-.57.17-.87.25.18-.29.5-.35.85-.4.02.05.02.09.02.15Z"/><path class="uuid-b28f0ec4-70f1-44b8-b439-4a97c7c38ebe" d="m17.16,18.62c.21.24.2.27-.14.4.03-.13.07-.26.14-.4Z"/><path class="uuid-b28f0ec4-70f1-44b8-b439-4a97c7c38ebe" d="m14.86,28.61c.02.11.03.24,0,.36-.02.06-.11.11-.19.16.04-.17.11-.34.19-.52Z"/><path class="uuid-b28f0ec4-70f1-44b8-b439-4a97c7c38ebe" d="m16.98,19.03c.04.09.07.18.12.3,0,.05-.02.08-.05.11-.08.04-.15.08-.21.12,0,0,0,0-.01,0,.05-.17.09-.34.16-.52Z"/><path class="uuid-b28f0ec4-70f1-44b8-b439-4a97c7c38ebe" d="m17.86,17.6c-.04.08-.11.16-.19.24.04-.08.11-.16.19-.24Z"/><path class="uuid-b28f0ec4-70f1-44b8-b439-4a97c7c38ebe" d="m14.63,29.19c-.01.08-.04.18-.09.28,0-.09.04-.18.09-.28Z"/><path class="uuid-b28f0ec4-70f1-44b8-b439-4a97c7c38ebe" d="m17.34,18.26c-.01.07-.04.14-.09.22,0-.07.04-.14.09-.22Z"/><path class="uuid-b28f0ec4-70f1-44b8-b439-4a97c7c38ebe" d="m17.46,18.08s0,.07-.04.11c0-.03,0-.06.04-.11Z"/><path class="uuid-b28f0ec4-70f1-44b8-b439-4a97c7c38ebe" d="m17.93,17.54s0,.03-.03.05c0-.01,0-.03.03-.05Z"/><path class="uuid-10b6e503-5942-47e3-8958-ea766cb4f4bf" d="m33.06,14.93s-.03-.01-.02-.04c0,0,.01.01.02.04Z"/><path class="uuid-b28f0ec4-70f1-44b8-b439-4a97c7c38ebe" d="m17.58,17.9s0,.03-.03.05c0-.01,0-.03.03-.05Z"/><path class="uuid-b28f0ec4-70f1-44b8-b439-4a97c7c38ebe" d="m17.64,17.84s0,.03-.03.05c0-.01,0-.03.03-.05Z"/><path class="uuid-cd48c9cd-e031-41f5-bebb-52a61876605f" d="m37.8,20.09c-1.26-.29-2.48-.63-3.72-.86-1.1-.21-2.22-.29-3.34-.44-.72-.1-1.41-.31-2.06-.65-.13-.07-.23-.23-.31-.37-.08-.14-.02-.25.13-.37.45-.35,1-.35,1.51-.37.96-.04,1.92,0,2.88.05,1.1.04,2.19.13,3.28.17.96.04,1.92.05,2.89.06.56,0,1.11-.01,1.67,0,1.01.03,1.98.18,2.86.74.55.34,1,.79,1.39,1.29.31.41.08.92-.32,1.02-.51.13-1.03.29-1.54.3-.93.02-1.86-.02-2.79-.12-.84-.09-1.67-.3-2.53-.46Z"/><path class="uuid-60061777-9886-4d53-ab78-a84d7b44975b" d="m46.51,25.82c.05.08.07.17.09.27-1.04.02-2.09.04-3.13.02-.86-.02-1.73-.03-2.58-.13-1.38-.16-2.75-.33-4.11-.6-1.28-.25-2.54-.64-3.74-1.2-.95-.45-1.8-1.02-2.53-1.78-.62-.65-.98-1.43-1.21-2.28,0-.03,0-.07.02-.19.13.21.24.36.33.51.52.83,1.21,1.51,2.01,2.06,1.18.81,2.47,1.37,3.84,1.77,1.36.4,2.76.61,4.16.82,1.16.17,2.32.3,3.49.42.89.1,1.79.16,2.68.24.21.02.43.04.67.06Z"/><path class="uuid-60061777-9886-4d53-ab78-a84d7b44975b" d="m34.86,30.95c-.43-.04-.82-.09-1.22-.11-1.66-.11-3.28-.36-4.82-1.02-.32-.14-.62-.32-.79-.69,4.93,1.02,9.88,1.8,14.94,1.62,0,.04,0,.07,0,.11-.04.01-.08.03-.12.03-.6.02-1.2.05-1.79.06-1.54.02-3.08.05-4.63.06-.51,0-1.02-.04-1.56-.06Z"/><path class="uuid-cb86af47-eff3-422e-ac85-d6407cf26d51" d="m41.46,16.72c.37.09.74.17,1.11.26.25.06.5.12.75.18,0,.03,0,.06-.01.09-.32-.03-.64-.06-.95-.09-.64-.07-1.28-.14-1.92-.21-.6-.07-1.2-.13-1.8-.21-.69-.08-1.37-.2-2.06-.26-1.17-.1-2.34-.18-3.51-.24-1.07-.05-2.14-.05-3.21-.06-.41,0-.81.05-1.22.07,0-.04-.01-.08-.02-.12.17-.03.34-.05.51-.09.95-.24,1.92-.33,2.91-.34.5,0,1-.07,1.5-.05.7.03,1.4.1,2.1.16.8.07,1.61.13,2.41.25.89.13,1.77.32,2.65.49.18.03.37.06.58.11.07.07.11.13.18.24,0-.11,0-.15.01-.2Z"/><path class="uuid-66b327de-28fd-453f-969e-ea17a6f545f7" d="m38.09,9.81c-.04.96-.05,1.92-.12,2.88-.07.95-.19,1.9-.29,2.85,0-1.87,0-3.74,0-5.66,0-.12,0-.18,0-.25-.06-.82-.11-1.64-.17-2.46-.02-.31-.04-.62-.06-.94-.04-.85-.09-1.7-.1-2.55.05.31.09.63.14.98,0,.07,0,.09,0,.12.08.71.16,1.41.24,2.12.1.92.21,1.84.33,2.79.02.06.02.09.02.11Z"/><path class="uuid-326e1baa-df39-4ee9-b8d0-59a14a3c5797" d="m41.44,16.71c.01.06.01.11,0,.21-.07-.11-.11-.16-.15-.24-.21-.73-.43-1.44-.61-2.16-.31-1.23-.57-2.47-.64-3.74-.02-.34-.04-.68-.07-1.07-.02-.11-.04-.18-.05-.25.02-.16.06-.32.06-.48,0-.94.15-1.85.48-2.73.02-.05.04-.11.1-.15-.06.38-.16.76-.17,1.15-.04,1.03-.09,2.07-.04,3.11.05.9.2,1.8.35,2.7.17,1.02.4,2.03.6,3.05.04.2.09.4.15.62Z"/><path class="uuid-ddbb1ed8-072f-4e42-9142-669ca25b3fb5" d="m42.64,14.42c.31-.04.6-.07.9-.11-.47.41-1.6.7-2.14.18.41-.03.81-.05,1.24-.08Z"/><path class="uuid-60061777-9886-4d53-ab78-a84d7b44975b" d="m44.07,30.81c-.08,0-.15,0-.21,0,0-.03.01-.06.02-.09.07.03.14.05.19.09Z"/><path class="uuid-3bd35e12-f37c-4aaa-a8d2-725302aa02c4" d="m49.79,32.64c.48,0,.95.04,1.46.1.11.1.18.19.28.24.34.18.43.39.33.76-.07.03-.13.07-.22.11-.97.17-1.92.4-2.88.46-1.55.1-3.1.13-4.65.13-3.12,0-6.23-.05-9.35-.04-1.13,0-2.27.09-3.4.18-1.21.09-2.41.28-3.62.34-1.72.08-3.45.11-5.18.12-1.01,0-2.02-.05-3.03-.12-1.2-.08-2.4-.15-3.59-.3-.92-.11-1.82-.34-2.73-.52-.11-.02-.21-.09-.33-.16.23-.06.48-.12.73-.13.9-.03,1.8-.08,2.7-.05.77.02,1.53.15,2.32.22.57.04,1.11.1,1.66.11.35,0,.7-.05,1.04-.09.21-.02.31-.14.28-.36-.06-.38-.12-.77-.18-1.18.77-.04,1.54-.06,2.33-.08,0,.08-.04.16-.09.31.58.13,1.14.29,1.71.39.59.11,1.19.2,1.79.27,1.16.14,2.32.21,3.49.1.54-.05,1.09-.1,1.64-.12.86-.03,1.73-.08,2.59-.05.92.03,1.83.14,2.75.22.76.06,1.52.13,2.28.18.99.08,1.99.15,2.98.23.03,0,.06,0,.09,0,1.3.02,2.59.07,3.89.05.69-.01,1.38-.11,2.06-.24.78-.15.84-.28.84-1.08Z"/><path class="uuid-baf3e0b0-92ae-4d6e-8902-4039cd484b14" d="m51.88,33.73c.08-.37-.02-.57-.35-.76-.09-.05-.17-.14-.26-.23.55.02,1.11.05,1.69.09.06.29-.16.43-.34.55-.21.15-.47.23-.73.33Z"/><path class="uuid-c3b9627b-a198-436f-a731-f55ad9a0cf28" d="m17.07,19.44s.04-.06.06-.1c.4-.41.78-.8,1.19-1.17.09-.08.32-.15.38-.1.12.1.23.28.24.43.05.8-.01,1.6-.19,2.39-.22,1-.45,2-.68,3-.07.29-.16.58-.27.9-.19.02-.36.02-.53.02,0,.02,0,.05,0,.07.15.05.29.11.44.16-.19.61-.36,1.24-.57,1.84-.55,1.53-1.42,2.89-2.34,4.22-.16.23-.36.44-.57.67-.03,0-.06,0-.06,0,.06-.16.12-.32.19-.52.02-.06.03-.1.04-.13,0-.03,0-.05.02-.11.04-.12.07-.21.1-.3.04-.1.08-.21.12-.33.08-.24.16-.46.24-.71.02-.07.04-.11.07-.19.02-.08.03-.13.04-.19.08-.2.16-.4.24-.63.17-.52.36-1.02.51-1.52.26-.92.52-1.84.74-2.77.14-.62.18-1.24.14-1.89-.04-.73.05-1.47.1-2.2,0-.14.11-.27.18-.44.07-.16.11-.29.16-.43Z"/><path class="uuid-ee566fa0-8596-4dba-949d-76797954467d" d="m17.74,25.05c-.17-.05-.32-.11-.47-.16,0-.02,0-.05,0-.07.17,0,.33,0,.53,0,.52.06,1.02.12,1.54.2,0,.09-.01.15-.03.21,0,0,0,0,0,0-.51-.06-1.03-.12-1.57-.18Z"/><path class="uuid-b28f0ec4-70f1-44b8-b439-4a97c7c38ebe" d="m14.51,30.72c0,.09-.04.18-.08.28,0-.08.04-.18.08-.28Z"/><path class="uuid-b28f0ec4-70f1-44b8-b439-4a97c7c38ebe" d="m14.39,31.13s0,.06-.03.11c0-.03,0-.07.03-.11Z"/><path class="uuid-b28f0ec4-70f1-44b8-b439-4a97c7c38ebe" d="m14.16,31.79s.04,0,.06,0c-.01.03-.04.06-.06.09,0-.02,0-.05,0-.08Z"/><path class="uuid-0c4312a8-ad2d-4858-9577-9a72dc32e63b" d="m19.34,25.22c0-.07.01-.13.03-.21,0-.02.03-.02.04-.02.37.11.73.22,1.09.34,0,.03-.01.06-.02.09-.38-.06-.75-.12-1.15-.19Z"/><path class="uuid-56aa08c8-21c9-43ab-84c2-a8fc2a2a5c06" d="m17.05,19.44c-.03.13-.07.26-.14.4-.04-.07-.06-.16-.08-.26.07-.06.13-.1.22-.14Z"/><path class="uuid-b28f0ec4-70f1-44b8-b439-4a97c7c38ebe" d="m14.98,29.3s0,.1-.03.16c0-.05,0-.1.03-.16Z"/></g></svg>