<?xml version="1.0" encoding="UTF-8"?><svg id="uuid-42c47f63-d762-42c5-bc73-b4bd8c54c51c" xmlns="http://www.w3.org/2000/svg" viewBox="0 0 103.74 73.26"><defs><style>.uuid-807b5d22-6c67-4c8d-9016-7c83063dc2d0{fill:#616161;}.uuid-807b5d22-6c67-4c8d-9016-7c83063dc2d0,.uuid-5c48b566-d2ad-4972-baee-6eb8cd352f78,.uuid-720ee8f4-bf29-4688-9465-615d085af452{stroke-width:0px;}.uuid-5c48b566-d2ad-4972-baee-6eb8cd352f78{fill:#777;}.uuid-720ee8f4-bf29-4688-9465-615d085af452{fill:#8a8a8a;}</style></defs><g id="uuid-dbc1918a-9214-466f-80c3-7f6f3e5c9f36"><path class="uuid-720ee8f4-bf29-4688-9465-615d085af452" d="m72.56,65.41h-15.62l-1.66-13.61c-.25-2.49,1.71-4.64,4.2-4.64h10.52c2.5,0,4.45,2.15,4.2,4.64l-1.66,13.61Z"/><path class="uuid-5c48b566-d2ad-4972-baee-6eb8cd352f78" d="m57.19,15.15c-.46,0-.85.36-.87.83l-.99,18.64c-.03.54.4,1,.95,1h.48l.47-20.47h-.04Z"/><path class="uuid-5c48b566-d2ad-4972-baee-6eb8cd352f78" d="m74.17,34.62l-.99-18.64c-.02-.46-.41-.83-.87-.83h-.04l.47,20.47h.48c.54,0,.98-.46.95-1Z"/><path class="uuid-720ee8f4-bf29-4688-9465-615d085af452" d="m72.26,14.49c-.01-.46-.29-.87-.72-1.05-2.09-.86-4.38-1.34-6.79-1.34s-4.7.48-6.79,1.34c-.43.18-.71.59-.72,1.05l-.66,28.69c-.01.46.25.88.67,1.08,2.27,1.06,4.81,1.65,7.5,1.65s5.23-.59,7.5-1.65c.42-.19.68-.62.67-1.08l-.66-28.69Z"/><path class="uuid-5c48b566-d2ad-4972-baee-6eb8cd352f78" d="m64.75,45.91c-1.83,0-3.6-.28-5.26-.79v2.04c1.47.68,3.29,1.09,5.26,1.09s3.79-.4,5.26-1.09v-2.04c-1.66.51-3.43.79-5.26.79Z"/><path class="uuid-807b5d22-6c67-4c8d-9016-7c83063dc2d0" d="m57.2,16.48l-.11,4.68c2.37-.55,4.95-.86,7.66-.86s5.3.31,7.66.86l-.11-4.68c-2.4-.39-4.94-.6-7.55-.6s-5.15.21-7.55.6Z"/><path class="uuid-5c48b566-d2ad-4972-baee-6eb8cd352f78" d="m67.35,28.56l-.44-9.28c-.05-1.15-.98-2.08-2.13-2.09,0,0-.01,0-.02,0s-.01,0-.02,0c-1.15,0-2.08.94-2.13,2.09l-.44,9.28c-1.13.22-1.97,1.21-1.97,2.4v2.04h9.14v-2.04c0-1.19-.85-2.18-1.97-2.4Z"/><path class="uuid-807b5d22-6c67-4c8d-9016-7c83063dc2d0" d="m66.63,30.36h-3.76c-1.2,0-2.17.97-2.17,2.17v.48h8.1v-.48c0-1.2-.97-2.17-2.17-2.17Z"/><path class="uuid-807b5d22-6c67-4c8d-9016-7c83063dc2d0" d="m68.27,36.34l2,1.01-1.48-1.44c-.29-.28-.67-.44-1.08-.44h-5.91c-.4,0-.79.16-1.08.44l-1.48,1.44,2-1.01c.11-.05.23-.08.35-.08h6.33c.12,0,.24.03.35.08Z"/><path class="uuid-5c48b566-d2ad-4972-baee-6eb8cd352f78" d="m67.17,37.8h-4.83c-.55,0-1.09.17-1.54.48,1.06.33,2.44.53,3.96.53s2.9-.2,3.96-.53c-.45-.31-.99-.48-1.54-.48Z"/><path class="uuid-5c48b566-d2ad-4972-baee-6eb8cd352f78" d="m74.21,51.83l-2.77,5.84c-.4.83-.6,1.74-.6,2.66v1.15c0,.87-.56,1.64-1.38,1.9-1.49.46-3.06.71-4.7.71s-3.21-.25-4.7-.71c-.83-.26-1.38-1.03-1.38-1.9v-1.15c0-.92-.21-1.83-.6-2.66l-2.77-5.84,1.65,13.59h15.62l1.65-13.59Z"/><path class="uuid-720ee8f4-bf29-4688-9465-615d085af452" d="m98.32,65.41h-15.62l-1.66-13.61c-.25-2.49,1.71-4.64,4.2-4.64h10.52c2.5,0,4.45,2.15,4.2,4.64l-1.66,13.61Z"/><path class="uuid-5c48b566-d2ad-4972-baee-6eb8cd352f78" d="m82.95,15.15c-.46,0-.85.36-.87.83l-.99,18.64c-.03.54.4,1,.95,1h.48l.47-20.47h-.04Z"/><path class="uuid-5c48b566-d2ad-4972-baee-6eb8cd352f78" d="m99.93,34.62l-.99-18.64c-.02-.46-.41-.83-.87-.83h-.04l.47,20.47h.48c.54,0,.98-.46.95-1Z"/><path class="uuid-720ee8f4-bf29-4688-9465-615d085af452" d="m98.02,14.49c-.01-.46-.29-.87-.72-1.05-2.09-.86-4.38-1.34-6.79-1.34s-4.7.48-6.79,1.34c-.43.18-.71.59-.72,1.05l-.66,28.69c-.01.46.25.88.67,1.08,2.27,1.06,4.81,1.65,7.5,1.65s5.23-.59,7.5-1.65c.42-.19.68-.62.67-1.08l-.66-28.69Z"/><path class="uuid-807b5d22-6c67-4c8d-9016-7c83063dc2d0" d="m82.99,15.15l.02-.66c.01-.46.29-.87.72-1.05,2.09-.86,4.38-1.34,6.79-1.34s4.7.48,6.79,1.34c.43.18.71.59.72,1.05l.02.66h.02l2.43-2.68c-2.82-1.33-6.26-2.12-9.97-2.12s-7.15.78-9.97,2.12l2.43,2.68h.02Z"/><path class="uuid-5c48b566-d2ad-4972-baee-6eb8cd352f78" d="m90.51,45.91c-1.83,0-3.6-.28-5.26-.79v2.04c1.47.68,3.29,1.09,5.26,1.09s3.79-.4,5.26-1.09v-2.04c-1.66.51-3.43.79-5.26.79Z"/><path class="uuid-807b5d22-6c67-4c8d-9016-7c83063dc2d0" d="m82.96,16.48l-.11,4.68c2.37-.55,4.95-.86,7.66-.86s5.3.31,7.66.86l-.11-4.68c-2.4-.39-4.94-.6-7.55-.6s-5.15.21-7.55.6Z"/><path class="uuid-5c48b566-d2ad-4972-baee-6eb8cd352f78" d="m93.1,28.56l-.44-9.28c-.05-1.15-.98-2.08-2.13-2.09,0,0-.01,0-.02,0s-.01,0-.02,0c-1.15,0-2.08.94-2.13,2.09l-.44,9.28c-1.13.22-1.97,1.21-1.97,2.4v2.04h9.14v-2.04c0-1.19-.85-2.18-1.97-2.4Z"/><path class="uuid-807b5d22-6c67-4c8d-9016-7c83063dc2d0" d="m92.39,30.36h-3.76c-1.2,0-2.17.97-2.17,2.17v.48h8.1v-.48c0-1.2-.97-2.17-2.17-2.17Z"/><path class="uuid-807b5d22-6c67-4c8d-9016-7c83063dc2d0" d="m94.02,36.34l2,1.01-1.48-1.44c-.29-.28-.67-.44-1.08-.44h-5.91c-.4,0-.79.16-1.08.44l-1.48,1.44,2-1.01c.11-.05.23-.08.35-.08h6.33c.12,0,.24.03.35.08Z"/><path class="uuid-5c48b566-d2ad-4972-baee-6eb8cd352f78" d="m92.93,37.8h-4.83c-.55,0-1.09.17-1.54.48,1.06.33,2.44.53,3.96.53s2.9-.2,3.96-.53c-.45-.31-.99-.48-1.54-.48Z"/><path class="uuid-720ee8f4-bf29-4688-9465-615d085af452" d="m90.51,3.3c-2.88,0-5.6.47-7.99,1.31-.6.21-1.02.73-1.11,1.36l-.87,6.5c2.82-1.33,6.26-2.12,9.97-2.12s7.15.78,9.97,2.12l-.87-6.5c-.08-.63-.51-1.15-1.11-1.36-2.39-.84-5.11-1.31-7.99-1.31Z"/><path class="uuid-5c48b566-d2ad-4972-baee-6eb8cd352f78" d="m90.51,3.3c1.63,0,3.21.15,4.71.44l-.39-2.93c-1.26-.51-2.73-.81-4.31-.81s-3.05.29-4.31.81l-.39,2.93c1.5-.28,3.07-.44,4.71-.44Z"/><path class="uuid-5c48b566-d2ad-4972-baee-6eb8cd352f78" d="m99.97,51.83l-2.77,5.84c-.4.83-.6,1.74-.6,2.66v1.15c0,.87-.56,1.64-1.38,1.9-1.49.46-3.06.71-4.7.71s-3.21-.25-4.7-.71c-.83-.26-1.38-1.03-1.38-1.9v-1.15c0-.92-.21-1.83-.6-2.66l-2.77-5.84,1.65,13.59h15.62l1.65-13.59Z"/><path class="uuid-720ee8f4-bf29-4688-9465-615d085af452" d="m46.8,65.41h-15.62l-1.66-13.61c-.25-2.49,1.71-4.64,4.2-4.64h10.52c2.5,0,4.45,2.15,4.2,4.64l-1.66,13.61Z"/><path class="uuid-5c48b566-d2ad-4972-baee-6eb8cd352f78" d="m31.43,15.15c-.46,0-.85.36-.87.83l-.99,18.64c-.03.54.4,1,.95,1h.48l.47-20.47h-.04Z"/><path class="uuid-5c48b566-d2ad-4972-baee-6eb8cd352f78" d="m48.41,34.62l-.99-18.64c-.02-.46-.41-.83-.87-.83h-.04l.47,20.47h.48c.54,0,.98-.46.95-1Z"/><path class="uuid-720ee8f4-bf29-4688-9465-615d085af452" d="m46.5,14.49c-.01-.46-.29-.87-.72-1.05-2.09-.86-4.38-1.34-6.79-1.34s-4.7.48-6.79,1.34c-.43.18-.71.59-.72,1.05l-.66,28.69c-.01.46.25.88.67,1.08,2.27,1.06,4.81,1.65,7.5,1.65s5.23-.59,7.5-1.65c.42-.19.68-.62.67-1.08l-.66-28.69Z"/><path class="uuid-807b5d22-6c67-4c8d-9016-7c83063dc2d0" d="m31.47,15.15l.02-.66c.01-.46.29-.87.72-1.05,2.09-.86,4.38-1.34,6.79-1.34s4.7.48,6.79,1.34c.43.18.71.59.72,1.05l.02.66h.02l2.43-2.68c-2.82-1.33-6.26-2.12-9.97-2.12s-7.15.78-9.97,2.12l2.43,2.68h.02Z"/><path class="uuid-5c48b566-d2ad-4972-baee-6eb8cd352f78" d="m38.99,45.91c-1.83,0-3.6-.28-5.26-.79v2.04c1.47.68,3.29,1.09,5.26,1.09s3.79-.4,5.26-1.09v-2.04c-1.66.51-3.43.79-5.26.79Z"/><path class="uuid-807b5d22-6c67-4c8d-9016-7c83063dc2d0" d="m31.44,16.48l-.11,4.68c2.37-.55,4.95-.86,7.66-.86s5.3.31,7.66.86l-.11-4.68c-2.4-.39-4.94-.6-7.55-.6s-5.15.21-7.55.6Z"/><path class="uuid-5c48b566-d2ad-4972-baee-6eb8cd352f78" d="m41.59,28.56l-.44-9.28c-.05-1.15-.98-2.08-2.13-2.09,0,0-.01,0-.02,0s-.01,0-.02,0c-1.15,0-2.08.94-2.13,2.09l-.44,9.28c-1.13.22-1.97,1.21-1.97,2.4v2.04h9.14v-2.04c0-1.19-.85-2.18-1.97-2.4Z"/><path class="uuid-807b5d22-6c67-4c8d-9016-7c83063dc2d0" d="m40.87,30.36h-3.76c-1.2,0-2.17.97-2.17,2.17v.48h8.1v-.48c0-1.2-.97-2.17-2.17-2.17Z"/><path class="uuid-807b5d22-6c67-4c8d-9016-7c83063dc2d0" d="m42.51,36.34l2,1.01-1.48-1.44c-.29-.28-.67-.44-1.08-.44h-5.91c-.4,0-.79.16-1.08.44l-1.48,1.44,2-1.01c.11-.05.23-.08.35-.08h6.33c.12,0,.24.03.35.08Z"/><path class="uuid-5c48b566-d2ad-4972-baee-6eb8cd352f78" d="m41.41,37.8h-4.83c-.55,0-1.09.17-1.54.48,1.06.33,2.44.53,3.96.53s2.9-.2,3.96-.53c-.45-.31-.99-.48-1.54-.48Z"/><path class="uuid-720ee8f4-bf29-4688-9465-615d085af452" d="m38.99,3.3c-2.88,0-5.6.47-7.99,1.31-.6.21-1.02.73-1.11,1.36l-.87,6.5c2.82-1.33,6.26-2.12,9.97-2.12s7.15.78,9.97,2.12l-.87-6.5c-.08-.63-.51-1.15-1.11-1.36-2.39-.84-5.11-1.31-7.99-1.31Z"/><path class="uuid-5c48b566-d2ad-4972-baee-6eb8cd352f78" d="m48.45,51.83l-2.77,5.84c-.4.83-.6,1.74-.6,2.66v1.15c0,.87-.56,1.64-1.38,1.9-1.49.46-3.06.71-4.7.71s-3.21-.25-4.7-.71c-.83-.26-1.38-1.03-1.38-1.9v-1.15c0-.92-.21-1.83-.6-2.66l-2.77-5.84,1.65,13.59h15.62l1.65-13.59Z"/><path class="uuid-720ee8f4-bf29-4688-9465-615d085af452" d="m21.04,65.41H5.42l-1.66-13.61c-.25-2.49,1.71-4.64,4.2-4.64h10.52c2.5,0,4.45,2.15,4.2,4.64l-1.66,13.61Z"/><path class="uuid-5c48b566-d2ad-4972-baee-6eb8cd352f78" d="m5.67,15.15c-.46,0-.85.36-.87.83l-.99,18.64c-.03.54.4,1,.95,1h.48l.47-20.47h-.04Z"/><path class="uuid-5c48b566-d2ad-4972-baee-6eb8cd352f78" d="m22.65,34.62l-.99-18.64c-.02-.46-.41-.83-.87-.83h-.04l.47,20.47h.48c.54,0,.98-.46.95-1Z"/><path class="uuid-720ee8f4-bf29-4688-9465-615d085af452" d="m20.74,14.49c-.01-.46-.29-.87-.72-1.05-2.09-.86-4.38-1.34-6.79-1.34s-4.7.48-6.79,1.34c-.43.18-.71.59-.72,1.05l-.66,28.69c-.01.46.25.88.67,1.08,2.27,1.06,4.81,1.65,7.5,1.65s5.23-.59,7.5-1.65c.42-.19.68-.62.67-1.08l-.66-28.69Z"/><path class="uuid-807b5d22-6c67-4c8d-9016-7c83063dc2d0" d="m5.71,15.15l.02-.66c.01-.46.29-.87.72-1.05,2.09-.86,4.38-1.34,6.79-1.34s4.7.48,6.79,1.34c.43.18.71.59.72,1.05l.02.66h.02l2.43-2.68c-2.82-1.33-6.26-2.12-9.97-2.12s-7.15.78-9.97,2.12l2.43,2.68h.02Z"/><path class="uuid-5c48b566-d2ad-4972-baee-6eb8cd352f78" d="m13.23,45.91c-1.83,0-3.6-.28-5.26-.79v2.04c1.47.68,3.29,1.09,5.26,1.09s3.79-.4,5.26-1.09v-2.04c-1.66.51-3.43.79-5.26.79Z"/><path class="uuid-807b5d22-6c67-4c8d-9016-7c83063dc2d0" d="m5.68,16.48l-.11,4.68c2.37-.55,4.95-.86,7.66-.86s5.3.31,7.66.86l-.11-4.68c-2.4-.39-4.94-.6-7.55-.6s-5.15.21-7.55.6Z"/><path class="uuid-5c48b566-d2ad-4972-baee-6eb8cd352f78" d="m15.83,28.56l-.44-9.28c-.05-1.15-.98-2.08-2.13-2.09,0,0-.01,0-.02,0s-.01,0-.02,0c-1.15,0-2.08.94-2.13,2.09l-.44,9.28c-1.13.22-1.97,1.21-1.97,2.4v2.04h9.14v-2.04c0-1.19-.85-2.18-1.97-2.4Z"/><path class="uuid-807b5d22-6c67-4c8d-9016-7c83063dc2d0" d="m15.11,30.36h-3.76c-1.2,0-2.17.97-2.17,2.17v.48h8.1v-.48c0-1.2-.97-2.17-2.17-2.17Z"/><path class="uuid-807b5d22-6c67-4c8d-9016-7c83063dc2d0" d="m16.75,36.34l2,1.01-1.48-1.44c-.29-.28-.67-.44-1.08-.44h-5.91c-.4,0-.79.16-1.08.44l-1.48,1.44,2-1.01c.11-.05.23-.08.35-.08h6.33c.12,0,.24.03.35.08Z"/><path class="uuid-5c48b566-d2ad-4972-baee-6eb8cd352f78" d="m15.65,37.8h-4.83c-.55,0-1.09.17-1.54.48,1.06.33,2.44.53,3.96.53s2.9-.2,3.96-.53c-.45-.31-.99-.48-1.54-.48Z"/><path class="uuid-5c48b566-d2ad-4972-baee-6eb8cd352f78" d="m22.69,51.83l-2.77,5.84c-.4.83-.6,1.74-.6,2.66v1.15c0,.87-.56,1.64-1.38,1.9-1.49.46-3.06.71-4.7.71s-3.21-.25-4.7-.71c-.83-.26-1.38-1.03-1.38-1.9v-1.15c0-.92-.21-1.83-.6-2.66l-2.77-5.84,1.65,13.59h15.62l1.65-13.59Z"/><path class="uuid-720ee8f4-bf29-4688-9465-615d085af452" d="m13.23,3.3c-2.88,0-5.6.47-7.99,1.31-.6.21-1.02.73-1.11,1.36l-.87,6.5c2.82-1.33,6.26-2.12,9.97-2.12s7.15.78,9.97,2.12l-.87-6.5c-.08-.63-.51-1.15-1.11-1.36-2.39-.84-5.11-1.31-7.99-1.31Z"/><path class="uuid-5c48b566-d2ad-4972-baee-6eb8cd352f78" d="m13.23,3.3c1.63,0,3.21.15,4.71.44l-.39-2.93c-1.26-.51-2.73-.81-4.31-.81s-3.05.29-4.31.81l-.39,2.93c1.5-.28,3.07-.44,4.71-.44Z"/><path class="uuid-720ee8f4-bf29-4688-9465-615d085af452" d="m7.84,65.41h88.06c4.33,0,7.84,3.51,7.84,7.84H0C0,68.93,3.51,65.41,7.84,65.41Z"/></g></svg>