<?xml version="1.0" encoding="UTF-8"?><svg id="uuid-3f309ca1-6276-4049-994c-6e60bdc138fd" xmlns="http://www.w3.org/2000/svg" viewBox="0 0 87.74 18.72"><defs><style>.uuid-ff26b736-fc4f-43d2-85f2-3ae2fed4052b{fill:#f7f0d9;}.uuid-ff26b736-fc4f-43d2-85f2-3ae2fed4052b,.uuid-ae14e2ac-0e04-4709-8cea-19391a127717,.uuid-ce8ae868-dec8-4a45-b375-ee68963357b1,.uuid-28afc537-df90-4842-a722-14d22f6eceec,.uuid-0505f00b-451c-4aa6-b81a-d627574dbcbb,.uuid-1655319c-aa36-4918-9d06-b6628f7e2168,.uuid-dc255047-6ae0-42b8-b7d7-4c199229b12a,.uuid-c287d401-0033-4fcd-a3e3-be1b570a9795,.uuid-76052516-c574-458a-8e19-11eaee321fe7,.uuid-b193ae21-9ad9-4027-b362-5075b4460981,.uuid-98279319-f863-4ec3-97a8-0f49c5ab4eb0,.uuid-e7e0761c-b4c9-4230-9c7a-da451ec743eb,.uuid-d8db2378-6c58-46c9-b667-ecf2a82e5f62,.uuid-022d358d-394d-4a71-869c-166c7d0147fd,.uuid-80f4efd3-0351-4e98-a40c-c1661ff3253a,.uuid-d05e8995-ae00-432b-927b-70f13b9c4f95,.uuid-21cbe297-c985-49cb-abe8-c1e0843d1a06,.uuid-c7b06fee-7aa7-4236-8af0-0aa980d3dfae,.uuid-7ac1540b-8829-4259-ace1-3001ffbf0913,.uuid-b187d892-cd39-47f4-82d1-e587cf9e2dfa,.uuid-058031ff-7c53-4f6c-b335-8022ce6f34ca,.uuid-33a96d65-fa2a-4c81-844a-b9af9cbef257,.uuid-003f51e3-fbc8-4c06-8df5-5e47c8da0800,.uuid-67ed3027-fc53-43a6-aa14-e7522d565226,.uuid-40fa37d4-3cd3-4175-8642-8b0d6f7bc6d3,.uuid-e7617948-1747-4da5-ab45-d560b244d5a5,.uuid-3cce9185-e799-479a-a4f6-e5ac09f40767,.uuid-c45dd4f3-b889-4314-92ff-ddcf1032abe8,.uuid-1ad3cfdf-4b0e-47fe-a713-d76909df2c78,.uuid-4cd81d94-7e9a-421c-916b-d21ad4abd9a0,.uuid-52ef7a12-2b2f-4c88-8161-17fb4d3d1e4a,.uuid-b904b3ee-9634-48d9-9400-1e0c6441557a,.uuid-52138a6b-d0be-4b4a-ad83-29e3008bdd01,.uuid-b5534e0c-a63a-4e19-9b63-f137c19fa2fd,.uuid-8819d12a-85f0-4104-9138-3a3ed5741cfa,.uuid-649330af-51e8-4d75-84b5-681b8a7fd84d,.uuid-ae321d13-8778-4c0e-9721-2bf0f95c707a,.uuid-505b6d1f-e169-401e-b6e5-cd98052d878a,.uuid-5738e7c9-8ab0-4c9b-90f9-214cb21608a5{stroke-width:0px;}.uuid-ae14e2ac-0e04-4709-8cea-19391a127717{fill:#5e9eb7;}.uuid-ce8ae868-dec8-4a45-b375-ee68963357b1{fill:#799ea0;}.uuid-28afc537-df90-4842-a722-14d22f6eceec{fill:#79c0d8;}.uuid-0505f00b-451c-4aa6-b81a-d627574dbcbb{fill:#81cbe3;}.uuid-1655319c-aa36-4918-9d06-b6628f7e2168{fill:#4f92b1;}.uuid-dc255047-6ae0-42b8-b7d7-4c199229b12a{fill:#76c3e1;}.uuid-c287d401-0033-4fcd-a3e3-be1b570a9795{fill:#57a3c6;}.uuid-76052516-c574-458a-8e19-11eaee321fe7{fill:#5aa5c2;}.uuid-b193ae21-9ad9-4027-b362-5075b4460981{fill:#62aecf;}.uuid-98279319-f863-4ec3-97a8-0f49c5ab4eb0{fill:#87cde8;}.uuid-e7e0761c-b4c9-4230-9c7a-da451ec743eb{fill:#6db8d8;}.uuid-d8db2378-6c58-46c9-b667-ecf2a82e5f62{fill:#5391ac;}.uuid-022d358d-394d-4a71-869c-166c7d0147fd{fill:#4486a9;}.uuid-80f4efd3-0351-4e98-a40c-c1661ff3253a{fill:#cbbc91;}.uuid-d05e8995-ae00-432b-927b-70f13b9c4f95{fill:#cab88c;}.uuid-21cbe297-c985-49cb-abe8-c1e0843d1a06{fill:#cab88b;}.uuid-c7b06fee-7aa7-4236-8af0-0aa980d3dfae{fill:#cab582;}.uuid-7ac1540b-8829-4259-ace1-3001ffbf0913{fill:#d8c89a;}.uuid-b187d892-cd39-47f4-82d1-e587cf9e2dfa{fill:#c5b489;}.uuid-058031ff-7c53-4f6c-b335-8022ce6f34ca{fill:#e1deb5;}.uuid-33a96d65-fa2a-4c81-844a-b9af9cbef257{fill:#d6c497;}.uuid-003f51e3-fbc8-4c06-8df5-5e47c8da0800{fill:#dac797;}.uuid-67ed3027-fc53-43a6-aa14-e7522d565226{fill:#bfa972;}.uuid-40fa37d4-3cd3-4175-8642-8b0d6f7bc6d3{fill:#cdbd91;}.uuid-e7617948-1747-4da5-ab45-d560b244d5a5{fill:#89cee6;}.uuid-3cce9185-e799-479a-a4f6-e5ac09f40767{fill:#8acee7;}.uuid-c45dd4f3-b889-4314-92ff-ddcf1032abe8{fill:#90cfe2;}.uuid-1ad3cfdf-4b0e-47fe-a713-d76909df2c78{fill:#65a8c3;}.uuid-4cd81d94-7e9a-421c-916b-d21ad4abd9a0{fill:#96c5d3;}.uuid-52ef7a12-2b2f-4c88-8161-17fb4d3d1e4a{fill:#7bc0d7;}.uuid-b904b3ee-9634-48d9-9400-1e0c6441557a{fill:#7bc7e5;}.uuid-52138a6b-d0be-4b4a-ad83-29e3008bdd01{fill:#f1e1b2;}.uuid-b5534e0c-a63a-4e19-9b63-f137c19fa2fd{fill:#e3d1a1;}.uuid-8819d12a-85f0-4104-9138-3a3ed5741cfa{fill:#e3d1a0;}.uuid-649330af-51e8-4d75-84b5-681b8a7fd84d{fill:#ead9aa;}.uuid-ae321d13-8778-4c0e-9721-2bf0f95c707a{fill:#e4d2a1;}.uuid-505b6d1f-e169-401e-b6e5-cd98052d878a{fill:#eddbae;}.uuid-5738e7c9-8ab0-4c9b-90f9-214cb21608a5{fill:#68b1cf;}</style></defs><g id="uuid-5cfb5a7e-109b-43b9-aa36-e7fd2763fd61"><path class="uuid-4cd81d94-7e9a-421c-916b-d21ad4abd9a0" d="m14.05,9.29c.06-.02.11-.06.17-.06.56-.05,1.12-.1,1.68-.14.24-.02.49-.04.74-.05-.06.02-.13.02-.19.04-.09.03-.18.07-.28.1-.08,0-.14,0-.21,0-.19-.03-.38-.05-.53.08-.03,0-.05,0-.08,0-.24,0-.46.03-.71.04-.09,0-.17,0-.26,0-.12,0-.22,0-.32.01Z"/><path class="uuid-4cd81d94-7e9a-421c-916b-d21ad4abd9a0" d="m12.06,9.51c.13-.03.26-.07.4-.09.19-.03.39-.04.59-.05-.07.04-.15.08-.25.11-.09.01-.17.02-.26.02-.17,0-.32,0-.48,0Z"/><path class="uuid-4cd81d94-7e9a-421c-916b-d21ad4abd9a0" d="m10.98,9.63s.05-.05.08-.05c.3-.03.6-.05.91-.06.01.02.01.03,0,.03-.05,0-.08,0-.13,0-.14.02-.26.04-.4.07-.06,0-.11,0-.17,0-.05.01-.08.02-.13.03-.03,0-.05,0-.08,0-.03,0-.05-.02-.07-.02Z"/><path class="uuid-4cd81d94-7e9a-421c-916b-d21ad4abd9a0" d="m9.97,9.76c.28-.05.55-.09.85-.12.02.02.02.03,0,.05-.22.02-.43.05-.65.07-.08,0-.14,0-.2,0Z"/><path class="uuid-c45dd4f3-b889-4314-92ff-ddcf1032abe8" d="m12.81,9.48c.08-.03.17-.06.25-.1.11-.02.22-.02.34-.02.02,0,.02.02.02.03-.17.05-.33.09-.5.12-.03,0-.07-.02-.11-.03Z"/><path class="uuid-4cd81d94-7e9a-421c-916b-d21ad4abd9a0" d="m13.43,9.38s0-.01,0-.02c.15-.03.29-.05.46-.06.02.04.02.06.02.08,0,0,0,0-.02,0-.17,0-.31,0-.46,0Z"/><path class="uuid-c45dd4f3-b889-4314-92ff-ddcf1032abe8" d="m13.91,9.38s0-.04,0-.07c.04-.01.07-.02.12-.02.12,0,.22,0,.34,0-.11.16-.31.06-.46.09Z"/><path class="uuid-c45dd4f3-b889-4314-92ff-ddcf1032abe8" d="m11.98,9.55s0-.01,0-.03c.02-.01.04-.01.07-.01.17,0,.33-.01.48,0-.18.02-.37.03-.55.03Z"/><path class="uuid-c45dd4f3-b889-4314-92ff-ddcf1032abe8" d="m9.95,9.76c.08,0,.14,0,.21,0-.1.04-.22.06-.33.09,0,0,0,0,0,0,0-.02,0-.04,0-.08.04-.01.07-.02.12-.02Z"/><path class="uuid-c45dd4f3-b889-4314-92ff-ddcf1032abe8" d="m10.84,9.69s0-.02,0-.04c.03-.01.07-.02.12-.02.04.01.06.02.08.04-.06.02-.14.02-.21.02Z"/><path class="uuid-5738e7c9-8ab0-4c9b-90f9-214cb21608a5" d="m7.15,13.7c-.61,0-1.21,0-1.82,0-.45,0-.9-.02-1.34-.07-.64-.08-1.3-.17-1.89-.41-.24-.1-.46-.23-.68-.36-.2-.12-.4-.24-.57-.37-.11-.09-.18-.22-.28-.33.39-.3.86-.52,1.36-.69.46-.15.93-.31,1.4-.44.34-.1.71-.15,1.06-.23.32-.07.64-.15.96-.22.1-.02.19-.04.29-.06.84-.15,1.69-.3,2.53-.45.21-.04.43-.05.66-.07-.23.17-.48.33-.73.49-.58.39-1.22.73-1.61,1.26-.1.13-.18.28-.04.41.14.12.31.27.5.31.56.1,1.13.15,1.69.22.24.03.48.05.72.08-.06.05-.11.09-.18.13-.05,0-.08,0-.13,0-.03.02-.06.04-.09.06-.05,0-.08,0-.13.01-.24.04-.12.17-.13.26-.01,0-.03,0-.05,0-.27.05-.52.09-.78.14-.03,0-.05,0-.09,0-.1.02-.19.04-.25.07-.14.08-.26.17-.39.26Z"/><path class="uuid-e7e0761c-b4c9-4230-9c7a-da451ec743eb" d="m.29,12.53c.56.36,1.12.73,1.66,1.11.26.18.46.41.68.62.03.02.03.06.04.1-.31-.09-.64-.16-.93-.29-.44-.2-.86-.43-1.28-.65-.09-.05-.14-.14-.2-.21-.05-.06-.1-.12-.17-.18-.07-.19.06-.34.19-.5Z"/><path class="uuid-c45dd4f3-b889-4314-92ff-ddcf1032abe8" d="m15.35,9.24c-.21.03-.44.05-.68.05.21-.03.44-.05.68-.05Z"/><path class="uuid-c45dd4f3-b889-4314-92ff-ddcf1032abe8" d="m15.96,9.17c-.15.03-.31.05-.5.08.12-.13.3-.11.5-.08Z"/><path class="uuid-c45dd4f3-b889-4314-92ff-ddcf1032abe8" d="m11.83,9.55c-.05.17-.22.09-.37.08.11-.03.23-.05.37-.08Z"/><path class="uuid-c45dd4f3-b889-4314-92ff-ddcf1032abe8" d="m11.26,9.62s-.06.03-.11.04c.03-.02.06-.03.11-.04Z"/><path class="uuid-1655319c-aa36-4918-9d06-b6628f7e2168" d="m13.3,14.59c.09,0,.19,0,.29.03.78.13,1.56.27,2.34.41.06.01.11.05.17.08-.4,0-.81.02-1.19-.05-.45-.08-.87-.23-1.3-.36-.1-.03-.2-.07-.31-.11Z"/><path class="uuid-1655319c-aa36-4918-9d06-b6628f7e2168" d="m7.28,13.73c.07.07.14.14.22.22-.14-.02-.28-.05-.44-.08.04-.07.07-.11.09-.17.13-.1.25-.19.39-.27.07-.04.16-.05.25-.06-.02.04-.06.06-.1.09-.14.09-.27.18-.41.27Z"/><path class="uuid-1655319c-aa36-4918-9d06-b6628f7e2168" d="m7.63,13.98c.33.03.67.06,1,.1.16.02.32.04.48.07-.46-.03-.93-.07-1.4-.12-.03,0-.06-.03-.09-.05Z"/><path class="uuid-1655319c-aa36-4918-9d06-b6628f7e2168" d="m12.6,14.46c.18.02.37.06.57.1-.18-.02-.37-.06-.57-.1Z"/><path class="uuid-1655319c-aa36-4918-9d06-b6628f7e2168" d="m9.79,14.19c.14,0,.28.01.43.04-.14,0-.28-.01-.43-.04Z"/><path class="uuid-1655319c-aa36-4918-9d06-b6628f7e2168" d="m9.23,14.18c.13-.02.26-.02.41-.02-.13.02-.26.02-.41.02Z"/><path class="uuid-1655319c-aa36-4918-9d06-b6628f7e2168" d="m11.95,14.38c.12-.07.24-.06.34.04-.11,0-.22-.02-.34-.04Z"/><path class="uuid-1655319c-aa36-4918-9d06-b6628f7e2168" d="m10.84,14.25c.11,0,.23.01.35.04-.11,0-.23-.01-.35-.04Z"/><path class="uuid-1655319c-aa36-4918-9d06-b6628f7e2168" d="m11.58,14.32c.05,0,.11.01.17.04-.05,0-.11-.01-.17-.04Z"/><path class="uuid-1655319c-aa36-4918-9d06-b6628f7e2168" d="m10.41,14.25s.1-.02.16-.02c-.04.01-.1.02-.16.02Z"/><path class="uuid-1655319c-aa36-4918-9d06-b6628f7e2168" d="m11.33,14.32s.07-.02.12-.01c-.03.01-.07.02-.12.01Z"/><path class="uuid-1655319c-aa36-4918-9d06-b6628f7e2168" d="m12.42,14.45s.04-.02.08-.01c-.02.01-.04.02-.08.01Z"/><path class="uuid-d8db2378-6c58-46c9-b667-ecf2a82e5f62" d="m10.62,13.44s.04,0,.08.01c.15.08.28.15.41.22-.46.01-.92.02-1.39.03-.16,0-.32,0-.48,0-.64.01-1.28.02-1.93.03.12-.09.25-.18.39-.27.04-.02.08-.05.12-.09.02-.01.04-.01.08,0,.28.12.49-.08.74-.06.02,0,.04-.05.06-.08,0,0,.02,0,.05,0,.13,0,.24,0,.34,0,.02,0,.04,0,.08.01.05.03.07.06.1.06.41.05.83.11,1.24.15.04,0,.08-.02.12-.03Z"/><path class="uuid-1655319c-aa36-4918-9d06-b6628f7e2168" d="m8.67,13.23s-.02.08-.04.08c-.24-.02-.45.19-.72.06.24-.05.49-.1.76-.14Z"/><path class="uuid-ce8ae868-dec8-4a45-b375-ee68963357b1" d="m9.07,13.22c-.1,0-.2,0-.32,0-.02-.1-.13-.22.1-.26-.12.18.09.19.22.26Z"/><path class="uuid-ce8ae868-dec8-4a45-b375-ee68963357b1" d="m9.55,12.76c-.09.04-.2.09-.32.13.04-.04.09-.08.15-.12.06,0,.1,0,.17,0Z"/><path class="uuid-ce8ae868-dec8-4a45-b375-ee68963357b1" d="m9.07,12.9s-.03.04-.06.06c0-.02.03-.04.06-.06Z"/><path class="uuid-058031ff-7c53-4f6c-b335-8022ce6f34ca" d="m15.08,12.38s.01.04.01.06c-.43.12-.86.23-1.32.21-.54-.02-1.09-.06-1.63-.06-.44,0-.87.06-1.33.1-.09-.03-.15-.05-.23-.09.25-.04.51-.07.76-.1.36-.05.7-.15,1.09-.11.39.05.78.09,1.17.09.41,0,.82-.07,1.23-.11.08,0,.16,0,.25,0Z"/><path class="uuid-058031ff-7c53-4f6c-b335-8022ce6f34ca" d="m15.3,12.35s-.06.03-.11.04c.02-.02.06-.03.11-.04Z"/><path class="uuid-ce8ae868-dec8-4a45-b375-ee68963357b1" d="m11.12,13.66c-.15-.07-.28-.14-.42-.22.28.06.57.13.86.2.26.06.53.12.8.19-.2.1-.39-.01-.58-.05-.21-.04-.43-.08-.66-.12Z"/><path class="uuid-ce8ae868-dec8-4a45-b375-ee68963357b1" d="m14.4,14.08c.22-.02.45-.03.68-.04.17,0,.34,0,.52.01.02.03.02.04.02.05-.4,0-.8-.01-1.22-.03Z"/><path class="uuid-ce8ae868-dec8-4a45-b375-ee68963357b1" d="m12.46,13.86c.3.03.61.07.92.12-.32.03-.63,0-.92-.12Z"/><path class="uuid-ce8ae868-dec8-4a45-b375-ee68963357b1" d="m15.9,14.05c.24-.03.49-.05.76-.07-.24.03-.49.05-.76.07Z"/><path class="uuid-ce8ae868-dec8-4a45-b375-ee68963357b1" d="m13.48,14.01c.2,0,.41,0,.64.03-.2,0-.41,0-.64-.03Z"/><path class="uuid-ce8ae868-dec8-4a45-b375-ee68963357b1" d="m16.91,13.98c.05-.02.12-.03.2-.03-.05.02-.12.03-.2.03Z"/><path class="uuid-d8db2378-6c58-46c9-b667-ecf2a82e5f62" d="m15.63,14.11s0-.03,0-.06c.02-.01.04-.01.07,0-.01.03-.04.05-.07.06Z"/><path class="uuid-ce8ae868-dec8-4a45-b375-ee68963357b1" d="m10.61,13.43s-.07.04-.11.04c-.41-.05-.83-.1-1.24-.15-.03,0-.06-.03-.09-.06.14,0,.29.03.44.05.33.04.66.08,1,.13Z"/><path class="uuid-b5534e0c-a63a-4e19-9b63-f137c19fa2fd" d="m70.1,8.94s.04,0,.07.02c.1.11.18.21.28.29.28.23.56.45.84.68.36.3.72.6,1.09.91.06.17.09.33-.07.47-.05.04-.07.11-.12.16-.05.01-.09.02-.12.02.12-.32-.01-.56-.3-.77-.1-.07-.22-.13-.31-.21-.38-.32-.74-.65-1.13-.96-.33-.26-.68-.5-1.02-.76-.35-.27-.68-.54-1.02-.81-.1-.08-.19-.1-.33-.07-.21.05-.42.07-.63.12-.36.08-.73.14-1.08.25-.37.12-.56.25-.17.59.03.02.06.05.1.06.15.06.19.16.18.28-.02.19-.02.39-.05.59-.06.39-.15.77-.37,1.13-.11.18-.24.2-.48.13-.2-.06-.41-.14-.62-.16-.37-.03-.74-.04-1.11-.04-.34,0-.69,0-1.02.04-.21.02-.41.07-.55.23-.08.1-.24.18-.38.23-.56.18-1.14.05-1.72.03-.34-.01-.68-.01-1.03-.01-.33,0-.67,0-1,0-.34,0-.69,0-1.02.03-.52.06-1.03.18-1.57.17-.35,0-.71.05-1.06.09-.37.04-.67-.1-.69-.37.03-.03.06-.05.11-.06.04-.03.08-.06.11-.1.09-.08.17-.14.27-.2.31-.18.61-.35.88-.55.18-.12.31-.28.48-.43.24-.12.47-.24.69-.36.3-.17.59-.33.99-.28.12.01.26-.02.39-.05.19-.04.38-.11.57-.16.35-.08.71-.12,1.05-.22.19-.06.39-.17.5-.3.2-.23.34-.49.5-.74.17-.27.38-.53.68-.73.13-.1.28-.12.44-.08.33.1.65.14.99.05.35-.09.71-.16.82-.49.08-.25.26-.45.54-.59.09.4.33.64.89.61,0,0,.01,0,.02,0,.52.07,1.04.12,1.58.03.31-.05.67-.06.92.12.22.16.39.37.57.56.13.14.24.3.37.44.05.04.16.06.24.07.1,0,.2,0,.32,0,.33.26.64.51.97.76.16.12.34.23.51.35m-8.43-.9c-.04.19-.1.37-.13.56-.04.27-.14.52-.49.63-.41.13-.83.24-1.26.31-.72.11-1.45.17-2.16.28-.31.05-.62.13-.83.35-.15.15-.33.28-.5.42-.04.03-.06.07-.11.13.2.02.35.05.51.04.58-.02,1.16-.04,1.74-.06.08,0,.16.02.23.03.34.07.65.18,1.02.18.73,0,1.43-.13,2.13-.23.68-.09,1.35-.22,2.02-.31.15-.02.35-.05.47,0,.3.13.44.02.57-.15.06-.07.11-.14.15-.22.19-.32.32-.65.3-1-.02-.29-.05-.58-.09-.86-.02-.17.1-.25.29-.29.31-.07.63-.14.93-.22.2-.05.39-.13.59-.2,0-.02-.01-.05-.02-.07-.62-.14-1.25-.26-1.86-.42-.41-.11-.74,0-1.07.15-.35.16-.72.25-1.12.2-.19-.02-.32.01-.47.08-.16.07-.31.18-.48.19-.26.01-.27.15-.33.28-.03.06-.03.13-.05.23Z"/><path class="uuid-4cd81d94-7e9a-421c-916b-d21ad4abd9a0" d="m79.4,9.97c.21.02.42.03.62.07.92.16,1.83.32,2.74.5,1.17.23,2.33.52,3.42.94.44.17.87.36,1.2.65.22.19.36.4.35.67-.01.38,0,.75,0,1.13,0,.24-.12.43-.32.6-.58.49-1.33.77-2.13.99-.41.12-.82.24-1.24.35-.37.1-.76.17-1.14.25-.39.08-.77.18-1.16.25-.43.08-.87.15-1.31.22-.63.1-1.27.19-1.9.28-.69.09-1.39.18-2.08.27-.46.06-.91.13-1.37.18-.31.04-.63.05-.95.09-.35.03-.69.08-1.03.11-.34.03-.68.06-1.02.09-.39.03-.78.07-1.17.1-.38.03-.75.07-1.13.1-.8.07-1.61.13-2.41.19-.45.03-.9.05-1.35.08-.59.04-1.17.09-1.76.13-.36.02-.71.03-1.07.04-1.12.05-2.24.11-3.36.16-.38.02-.76.03-1.14.04-1.13.03-2.26.07-3.39.1-.98.03-1.97.05-2.96.07-1.32.03-2.64.06-3.97.07-2.9.02-5.79.02-8.69.03-.64,0-1.28-.02-1.93-.03-.66-.01-1.31-.02-1.97-.03-1-.02-2-.04-3-.07-.74-.02-1.47-.04-2.21-.07-.86-.03-1.72-.06-2.58-.1-.96-.04-1.92-.09-2.88-.14-.97-.05-1.93-.11-2.9-.17-.6-.03-1.19-.06-1.79-.1-.74-.06-1.47-.13-2.21-.19-.38-.03-.76-.04-1.13-.08-.38-.03-.76-.07-1.15-.11-.34-.03-.68-.06-1.02-.09-.37-.04-.73-.08-1.1-.12-.26-.03-.53-.05-.8-.08-.57-.06-1.14-.13-1.7-.19-.43-.05-.86-.09-1.29-.15-.52-.07-1.04-.15-1.56-.23-.53-.08-1.05-.16-1.57-.25-.43-.07-.85-.17-1.27-.25-.28-.05-.56-.1-.84-.15-.43-.09-.86-.18-1.28-.29-.51-.14-1.02-.29-1.51-.46-.64-.22-1.26-.47-1.72-.89-.24-.22-.28-.49-.29-.76-.01-.29,0-.59,0-.88-.02-.28.14-.5.37-.69.51-.43,1.16-.68,1.84-.9.47-.15.95-.3,1.43-.43.35-.09.71-.15,1.07-.23.44-.09.88-.19,1.33-.27.82-.14,1.65-.27,2.48-.4.42-.06.84-.11,1.28-.15.02.04.02.06,0,.08-.33.05-.64.09-.96.13-.23.03-.45.04-.66.08-.85.15-1.69.3-2.53.45-.1.02-.2.03-.29.06-.32.07-.64.15-.96.22-.35.08-.72.13-1.06.23-.47.13-.94.29-1.4.44-.51.17-.97.39-1.39.69-.09.13-.17.25-.26.37-.13.16-.25.31-.2.52,0,.12.01.23.02.33.02.15.09.31.04.44-.09.26.07.44.25.61.38.36.89.59,1.42.78.31.12.63.21.96.31.42.13.84.26,1.27.36.38.09.78.15,1.17.22.65.13,1.3.27,1.95.39.46.08.94.14,1.41.2.57.08,1.14.17,1.71.24.64.08,1.28.15,1.92.23.75.08,1.51.17,2.27.25.59.06,1.19.09,1.78.14.58.05,1.15.11,1.73.16.49.04.98.07,1.48.11.65.04,1.3.09,1.95.13.39.03.78.05,1.17.07.55.04,1.1.09,1.65.13.48.03.96.05,1.44.07.94.04,1.87.09,2.81.13.6.03,1.19.05,1.79.07.76.02,1.52.05,2.27.07.82.02,1.65.05,2.47.07,1.32.03,2.64.07,3.96.07,4.06-.02,8.13.08,12.19-.06.9-.03,1.81-.04,2.71-.07.78-.02,1.56-.04,2.34-.07.62-.02,1.24-.05,1.86-.07.83-.03,1.66-.04,2.49-.07.5-.02,1-.04,1.5-.07.7-.04,1.39-.09,2.09-.13.66-.04,1.32-.07,1.98-.11.81-.05,1.62-.11,2.43-.17.35-.03.71-.06,1.06-.09.43-.04.87-.07,1.3-.11.33-.03.66-.06,1-.09.4-.04.81-.08,1.21-.12.53-.05,1.07-.1,1.6-.16.61-.07,1.22-.14,1.83-.22.65-.08,1.31-.16,1.96-.25.52-.07,1.04-.15,1.56-.23.3-.05.6-.1.89-.15.2-.04.41-.08.61-.11.51-.1,1.02-.18,1.52-.29.4-.09.79-.2,1.18-.31.45-.12.92-.24,1.36-.39.37-.13.72-.31,1.07-.47.59-.26.94-.62.92-1.16,0-.2,0-.39,0-.61.03-.31-.07-.58-.3-.8-.39-.38-.91-.64-1.51-.81-.45-.14-.87-.29-1.31-.41-.56-.15-1.13-.29-1.71-.41-.37-.08-.76-.13-1.15-.19-.13-.04-.26-.06-.39-.1-.14-.03-.26-.04-.4-.06-.5-.09-.99-.18-1.48-.27,0-.02,0-.03,0-.04Z"/><path class="uuid-d05e8995-ae00-432b-927b-70f13b9c4f95" d="m33.44,5.7s0-.03.02-.06c.03-.06.05-.1.06-.16,0-.08,0-.15.02-.23,0-.17,0-.33-.01-.51,0-.26,0-.51.01-.77,0-.09,0-.18,0-.27,0-.03,0-.04.02-.06.03-.08.04-.16.06-.25,0-.04,0-.06.01-.09,0-.04,0-.07,0-.11.09-.3.31-.52.58-.73.1.05.2.09.28.14.24.13.47.26.71.41.22.12.43.23.64.33.12.05.24.09.35.14-.27.04-.53.08-.78.09-.31.02-.63,0-.94,0-.27,0-.36.05-.31.24.06.26.15.53.29.78.19.32.21.61-.04.91-.03.04-.04.08-.04.13-.02.44-.02.88-.05,1.33-.02.33-.16.6-.56.77-.26.11-.37.6-.19.78.04.04.11.07.17.1.06.03.13.05.19.08.41.18.85.29,1.32.32.44.03.88.1,1.2.34.28.2.48.47.73.7.12.12.26.23.39.35.05.04.09.09.13.14-.27-.06-.53-.14-.79-.19-.46-.09-.9-.19-1.34-.37-.81-.32-1.65-.59-2.48-.88-.21-.07-.43-.12-.65-.18,0,0-.03,0-.04,0-.02-.01-.03-.02-.04-.04,0-.03,0-.04,0-.07-.03-.17-.06-.33-.09-.49,0-.05-.03-.09-.04-.15-.05-.31.11-.52.43-.68.16-.08.32-.17.45-.29.23-.21.25-.48.22-.74,0-.01,0-.03.02-.06.02-.13.02-.23.02-.34,0-.04,0-.07.03-.13.02-.06.03-.1.05-.14.02-.02.02-.05.02-.07Z"/><path class="uuid-3cce9185-e799-479a-a4f6-e5ac09f40767" d="m74.39,9.36c.05,0,.1,0,.18.01.23.05.43.09.63.12.5.07,1.01.14,1.52.17.05,0,.09.04.13.07-.14.08-.28.14-.41.22-.06.04-.13.1-.14.15,0,.03.1.09.16.1.48.12.96.2,1.47.23.63.04,1.26.09,1.89.03.06,0,.13.02.19.03,0,.02,0,.03.01.05-.09.04-.17.09-.26.13-.48.17-1,.16-1.5.1-.63-.08-1.25-.21-1.87-.3-.33-.05-.67-.08-.96.09-.57.34-1.26.49-1.91.71-.15.05-.22.03-.19-.11.03,0,.05,0,.09,0,.03-.02.06-.04.09-.06.03,0,.05,0,.09,0,.03-.02.05-.04.09-.07.01,0,.03,0,.05,0,.03-.03.06-.07.08-.11.01-.17-.13-.15-.27-.17-.06-.03-.12-.04-.2-.05-.12,0-.23,0-.34-.01-.08,0-.14,0-.23,0-.14,0-.26,0-.39,0-.04-.04-.07-.07-.1-.1-.25-.19-.55-.35-.75-.56-.31-.32-.64-.62-1.05-.86-.05-.03-.06-.09-.12-.17.15.04.25.07.34.08.55.05,1.11.09,1.66.14.47.04.93.09,1.4.13.21.02.43.01.64.02Z"/><path class="uuid-52138a6b-d0be-4b4a-ad83-29e3008bdd01" d="m64.13,3.68s0,.03-.01.05c-.02,0-.03,0-.04,0-.15-.09-.22-.19-.13-.33.02-.03,0-.09-.02-.13-.12-.2-.22-.4-.36-.59-.08-.11-.22-.22-.36-.26-.46-.12-.93-.2-1.4-.3-.45-.1-.92-.17-1.35-.31-.54-.16-1.05-.37-1.57-.57-.66-.25-1.34-.44-2.1-.44-1.48,0-2.95,0-4.43,0-.55,0-1.1.04-1.65.07-.02,0-.04,0-.06,0-.5.04-1.01.1-1.51.12-.42.02-.85.02-1.27-.03-.52-.05-1.03-.16-1.54-.24-.25-.04-.5-.1-.75-.15-.52-.11-1.04-.24-1.57-.31-.54-.06-1.09-.07-1.63-.07-.32,0-.64.08-.96.11-.22.02-.45.03-.66.04.41-.07.82-.13,1.22-.2.88-.16,1.77-.12,2.64.03.73.12,1.45.28,2.17.44.87.2,1.76.28,2.66.24.42-.02.84-.04,1.26-.07.52-.04,1.04-.12,1.56-.12,1.61-.02,3.22-.01,4.83,0,.33,0,.67.03.99.11.47.11.92.28,1.37.42.56.18,1.12.38,1.69.55.34.1.7.18,1.05.26.36.08.73.13,1.1.2.13.03.3.06.36.13.19.21.39.44.48.68.08.2.01.43.01.65Z"/><path class="uuid-c45dd4f3-b889-4314-92ff-ddcf1032abe8" d="m32.35,8.81s0,.03,0,.06c0,.01,0,.01-.01.02-.02.01-.02.02-.02.03,0,0-.01.01-.03,0-.11,0-.2,0-.3-.02-.06,0-.12.02-.19.04-.22.04-.43.05-.61.11-.45.15-.89.33-1.33.5-.11.04-.26.06-.25-.05.01-.15-.09-.23-.19-.32-.23-.21-.46-.42-.69-.65-.06-.11-.02-.17.12-.19.07-.01.13-.03.2-.04.03,0,.06,0,.13,0,.88-.02,1.72-.04,2.56-.06.34,0,.39.03.48.29.03.1.08.19.13.29Z"/><path class="uuid-ff26b736-fc4f-43d2-85f2-3ae2fed4052b" d="m64.15,3.68c-.01-.21.05-.44-.03-.64-.1-.24-.29-.47-.48-.68-.07-.07-.23-.11-.36-.13-.36-.07-.73-.12-1.1-.2-.35-.07-.71-.15-1.05-.26-.57-.17-1.12-.37-1.69-.55-.45-.15-.9-.31-1.37-.42-.31-.08-.66-.11-.99-.11-1.61-.01-3.22-.01-4.83,0-.52,0-1.04.08-1.56.12-.42.03-.84.06-1.26.07-.91.04-1.79-.04-2.66-.24-.72-.17-1.44-.32-2.17-.44-.87-.15-1.75-.2-2.64-.03-.4.07-.81.13-1.24.2-.04,0-.06.01-.1.01-.2.06-.38.11-.57.17-.03,0-.05,0-.09,0-.04.02-.06.04-.09.06-.06.01-.11.03-.17.04-.04.02-.06.04-.1.06-.2.05-.39.09-.57.15-.47.16-.93.33-1.4.5-.05.02-.08.04-.13.07-.03,0-.05,0-.09,0-.26.07-.49.13-.75.2-.03,0-.05,0-.08,0-.32.07-.63.14-.94.22-.03,0-.04.04-.07.06-.01,0-.03,0-.05,0-.07.02-.11.04-.18.07-.03,0-.05,0-.08,0-.04.02-.06.04-.09.06-.03,0-.05,0-.08,0-.04.02-.06.04-.09.06-.14.05-.26.09-.39.14-.03.01-.05.02-.09.03-.03,0-.05,0-.07,0,0,0,0,0,0,0,.12-.15.28-.22.5-.28.2-.06.48-.07.58-.28.01-.02.12-.05.15-.03.1.06.18.02.28,0,.57-.14,1.15-.28,1.73-.42.03,0,.06-.02.08-.03.31-.2.71-.25,1.06-.39.5-.2,1.04-.36,1.57-.5.42-.11.88-.13,1.3-.23.63-.14,1.26-.08,1.89-.09.64-.01,1.25.13,1.86.26.31.07.63.12.94.18.24.05.47.11.7.16.48.09.95.19,1.46.18.46-.01.91,0,1.37,0,.34-.01.68-.07,1.01-.09.38-.03.75-.07,1.13-.07,1.66,0,3.32,0,4.98,0,.46,0,.91.03,1.35.14.2.05.39.13.59.19.11.03.22.04.33.07.07.02.15.05.2.09.16.13.34.2.57.22.05,0,.1.02.14.04.23.09.45.2.69.27.42.12.86.21,1.29.3.44.1.9.17,1.34.28.23.06.38.2.45.4.06.16.18.31.28.47.02.03.06.06.06.09-.05.17-.12.35-.19.52Z"/><path class="uuid-c45dd4f3-b889-4314-92ff-ddcf1032abe8" d="m25.89,8.44c.12,0,.23,0,.39,0,.31-.02.57-.04.84-.06.18,0,.35,0,.57,0,.12.01.19.03.26.05-.08.03-.15.04-.22.06-.55.21-1.09.43-1.64.64-.34.13-.8.07-1.07-.15,0-.01,0-.02.02-.02.36.08.68,0,.99-.1.23-.07.42-.24.69-.06.02.01.09,0,.13-.03.08-.03.14-.07.22-.11.12-.06.24-.12.36-.18,0-.01-.01-.03-.02-.04-.1,0-.24-.02-.31.02-.14.09-.26.06-.42.06-.44,0-.87.06-1.31.09-.03,0-.08.03-.08.05,0,.15-.17.16-.29.21-.07-.02-.12-.04-.19-.06-.06-.02-.11-.05-.15-.08,0-.03,0-.04,0-.06,0,0,0,0,.02,0,.15,0,.28,0,.44-.01-.05-.08-.08-.12-.08-.16.3-.02.58-.05.86-.07Z"/><path class="uuid-ff26b736-fc4f-43d2-85f2-3ae2fed4052b" d="m70.1,8.93c-.17-.1-.35-.21-.51-.34-.32-.25-.64-.5-.97-.77-.19-.16-.38-.29-.53-.45-.13-.14-.2-.31-.34-.45-.28-.29-.65-.46-1.15-.42-.18.02-.36.07-.54.06-.55-.04-1.09-.1-1.64-.15-.21-.02-.29-.12-.34-.26-.05-.13-.11-.26-.17-.41-.01-.14-.03-.27-.04-.39.04.02.1.04.11.07.07.23.12.46.19.68.02.06.1.15.17.16.41.08.83.15,1.25.2.39.05.77-.03,1.16-.08.19-.02.42.05.6.13.37.15.57.42.77.68.06.07.05.22.12.24.26.07.34.26.51.39.44.32.85.66,1.27,1,.03.02.05.05.07.09Z"/><path class="uuid-4cd81d94-7e9a-421c-916b-d21ad4abd9a0" d="m74.38,9.35c-.21,0-.42.01-.64,0-.47-.04-.93-.09-1.4-.13-.55-.05-1.11-.09-1.66-.14-.1,0-.19-.04-.34-.08.06.08.07.14.12.17.41.25.74.55,1.05.86.21.21.5.38.75.56.04.03.06.06.1.11.01.06.01.09.01.13-.36-.3-.72-.6-1.08-.9-.28-.23-.57-.45-.84-.68-.1-.08-.18-.19-.27-.29.11-.01.23-.01.37,0,.05.02.08.02.12.03.36.03.72.06,1.08.09.68.06,1.35.13,2.03.19.2.02.4.04.61.07Z"/><path class="uuid-4cd81d94-7e9a-421c-916b-d21ad4abd9a0" d="m76.86,9.72s-.09-.06-.14-.06c-.51-.03-1.02-.1-1.52-.17-.2-.03-.41-.07-.61-.11.35.02.71.05,1.07.09.64.07,1.29.14,1.93.23.57.07,1.14.17,1.7.27-.02.02-.04.02-.08.03-.19-.02-.37-.05-.54-.07-.21-.02-.44,0-.62-.05-.39-.12-.79-.12-1.18-.15Z"/><path class="uuid-33a96d65-fa2a-4c81-844a-b9af9cbef257" d="m63.87,5.36c.02.13.03.25.03.4-.02.04-.03.06-.05.08-.06.01-.11.02-.16.02-.03-.05-.07-.09-.08-.13-.09-.42-.25-.84-.17-1.27.02-.1.17-.18.25-.26,0,.07,0,.13,0,.2.01.16.03.31.03.47.01.06.03.11.06.16,0,0,0,.02,0,.04,0,.04,0,.05-.01.07.02.08.06.15.1.23,0,0,0,0,0,0Z"/><path class="uuid-c45dd4f3-b889-4314-92ff-ddcf1032abe8" d="m20.32,8.77s.09,0,.17,0c.26-.02.48-.04.71-.06.04,0,.09,0,.17,0,.33-.02.63-.04.93-.06.06,0,.12,0,.22,0,.29,0,.54-.02.79-.02-.07.04-.14.08-.21.08-.59.03-1.18.05-1.78.07-.05,0-.13.01-.15.04-.12.18-.35.17-.56.2-.21.02-.3-.04-.29-.21,0-.02,0-.02,0-.03Z"/><path class="uuid-4cd81d94-7e9a-421c-916b-d21ad4abd9a0" d="m32.35,8.79c-.04-.08-.1-.17-.13-.27-.09-.25-.14-.29-.48-.29-.84.02-1.68.04-2.54.06.03-.02.07-.05.12-.05.38-.02.76-.02,1.13-.04.54-.02,1.09-.04,1.66-.06.05.01.07.01.1.02.01.05.03.09.04.14.03.16.06.32.09.49Z"/><path class="uuid-ff26b736-fc4f-43d2-85f2-3ae2fed4052b" d="m33.53,5.26c0,.07,0,.14-.02.22-.03.02-.05.02-.07.02-.01-.05-.04-.11-.04-.16,0-.49,0-.98,0-1.48,0-.08.06-.17.1-.24.02.01.02.02.03.03,0,.01,0,.03-.01.06,0,.1,0,.19,0,.27,0,.25,0,.5-.01.77,0,.19,0,.35.01.51Z"/><path class="uuid-ff26b736-fc4f-43d2-85f2-3ae2fed4052b" d="m32.21,8.15s-.05,0-.08,0c-.04-.31.07-.55.43-.72.15-.07.3-.16.4-.27.12-.14.18-.3.26-.46.04-.08.04-.17.07-.26.05.26.03.53-.2.74-.12.11-.28.2-.45.29-.32.16-.48.37-.43.68Z"/><path class="uuid-4cd81d94-7e9a-421c-916b-d21ad4abd9a0" d="m23.3,8.61c-.25.01-.5.02-.78.03.07-.03.15-.08.24-.09.53-.03,1.05-.05,1.58-.07.04,0,.07,0,.11.03,0,.07-.01.12-.03.18-.08.02-.14.04-.21.04,0-.07,0-.12-.01-.18-.25.02-.47.04-.71.07-.08,0-.14,0-.2,0Z"/><path class="uuid-4cd81d94-7e9a-421c-916b-d21ad4abd9a0" d="m27.96,8.4c-.08-.01-.15-.02-.25-.04.01-.02.05-.05.08-.05.41-.01.83-.02,1.25-.02-.05.02-.12.04-.18.05-.14.02-.18.07-.13.18-.09-.02-.17-.06-.25-.11-.08-.14-.17-.03-.28-.02-.09,0-.17,0-.24,0Z"/><path class="uuid-ff26b736-fc4f-43d2-85f2-3ae2fed4052b" d="m34.19,2.47c-.26.21-.48.43-.58.74-.01.05,0,.08,0,.11,0,.02,0,.05-.02.09-.03.01-.05.01-.07.02-.01-.04-.05-.08-.04-.11.12-.4.35-.76.81-1.01.03-.02.08-.02.13-.04.02,0,.02,0,.02.02-.09.07-.18.13-.26.19Z"/><path class="uuid-ff26b736-fc4f-43d2-85f2-3ae2fed4052b" d="m63.73,4.86c-.01-.15-.03-.29-.03-.47.03-.11.06-.19.09-.28.09-.13.17-.25.26-.37.01,0,.03,0,.03,0,0,0,.02,0,.03,0-.04.1-.05.23-.14.31-.18.17-.17.35-.16.54,0,.08,0,.17-.04.26-.03.01-.04.01-.05.01Z"/><path class="uuid-4cd81d94-7e9a-421c-916b-d21ad4abd9a0" d="m16.95,9.02c.07-.02.13-.04.2-.05.39-.03.78-.05,1.17-.06-.13.07-.34-.04-.43.13-.15,0-.29,0-.43,0-.18-.01-.34-.01-.5-.01Z"/><path class="uuid-c45dd4f3-b889-4314-92ff-ddcf1032abe8" d="m17.9,9.04c.08-.17.28-.06.43-.12.07-.01.13-.01.23-.01.22,0,.4-.02.58-.02-.07.04-.14.07-.22.08-.22.03-.45.05-.67.07-.11,0-.22,0-.33,0Z"/><path class="uuid-c45dd4f3-b889-4314-92ff-ddcf1032abe8" d="m16.93,9.02c.18,0,.35,0,.51.03-.03.04-.06.06-.09.06-.39.03-.78.05-1.17.07.09-.03.17-.07.27-.1.06-.02.14-.02.21-.04.09-.02.17-.02.27-.02Z"/><path class="uuid-c45dd4f3-b889-4314-92ff-ddcf1032abe8" d="m19.27,8.83c.07,0,.15,0,.26,0,.23,0,.43-.02.62-.02-.07.05-.14.12-.2.11-.23,0-.45-.04-.67-.07,0-.02,0-.03,0-.04Z"/><path class="uuid-4cd81d94-7e9a-421c-916b-d21ad4abd9a0" d="m25.88,8.43c-.27.03-.54.05-.86.08-.1,0-.16,0-.23,0,.18-.03.35-.07.53-.08.18-.01.36,0,.56.01Z"/><path class="uuid-98279319-f863-4ec3-97a8-0f49c5ab4eb0" d="m24.78,8.5c.08,0,.14,0,.22,0,.04.04.07.08.12.16-.16,0-.29,0-.44,0,0-.06.01-.11.03-.16.02,0,.04,0,.07,0Z"/><path class="uuid-4cd81d94-7e9a-421c-916b-d21ad4abd9a0" d="m22.28,8.63c-.28.03-.58.05-.9.07.12-.03.26-.07.4-.09.16-.01.32,0,.49.01Z"/><path class="uuid-4cd81d94-7e9a-421c-916b-d21ad4abd9a0" d="m27.11,8.36c-.25.03-.52.05-.81.07.13-.03.27-.07.42-.09.12-.01.25,0,.38.01Z"/><path class="uuid-4cd81d94-7e9a-421c-916b-d21ad4abd9a0" d="m20.14,8.81c-.19.01-.39.02-.6.03.24-.03.49-.06.77-.08.01.01.01.02,0,.04-.06,0-.11,0-.16,0Z"/><path class="uuid-4cd81d94-7e9a-421c-916b-d21ad4abd9a0" d="m21.18,8.7c-.21.03-.43.05-.68.07.19-.12.43-.09.68-.07Z"/><path class="uuid-4cd81d94-7e9a-421c-916b-d21ad4abd9a0" d="m19.25,8.82s.02.03,0,.04c-.05,0-.08,0-.11,0-.18.01-.36.02-.56.03.18-.14.42-.08.67-.08Z"/><path class="uuid-c45dd4f3-b889-4314-92ff-ddcf1032abe8" d="m24.69,8.5s-.01.1-.03.16c0,.01,0,.01-.02.01-.04,0-.06,0-.1,0-.04,0-.07,0-.1,0,0-.05.02-.1.03-.16.07-.01.13-.01.21-.01Z"/><path class="uuid-ff26b736-fc4f-43d2-85f2-3ae2fed4052b" d="m33.33,6.04c.01.1.01.21,0,.33-.01-.1-.01-.21,0-.33Z"/><path class="uuid-058031ff-7c53-4f6c-b335-8022ce6f34ca" d="m33.53,3.42s.04-.02.07-.02c0,.08-.01.16-.04.24-.02,0-.02,0-.03-.03,0-.07,0-.12,0-.19Z"/><path class="uuid-058031ff-7c53-4f6c-b335-8022ce6f34ca" d="m63.87,5.35c-.04-.06-.07-.13-.09-.21.04.04.07.08.09.12,0,.03,0,.05,0,.09Z"/><path class="uuid-ff26b736-fc4f-43d2-85f2-3ae2fed4052b" d="m63.88,5.26s-.06-.07-.09-.12c-.01-.02-.01-.04,0-.07.04.05.07.11.09.19Z"/><path class="uuid-ff26b736-fc4f-43d2-85f2-3ae2fed4052b" d="m33.4,5.77s-.01.08-.03.13c0-.06,0-.13.01-.18.02.02.02.04.02.05Z"/><path class="uuid-3cce9185-e799-479a-a4f6-e5ac09f40767" d="m79.23,9.99s.04,0,.07-.02c.03,0,.05,0,.09,0,.02.02.02.03,0,.05-.06,0-.12-.02-.17-.03Z"/><path class="uuid-058031ff-7c53-4f6c-b335-8022ce6f34ca" d="m63.72,4.87s.03,0,.05,0c.01.05.01.09,0,.15-.02-.04-.05-.09-.06-.15Z"/><path class="uuid-058031ff-7c53-4f6c-b335-8022ce6f34ca" d="m33.44,5.52s.04-.02.07-.02c0,.04-.02.09-.05.14-.02-.03-.02-.07-.02-.12Z"/><path class="uuid-ff26b736-fc4f-43d2-85f2-3ae2fed4052b" d="m70.66,8.98s-.06,0-.09-.02c.03,0,.06,0,.09.02Z"/><path class="uuid-058031ff-7c53-4f6c-b335-8022ce6f34ca" d="m33.41,5.77s-.01-.03-.01-.06c0-.01.02-.01.03-.01,0,.02,0,.04-.01.07Z"/><path class="uuid-7ac1540b-8829-4259-ace1-3001ffbf0913" d="m53.68,11.31c.03.25.33.4.7.36.35-.04.71-.09,1.06-.09.54,0,1.05-.12,1.57-.17.34-.04.68-.02,1.02-.03.33,0,.67,0,1,0,.34,0,.68,0,1.03.01.57.02,1.15.15,1.72-.03.15-.05.3-.13.38-.23.14-.16.34-.21.55-.23.34-.03.68-.04,1.02-.04.37,0,.74,0,1.11.04.21.02.42.09.62.16.24.08.37.05.48-.13.22-.36.31-.74.37-1.13.03-.19.03-.39.05-.59.01-.12-.03-.22-.18-.28-.04-.02-.07-.04-.1-.06-.39-.35-.2-.47.17-.59.34-.11.72-.17,1.08-.25.21-.04.43-.07.63-.12.14-.03.23-.01.33.07.34.27.67.55,1.02.81.33.26.69.49,1.02.76.39.31.75.64,1.13.96.09.08.21.14.31.21.29.21.42.45.3.78-.02.04-.03.06-.06.08-.03.02-.05.05-.09.07-.3.18-.63.27-.99.29-.22.01-.45.02-.67.05-.78.1-1.55.24-2.35.23-.15,0-.31.06-.48.09-.06,0-.11,0-.16,0-.1.01-.19.03-.3.05-.07,0-.12.02-.18.02-.11.02-.21.04-.32.07-.08,0-.14,0-.21.01-.05,0-.08.02-.13.03-.08,0-.15,0-.21.01-.54.04-1.08.1-1.63.12-.75.03-1.5.02-2.25.04-1.28.04-2.56.09-3.84.13-.63.02-1.26,0-1.88,0-.3,0-.59.03-.89.06-.46.05-.91.17-1.37,0-.02,0-.04,0-.08,0-.38-.09-.74-.18-1.1-.27-.17-.04-.34-.1-.51-.15.11-.1.22-.2.34-.3.18-.16.5-.22.59-.46.14-.12.26-.24.39-.36Z"/><path class="uuid-c7b06fee-7aa7-4236-8af0-0aa980d3dfae" d="m63.69,4.19c-.09.09-.24.18-.25.27-.07.43.08.85.17,1.27,0,.04.05.08.08.14,0,.04,0,.05,0,.08,0,.03,0,.04,0,.05-.27.15-.45.35-.53.59-.11.33-.47.39-.82.49-.34.09-.67.05-.99-.05-.16-.05-.31-.02-.44.08-.29.21-.5.46-.68.73-.16.25-.3.51-.5.74-.11.13-.31.25-.5.3-.34.1-.7.14-1.05.22-.19.04-.38.11-.57.16-.13.03-.27.06-.39.05-.4-.05-.69.12-.99.28-.22.12-.45.24-.69.35.06-.36.04-.7-.18-1.03-.07-.1-.09-.23-.12-.34.16-.04.31-.08.46-.13.59-.18,1.18-.37,1.77-.55.17-.05.32-.12.36-.28.08-.34.33-.61.62-.85.12-.1.27-.18.41-.27.4-.25.82-.48,1.08-.84.09-.12.06-.18-.11-.22-.23-.04-.46-.1-.69-.14-.05,0-.1,0-.15,0-.62.05-1.23-.02-1.83-.15-.09-.02-.17-.13-.22-.2-.05-.09-.05-.2-.1-.29-.05-.08-.13-.17-.23-.22-.32-.14-.66-.24-.98-.39-.56-.26-1.04-.66-1.77-.64-.06,0-.13-.02-.19-.04-.28-.05-.61.19-.57.41-.22-.02-.42-.04-.62-.06-.51-.06-1.01-.13-1.52-.18-.29-.03-.59-.04-.88-.01-.31.03-.62.12-.93.19-.12.03-.29.02-.37.08-.21.18-.39.37-.57.57-.23.26-.42.54-.67.79-.41.42-.83.83-1.26,1.24-.11.1-.26.18-.41.27-.15-.05-.29-.1-.43-.15.17-.26.33-.5.49-.75.37-.59.72-1.18,1.13-1.75.2-.28.47-.54.98-.54.19,0,.44,0,.56-.09.19-.13.38-.22.62-.28.58-.14,1.17-.29,1.75-.44.22-.06.43-.13.67-.2.11,0,.2,0,.3,0,.05-.02.09-.04.14-.06.05,0,.08,0,.12,0,.42-.06.83-.12,1.24-.19.05,0,.08-.06.13-.09.05,0,.08,0,.13,0,.05-.02.09-.04.13-.06.03,0,.05,0,.09,0,.07-.02.11-.04.18-.07.05,0,.08,0,.12,0,.22.01.44-.01.63.02.36.07.73.15,1.07.27.19.07.38.19.5.33.16.19.28.4.38.62.14.33.41.55.84.64.69.15,1.39.29,2.09.42.68.13,1.32.09,1.91-.23.24-.13.52-.21.79-.32.03-.02.06-.04.09-.06.09,0,.17,0,.26,0,.12,0,.23,0,.35,0,.06,0,.11,0,.16,0,.03,0,.06,0,.1,0,.15,0,.29,0,.42.02-.03.17-.06.33-.09.49,0,0,0,0,0,0Z"/><path class="uuid-0505f00b-451c-4aa6-b81a-d627574dbcbb" d="m72.03,11.58s.03-.03.04-.06c.04-.02.07-.03.14-.04.38-.1.74-.2,1.09-.3-.01.13.06.16.21.11.65-.22,1.33-.38,1.91-.71.29-.17.64-.14.96-.09.63.09,1.24.22,1.87.3.5.06,1.02.08,1.5-.1.09-.03.18-.08.26-.13,0-.02,0-.03-.01-.05-.06-.01-.13-.04-.19-.03-.63.06-1.26,0-1.89-.03-.51-.03-.99-.11-1.47-.23-.07-.02-.17-.08-.16-.1.02-.06.08-.12.14-.15.13-.08.27-.14.41-.22.4.02.81.02,1.19.14.19.06.41.03.62.05.18.02.35.04.54.07.07.02.13.03.19.04.5.08.98.16,1.49.27-.01.13-.05.24-.07.35-.12.59-.48,1.09-1.01,1.51-.43.35-1,.55-1.57.71-.76.21-1.56.3-2.37.3-.33,0-.66,0-.99,0-.58-.02-1.16-.03-1.74-.07-.58-.04-1.15-.11-1.73-.17-.27-.03-.54-.06-.81-.1-.05,0-.1-.06-.14-.11.09-.05.17-.09.27-.13.18-.11.35-.22.53-.34.07-.05.14-.08.19-.12.17-.15.33-.3.51-.45.03-.03.05-.06.07-.09Z"/><path class="uuid-505b6d1f-e169-401e-b6e5-cd98052d878a" d="m61.67,8.03c.02-.08.02-.15.05-.21.06-.12.07-.26.33-.28.16,0,.32-.12.48-.19.15-.06.29-.1.47-.08.4.05.77-.04,1.12-.2.33-.15.67-.25,1.07-.15.61.16,1.24.28,1.86.42,0,.02.01.05.02.07-.2.07-.39.15-.59.2-.31.08-.62.14-.93.22-.18.04-.3.13-.29.29.03.29.07.58.09.86.02.35-.12.68-.3,1-.04.07-.09.15-.15.22-.13.17-.27.29-.57.15-.12-.05-.32-.03-.47,0-.68.1-1.34.22-2.02.31-.71.1-1.4.22-2.13.23-.37,0-.69-.1-1.02-.18-.08-.02-.16-.03-.23-.03-.58.02-1.16.05-1.74.06-.15,0-.31-.03-.51-.04.05-.06.07-.1.11-.13.17-.14.35-.27.5-.42.21-.22.52-.3.83-.35.72-.11,1.45-.17,2.16-.28.43-.07.85-.19,1.26-.31.35-.11.45-.36.49-.63.03-.19.08-.37.13-.57Z"/><path class="uuid-e7617948-1747-4da5-ab45-d560b244d5a5" d="m55.22,8.57c.04.12.07.24.14.34.22.32.24.66.16,1.03-.15.16-.29.32-.46.44-.27.19-.58.37-.88.53.13-.12.28-.22.43-.33.24-.17.47-.35.71-.52-.01-.02-.03-.04-.04-.07-.16.01-.31.03-.47.04-.05,0-.12.02-.15,0-.2-.17-.48-.1-.71-.15-.49-.1-1.01-.13-1.51-.19-.67-.08-1.34-.16-2.02-.23-.08,0-.17.01-.26.02.03.06.06.13.09.19.1.19.23.38.14.59-.05-.1-.06-.21-.12-.3-.13-.21-.24-.43-.41-.62-.28-.29-.63-.55-.92-.84-.15-.15-.23-.33-.32-.5.97.02,1.92.04,2.86.06,1.23.03,2.47.05,3.71.08.03.01.05.02.07.04,0,.06,0,.1-.01.15-.02.04-.02.07-.02.12,0,.04,0,.06,0,.09Z"/><path class="uuid-0505f00b-451c-4aa6-b81a-d627574dbcbb" d="m50.39,10.29c.08-.22-.05-.41-.15-.6-.03-.06-.06-.13-.09-.19.09,0,.18-.03.26-.02.67.07,1.34.16,2.02.23.51.06,1.02.09,1.51.19.23.05.52-.02.71.15.02.02.1,0,.15,0,.16-.01.31-.03.47-.04.01.02.03.04.04.07-.24.17-.47.35-.71.52-.15.11-.3.21-.45.33-.09.08-.17.14-.27.21-.05.04-.08.07-.11.11-.03.02-.06.03-.09.06-.13.13-.26.25-.41.37-.38.03-.72.06-1.07.07-.76.02-1.53.03-2.29.03-.08,0-.15-.02-.22-.04.02-.05.03-.08.06-.12.37-.2.61-.46.78-.76.1-.18.02-.41-.14-.5,0-.03,0-.04,0-.06Z"/><path class="uuid-52138a6b-d0be-4b4a-ad83-29e3008bdd01" d="m63.7,6.02s-.01-.04,0-.06c.06-.05.11-.08.15-.11,0-.02.02-.04.04-.06.07.13.14.25.18.39.05.14.13.25.34.26.55.05,1.09.11,1.64.15.18.01.36-.04.54-.06.5-.05.87.12,1.15.42.13.14.2.31.34.45.15.16.34.29.51.44-.1.02-.2.03-.3.02-.09,0-.2-.02-.24-.07-.14-.14-.24-.3-.37-.44-.18-.19-.35-.4-.57-.56-.25-.18-.61-.17-.92-.12-.54.09-1.05.04-1.58-.03,0,0-.01,0-.02,0-.56.03-.8-.22-.89-.61Z"/><path class="uuid-5738e7c9-8ab0-4c9b-90f9-214cb21608a5" d="m73.32,11.17c-.37.1-.72.2-1.09.3.02-.05.04-.11.09-.16.16-.14.13-.3.07-.47,0-.05,0-.09,0-.14.12-.01.24-.01.39,0,.1,0,.16,0,.23,0,.1,0,.21,0,.33.01.08.03.14.04.19.05.13,0,.28-.01.25.16-.03.05-.06.08-.08.11,0,0-.02,0-.05,0-.05.02-.07.04-.09.07-.02,0-.04,0-.09,0-.05.02-.07.04-.09.06-.02,0-.04,0-.07,0Z"/><path class="uuid-7ac1540b-8829-4259-ace1-3001ffbf0913" d="m53.79,11.24s.05-.06.09-.09c-.02.03-.05.06-.09.09Z"/><path class="uuid-76052516-c574-458a-8e19-11eaee321fe7" d="m87.65,13.09c0,.2,0,.39,0,.59.02.54-.33.91-.92,1.16-.36.16-.7.34-1.07.47-.44.15-.9.26-1.36.39-.39.11-.78.22-1.18.31-.5.11-1.01.19-1.52.29-.2.04-.41.08-.61.11-.3.05-.59.11-.89.15-.52.08-1.04.16-1.56.23-.65.09-1.3.17-1.96.25-.61.07-1.22.15-1.83.22-.53.06-1.07.1-1.6.16-.4.04-.81.08-1.21.12-.33.03-.66.06-1,.09-.43.04-.87.07-1.3.11-.35.03-.71.07-1.06.09-.81.06-1.62.12-2.43.17-.66.04-1.32.07-1.98.11-.7.04-1.39.09-2.09.13-.5.03-1,.05-1.5.07-.83.03-1.66.05-2.49.07-.62.02-1.24.05-1.86.07-.78.02-1.56.05-2.34.07-.9.02-1.81.04-2.71.07-4.06.14-8.13.04-12.19.06-1.32,0-2.64-.04-3.96-.07-.82-.02-1.65-.04-2.47-.07-.76-.02-1.52-.04-2.27-.07-.6-.02-1.19-.04-1.79-.07-.94-.04-1.87-.09-2.81-.13-.48-.02-.96-.04-1.44-.07-.55-.04-1.1-.09-1.65-.13-.39-.03-.78-.05-1.17-.07-.65-.04-1.3-.09-1.95-.13-.49-.03-.99-.06-1.48-.11-.58-.05-1.15-.11-1.73-.16-.59-.05-1.19-.09-1.78-.14-.76-.07-1.51-.16-2.27-.25-.64-.07-1.28-.14-1.92-.23-.57-.07-1.14-.16-1.71-.24-.47-.07-.94-.12-1.41-.2-.65-.12-1.3-.26-1.95-.39-.39-.08-.79-.13-1.17-.22-.43-.1-.85-.24-1.27-.36-.32-.1-.64-.2-.96-.31-.53-.2-1.04-.43-1.42-.78-.18-.17-.33-.36-.25-.61.05-.13-.03-.29-.04-.44-.01-.11-.02-.21,0-.33.07.05.12.11.17.16.06.07.11.17.2.21.42.23.84.46,1.28.65.29.13.62.2.93.32.07.04.14.07.21.09.21.05.43.1.65.15.48.12.96.26,1.45.35.68.13,1.37.24,2.05.36.35.06.7.14,1.06.19.69.1,1.39.19,2.08.28.59.08,1.17.16,1.76.23.8.09,1.6.16,2.39.24.97.1,1.93.2,2.9.3.56.05,1.12.1,1.69.13.56.04,1.13.07,1.69.1.26.02.52.02.78.04.52.04,1.04.1,1.56.13.83.05,1.65.1,2.48.14.81.04,1.63.07,2.44.1.63.02,1.25.04,1.88.07.71.03,1.42.08,2.13.1.96.03,1.92.05,2.88.07,1.22.02,2.45.06,3.67.07,1.47.01,2.94,0,4.41,0,.05,0,.1-.01.14-.02,0-.02,0-.04,0-.06-2.37-.2-4.56-.93-6.86-1.38.04,0,.08-.01.13-.02.17.01.32.02.47.04.03.01.06.02.1.03.25.03.47.05.7.09.65.1,1.31.21,1.96.31.84.14,1.68.28,2.53.42.48.08.95.19,1.43.25.63.09,1.27.15,1.91.21.68.06,1.36.1,2.04.13.48.02.96,0,1.47,0,.19,0,.35,0,.52,0,.06,0,.11-.04.19-.06.28,0,.55,0,.83,0,1.27-.02,2.51-.04,3.76-.07.82-.02,1.63-.04,2.45-.07.94-.03,1.88-.07,2.81-.1.68-.02,1.35-.05,2.03-.07.33-.01.67-.01,1-.04.76-.05,1.52-.11,2.28-.16.81-.06,1.62-.12,2.42-.17.51-.03,1.02-.04,1.52-.07.35-.02.71-.04,1.06-.07.47-.04.94-.09,1.42-.13.36-.03.72-.06,1.08-.1.41-.04.82-.1,1.23-.14.65-.06,1.31-.1,1.97-.18.92-.11,1.83-.24,2.74-.37.89-.12,1.79-.23,2.67-.38.71-.12,1.42-.27,2.12-.43.72-.16,1.43-.34,2.13-.53.34-.09.66-.23.99-.35.47-.17.93-.34,1.25-.68.09-.1.21-.18.32-.27Z"/><path class="uuid-5738e7c9-8ab0-4c9b-90f9-214cb21608a5" d="m48.85,17.51c-.48,0-.97.02-1.45,0-.68-.03-1.36-.07-2.04-.13-.64-.05-1.28-.12-1.91-.21-.48-.07-.95-.17-1.43-.25-.84-.14-1.68-.28-2.53-.42-.65-.11-1.3-.21-1.96-.31-.23-.04-.45-.06-.7-.1-.05-.01-.08-.02-.11-.02-.15-.01-.3-.02-.47-.05-.04-.02-.05-.05-.07-.05-.5-.04-1.01-.07-1.51-.11-.36-.03-.72-.06-1.07-.1-.14-.01-.28-.06-.42-.07-.79-.03-1.59-.05-2.38-.08-.08-.1-.13-.2-.23-.25-.15-.07-.33-.12-.5-.15-.67-.12-1.33-.3-2.01-.35-1.05-.08-2.1,0-3.13.23-.37.08-.77.11-1.17.16-.05.02-.08.04-.14.07-.26-.01-.49-.02-.74-.04-.19-.08-.38-.15-.54-.23.09,0,.17,0,.26,0,.04-.02.06-.04.09-.06.03,0,.05,0,.08,0,.03,0,.06,0,.1,0,.06,0,.11,0,.17,0,.05-.02.08-.04.14-.07.11,0,.2,0,.3,0,.05-.02.08-.04.13-.07.03,0,.05,0,.08,0,.03,0,.06,0,.1,0,.06,0,.11,0,.17,0,.07-.02.11-.04.18-.07.09,0,.17,0,.26,0,.06-.02.11-.04.18-.06.03,0,.05,0,.08,0,.03,0,.06,0,.1,0,.08,0,.14,0,.22,0,.05-.02.08-.04.14-.06.17,0,.31,0,.48,0,.09-.02.17-.04.27-.06.06,0,.11,0,.16,0,.05,0,.08,0,.14,0,.17,0,.31,0,.48,0,.13,0,.24,0,.34,0,.07,0,.14-.04.23-.06.17,0,.31,0,.46.01.24.03.47.04.72.05.15,0,.29,0,.43.01.05,0,.09,0,.14,0,.05,0,.08,0,.12.01.1.03.21.04.33.05.2,0,.37,0,.56,0,.03,0,.06,0,.1,0,.06,0,.11,0,.16.01.09.03.18.04.28.05.12,0,.23,0,.34.01.09,0,.17,0,.27,0,.08,0,.14,0,.2.01.13.03.26.04.41.05.42,0,.81,0,1.22.01.25.01.49.02.73.02.15,0,.3-.02.46-.03.24,0,.46,0,.69,0,.14,0,.26,0,.4,0,.05,0,.08,0,.12.01.08.03.15.04.24.05.12,0,.23,0,.34,0,.03,0,.06,0,.1,0,.03,0,.05,0,.08.01.06.03.12.04.2.05.49,0,.96,0,1.44,0,.09-.02.17-.04.26-.06.03,0,.05,0,.08,0,.06,0,.11,0,.19,0,.11,0,.2,0,.31,0,.24-.03.46-.07.69-.09.02.04.04.07.07.08.28.07.55.16.84.21.63.11,1.27.21,1.91.3.42.06.85.1,1.28.1,1.02,0,2.04.05,3.06-.06.7-.08,1.41-.11,2.12-.17.27-.02.54-.07.82-.1.39-.04.78-.07,1.16-.12.45-.05.9-.11,1.35-.15.47-.05.93-.1,1.4-.15.38-.04.76-.09,1.14-.12.29-.03.58-.05.87-.08.47-.04.95-.09,1.42-.13.35-.03.71-.05,1.06-.07.64-.04,1.29-.1,1.93-.13.39-.02.78,0,1.16,0,.64-.02,1.28-.06,1.92-.06.49,0,.97.04,1.46.06.58.02,1.16-.02,1.74.06.6.09,1.23.1,1.84.14.53.04,1.07.09,1.6.14.74.07,1.48.14,2.22.2.54.04,1.08.08,1.61.06.53-.01,1.05-.09,1.58-.12.76-.05,1.46-.24,2.16-.44.34-.1.69-.21,1.02-.33.16-.06.3-.16.46-.25.05,0,.08,0,.13,0,.03-.02.06-.04.09-.06.06,0,.11,0,.17,0,.03-.02.06-.04.09-.06.15-.03.29-.07.44-.1.15-.05.29-.1.45-.15-.15-.11-.07-.18.03-.24.37-.25.68-.55.89-.88.35-.55.5-1.14.5-1.75.12.03.24.06.38.11.13.36.29.69.35,1.03.07.39.11.78.09,1.17-.01.37-.26.67-.62.91-.51.35-1.14.57-1.75.78-.62.21-1.28.35-1.94.52-.28.06-.57.09-.77.26-.04.04-.13.05-.2.06-.24.05-.48.1-.72.14.06-.04.12-.08.18-.11l-.04-.05c-.17.01-.34.02-.51.04-.79.1-1.58.21-2.38.3-.69.08-1.39.14-2.09.2-.4.03-.8.05-1.19.07-.63.03-1.26.07-1.89.1-.78.03-1.57.05-2.35.07-.38,0-.76-.03-1.13-.03-.79,0-1.57.01-2.36.03-.62.01-1.23.04-1.85.07-.12,0-.22.01-.15.15-.08.01-.16.02-.23.02-.47,0-.94-.03-1.41-.03-.09,0-.19.04-.3.06-.14.01-.26.02-.39.03-.6.06-1.19.1-1.79.18-.5.07-.99.17-1.48.26-.41.07-.82.14-1.23.2-.37.05-.74.1-1.13.14-.22.04-.43.1-.64.13-.44.08-.88.14-1.32.22-.02,0-.03.04-.04.05-.26,0-.53,0-.83,0-.21,0-.37,0-.54,0-.06,0-.11.04-.17.06m21.76-2.06s.04,0,.09,0c.02-.02.04-.04.09-.06.16-.09.33-.18.52-.28l.14-.08s-.03-.04-.04-.06c-.06.03-.12.05-.21.08-.05,0-.09,0-.17,0-.03.02-.07.04-.14.07-.23.04-.46.08-.69.11-.43.06-.84.12-1.29.04-.42-.08-.81.03-1.17.26l-.08.04s.07.02.15.03c.38,0,.76,0,1.17.02.26.02.52.03.77.04.03,0,.05-.04.12-.06.12-.01.24-.02.37-.02.02-.02.05-.03.11-.05.05,0,.09,0,.17,0,.02-.02.04-.04.09-.06m-25.13.6c.38-.11.78-.17,1.12-.37-.09-.02-.17-.03-.25-.02-.7.03-1.41.07-2.11.1-.09,0-.18,0-.26,0-.61.07-1.2.01-1.8-.06-.52-.06-1.03-.15-1.55-.18-.83-.05-1.65.02-2.43.23-.26.07-.5.18-.75.27,0,.02.01.03.02.05.05,0,.11.01.16,0,.42-.03.84-.09,1.26-.09.59,0,1.18.02,1.77.06.62.04,1.24.14,1.86.18.52.03,1.05.03,1.57,0,.46-.03.91-.12,1.41-.18m9.87-1.16c-.52.07-.97.25-1.38.5.14,0,.28,0,.41-.01.77-.12,1.56-.14,2.34-.16.46,0,.92.01,1.38.03.38.02.77.05,1.15.07.64.04,1.29.1,1.93.12.22,0,.44-.05.67-.06.43-.02.83-.11,1.17-.31.15-.09.27-.2.39-.31.03-.03.02-.09.02-.13-.05,0-.11,0-.16.02-.36.09-.72.18-1.08.26-.78.19-1.58.15-2.38.09-.24-.02-.48-.07-.73-.1-.58-.05-1.16-.09-1.73-.14-.67-.07-1.32,0-2,.12Z"/><path class="uuid-b193ae21-9ad9-4027-b362-5075b4460981" d="m30.81,15.62c.79.02,1.59.04,2.38.07.14,0,.28.05.42.07.36.04.72.07,1.07.1.5.04,1.01.07,1.51.11.02,0,.03.02.05.05-.03.02-.07.03-.11.03,2.3.45,4.48,1.18,6.86,1.38,0,.02,0,.04,0,.06-.05,0-.1.02-.14.02-1.47,0-2.94,0-4.41,0-1.23,0-2.45-.04-3.67-.07-.96-.02-1.92-.04-2.88-.07-.71-.02-1.42-.07-2.13-.1-.62-.03-1.25-.04-1.88-.07-.81-.03-1.63-.06-2.44-.1-.83-.04-1.65-.08-2.48-.14-.52-.03-1.04-.09-1.56-.13-.26-.02-.52-.02-.78-.04-.56-.03-1.13-.06-1.69-.1-.56-.04-1.13-.08-1.69-.13-.97-.09-1.93-.2-2.9-.3-.8-.08-1.6-.15-2.39-.24-.59-.07-1.17-.15-1.76-.23-.69-.09-1.39-.18-2.08-.28-.36-.05-.7-.13-1.06-.19-.68-.12-1.38-.22-2.05-.36-.49-.1-.97-.24-1.45-.35-.21-.05-.43-.1-.65-.15-.07-.02-.14-.05-.21-.1-.02-.06-.02-.09-.05-.12-.22-.21-.43-.44-.68-.62-.53-.38-1.09-.75-1.64-1.12.08-.12.16-.24.26-.36.11.11.18.23.29.32.17.14.37.26.57.37.22.13.44.27.68.36.59.23,1.24.32,1.89.41.44.06.89.06,1.34.07.61.01,1.21,0,1.82.01-.03.05-.05.1-.09.17.16.03.3.06.46.09.05,0,.08,0,.12.01.03.03.06.05.09.05.47.05.93.09,1.42.13.03,0,.05,0,.08,0,.15,0,.29,0,.44,0,.05,0,.08,0,.12.01.15.03.29.04.45.05.06,0,.11,0,.17,0,.06,0,.11,0,.19,0,.09,0,.17,0,.25.01.12.03.23.04.37.05.05,0,.08,0,.12,0,.05,0,.09,0,.14,0,.05,0,.08,0,.12.01.06.03.12.04.19.05.06,0,.11,0,.17.01.12.03.23.04.36.06.05,0,.08,0,.12,0,.03,0,.06,0,.1,0,.03,0,.05,0,.08.01.19.05.38.08.59.12.05,0,.08,0,.12.01.11.04.21.08.31.11.43.12.86.28,1.3.36.38.07.79.04,1.21.06.17,0,.31,0,.46.02.2.07.4.14.6.19.3.07.6.11.9.18.33.07.66.16,1,.23.55.1,1.1.21,1.66.28.74.09,1.48.19,2.22.22.83.03,1.66-.03,2.49-.06.49-.02.97-.04,1.46-.07.74-.05,1.49-.1,2.23-.17.18-.02.35-.09.54-.13.06,0,.12,0,.14.02.17.15.4.12.61.12.24,0,.35-.08.37-.28,0,0,0-.02,0-.02Z"/><path class="uuid-28afc537-df90-4842-a722-14d22f6eceec" d="m78.48,13.63c-.15.08-.28.19-.44.25-.33.12-.67.23-1.02.33-.7.2-1.4.39-2.16.44-.53.03-1.05.11-1.58.12-.54.01-1.08-.03-1.61-.06-.74-.05-1.48-.13-2.22-.2-.53-.05-1.06-.09-1.6-.14-.61-.05-1.23-.06-1.84-.14-.58-.08-1.16-.03-1.74-.06-.49-.02-.97-.06-1.46-.06-.64,0-1.28.04-1.92.06-.39,0-.78-.01-1.16,0-.64.03-1.29.08-1.93.13-.35.02-.71.04-1.06.07-.48.04-.95.08-1.42.13-.29.03-.58.05-.87.08-.38.04-.76.08-1.14.12-.47.05-.93.1-1.4.15-.45.05-.9.11-1.35.15-.39.04-.78.07-1.16.12-.27.03-.54.08-.82.1-.71.06-1.42.1-2.12.17-1.02.11-2.04.05-3.06.06-.43,0-.86-.04-1.28-.1-.64-.08-1.28-.19-1.91-.3-.29-.05-.56-.13-.84-.21-.03,0-.05-.05-.06-.08.03-.01.05-.01.08,0,.06,0,.11-.02.19-.04.14,0,.27-.01.39-.02.29-.03.59-.07.88-.11.57-.08,1.14-.16,1.71-.23.49-.06.97-.13,1.46-.17.43-.03.87,0,1.31,0,.97,0,1.95,0,2.92,0,.22,0,.46-.01.64-.08.44-.17.92-.22,1.39-.24.65-.02,1.3,0,1.95.03.7.02,1.39.07,2.09.1.58.02,1.15.03,1.73.03.74,0,1.47-.02,2.21-.03.08,0,.16,0,.24,0,.74-.04,1.48-.09,2.22-.13.37-.02.74-.04,1.11-.07.48-.04.95-.09,1.43-.13.64-.05,1.29-.1,1.93-.14.75-.05,1.49-.09,2.24-.13.33-.02.67-.03.99-.09.47-.08.93-.21,1.41-.31.04-.02.06-.04.09-.06.06-.01.11-.02.17-.04.14-.05.26-.09.38-.14.05.03.09.09.14.1.27.04.54.07.81.1.57.06,1.15.13,1.73.17.58.04,1.16.05,1.74.07.33,0,.66,0,.99,0,.81,0,1.61-.09,2.37-.3.57-.16,1.14-.36,1.57-.71.53-.42.89-.92,1.01-1.51.02-.11.06-.22.08-.34.12,0,.25.02.38.04.01.62-.13,1.21-.48,1.76-.22.34-.52.63-.89.88-.1.07-.18.13-.03.24-.16.06-.3.11-.45.14-.06-.14-.16-.07-.26-.06-.28.02-.56.06-.83.05-.36,0-.72-.06-1.08-.07-.26,0-.48.11-.68.24.18.01.36-.02.53,0,.46.02.92.06,1.38.1Z"/><path class="uuid-b193ae21-9ad9-4027-b362-5075b4460981" d="m58.42,16.23c.09-.02.19-.07.28-.06.47,0,.94.02,1.41.03.07,0,.14,0,.25-.02.79.03,1.54-.05,2.3.05.66.08,1.35.1,2.02.11,1.15,0,2.29-.02,3.44-.03.27,0,.54-.01.81-.04.72-.06,1.44-.12,2.16-.2.83-.09,1.66-.21,2.49-.32.33-.04.65-.1.98-.15.24-.04.48-.07.71-.11.28-.04.57-.08.85-.13.24-.05.49-.1.73-.15.07-.01.16-.02.2-.06.2-.18.49-.2.77-.25.07.04.13.08.18.08.16-.01.31-.04.47-.07.49-.09.99-.18,1.48-.26.67-.12,1.35-.22,2.01-.36.7-.15,1.39-.32,2.07-.51.52-.14,1.04-.3,1.43-.64.3-.26.45-.54.46-.88,0-.26-.03-.53-.04-.79.59.17,1.1.43,1.5.81.23.22.33.49.3.8-.11.1-.23.19-.32.28-.32.34-.78.51-1.25.68-.33.12-.65.26-.99.35-.7.19-1.42.37-2.13.53-.7.16-1.41.31-2.12.43-.89.15-1.78.26-2.67.38-.91.13-1.83.26-2.74.37-.65.08-1.31.11-1.97.18-.41.04-.82.1-1.23.14-.36.04-.72.06-1.08.1-.47.04-.94.09-1.42.13-.35.03-.71.05-1.06.07-.51.03-1.02.04-1.52.07-.81.05-1.62.11-2.42.17-.76.05-1.52.11-2.28.16-.33.02-.67.03-1,.04-.68.02-1.35.04-2.03.07-.94.03-1.88.07-2.81.1-.82.03-1.63.05-2.45.07-1.25.03-2.49.05-3.76.07,0-.02,0-.05.02-.05.44-.07.88-.14,1.32-.22.21-.04.41-.09.64-.12-.03.04-.08.06-.13.09.15.03.3.02.44,0,.26-.03.53-.07.79-.11.61-.09,1.23-.17,1.84-.26.5-.08.99-.17,1.49-.24.48-.08.97-.14,1.45-.22.06,0,.11-.06.16-.09Z"/><path class="uuid-52ef7a12-2b2f-4c88-8161-17fb4d3d1e4a" d="m9.39,12.76c-.24-.02-.49-.04-.73-.07-.57-.07-1.14-.12-1.69-.22-.19-.03-.37-.18-.5-.31-.14-.12-.06-.28.04-.41.39-.53,1.03-.87,1.61-1.26.25-.16.49-.32.74-.49.31-.06.62-.1.95-.14.02,0,.02,0,.02.01.11.59.55.96,1.21,1.19.28.1.57.2.87.26.42.1.84.21,1.26.24.78.06,1.57.08,2.35.11.47.01.94,0,1.41,0,.04,0,.09-.03.13-.04.09-.03.17-.07.26-.09.22-.06.44-.11.68-.16.02.02.03.04.02.07-.11.26-.36.32-.66.33-.12,0-.25,0-.37,0-.42.01-.82.09-1.19.24-.05.02-.13.07-.13.1,0,.2-.19.21-.38.23-.05,0-.08.02-.14.04-.03,0-.05,0-.08,0-.09,0-.17-.01-.25,0-.41.04-.82.1-1.23.11-.39,0-.78-.04-1.17-.09-.38-.05-.73.06-1.09.11-.25.03-.51.06-.78.09-.13.02-.24.03-.35.05-.21.04-.43.08-.66.12-.07,0-.11,0-.16,0Z"/><path class="uuid-c287d401-0033-4fcd-a3e3-be1b570a9795" d="m85.84,11.47c.03.27.06.53.05.79,0,.34-.15.62-.46.88-.39.34-.9.5-1.43.64-.68.19-1.37.36-2.07.51-.66.14-1.34.24-2.01.36-.49.09-.99.18-1.48.26-.15.03-.31.06-.47.07-.05,0-.11-.04-.16-.08.64-.18,1.3-.32,1.92-.53.62-.21,1.24-.43,1.75-.78.35-.24.6-.55.62-.91.02-.39-.02-.78-.09-1.17-.07-.34-.22-.68-.34-1.03.38.05.76.09,1.14.18.57.12,1.14.26,1.71.41.44.12.87.27,1.31.41Z"/><path class="uuid-8819d12a-85f0-4104-9138-3a3ed5741cfa" d="m51.58,2.47c-.22.07-.43.14-.65.2-.58.15-1.16.3-1.75.44-.24.06-.43.15-.62.28-.12.09-.37.09-.56.09-.5,0-.78.26-.98.54-.41.57-.75,1.17-1.13,1.75-.16.24-.31.49-.49.75.15.05.28.1.44.15.03.03.04.04.04.06-.11.1-.22.18-.3.29-.11.15-.06.2.14.25.39.1.78.22,1.18.32.14.03.3.05.44.03.28-.04.4-.02.54.15.09.11.15.23.23.34.22.28.42.56.66.83.21.22.48.41.72.61.12.11.28.22.33.35.11.26.16.54.22.81-.71-.05-1.26.15-1.72.54-.28.24-.59.46-.88.68-.25.19-.46.21-.76.07-.1-.05-.2-.1-.3-.14-.32-.15-.67-.17-1-.05-.72.26-1.45.5-2.22.65-.27.05-.53.06-.78-.05-.33-.14-.69-.21-1.07-.18-.37.03-.73.07-1.1.12-.87.12-1.73.17-2.6.02-.16-.03-.34-.05-.5-.03-.33.04-.64.14-.97.18-.58.08-1.06.32-1.56.54-.42.19-.86.36-1.32.47-.58.14-1.16.04-1.7-.19-.28-.12-.56-.23-.91-.17-.19.03-.38.06-.58.06-1.21,0-2.41-.03-3.62-.03-.77,0-1.55.03-2.32.03-.54,0-1.08,0-1.62-.04-.35-.02-.71-.06-1.05-.12-.74-.15-1.5-.19-2.25-.1-.71.08-1.39.24-2.07.44-.46.13-.91.33-1.44.3-.29-.02-.58-.02-.87,0-.34.01-.66-.04-.99-.11-.35-.08-.71-.19-1.07-.22-.61-.05-1.14-.23-1.66-.47-.13-.06-.25-.14-.35-.22.46-.03.89-.09,1.33-.1.54,0,1.09.04,1.63.06.46.01.89-.09,1.32-.19.22.37.32.48.83.33.17-.05.37-.05.55-.08.34-.04.69-.04,1-.12.37-.09.71-.25,1.05-.4.16-.07.29-.18.4-.3.14-.15.1-.31-.11-.4-.18-.07-.38-.1-.57-.16,0-.1-.01-.19,0-.27.01-.05.06-.12.12-.15.13-.05.26-.09.4-.11.44-.07.87-.14,1.31-.19.11-.01.23.01.34.04.11.02.21.07.32.1.18.05.32.02.37-.15.03,0,.05,0,.08.02.03.1.04.19.08.27.07.14.18.28.23.43.1.28.17.57.26.86.04.12.13.19.29.18.21-.02.42-.05.56-.19.15-.15.33-.29.46-.44.29-.35.61-.67,1-.95.4-.29.7-.63.89-1.03.1-.21-.01-.34-.32-.35-.2,0-.4-.04-.59-.08.06-.15.13-.29.19-.43.15.08.28.12.38.2.46.36.9.34,1.41.15.5-.19.99-.4,1.49-.58.23-.09.49-.14.72,0,.23.14.46.3.68.46.06.06.12.11.18.17.06.07.12.13.18.2.01.03.03.04.04.07,0,.03,0,.04-.01.06-.01.07.03.16-.13.16-.17,0-.33.03-.5.03-.4,0-.42,0-.32-.29.06-.17-.06-.21-.22-.24-.08-.01-.16-.01-.24,0-.57.13-1.14.21-1.74.2-.26,0-.35.13-.22.31.18.26.37.51.67.7.09.06.18.15.2.23.05.26.07.53.1.8.03.27.13.51.5.61.45.12.9.24,1.36.34.17.04.37.05.55.04.4-.02.79-.08,1.19-.1.36-.02.71-.03,1.07-.04.53-.01.77-.24.63-.61-.21-.54-.42-1.08-.81-1.55-.19-.23-.43-.43-.86-.4-.33.02-.67,0-1.03,0,.01-.06.02-.1.05-.13.11-.01.21,0,.29-.03.34-.12.66-.26,1-.39.29-.11.58-.23.93-.21.08.11.17.14.27.01.09-.05.17-.1.26-.14,0,0,0,0,.02-.01s.01,0,.02,0c.02,0,.04,0,.06,0,0,0,.02,0,.03.01.08.11.15.2.23.29.09.09.18.18.29.26.25.19.46.39.88.39.47,0,.95.04,1.38.25.23.11.5.19.76.23.46.08.76.31,1,.6.17.2.27.46.63.53.18.03.37.04.55.03.36-.04.69-.14.89-.4.22-.09.43-.18.52-.37.01,0,.03,0,.05,0,.12-.03.22-.06.31-.1.35-.17.71-.33,1.05-.51.45-.23.86-.5,1.01-.93.04-.12.1-.23.18-.34.29-.43.42-.89.41-1.38,0-.62,0-1.25,0-1.87-.01-.58.07-1.16.32-1.71.01-.03.08-.04.13-.05.06.08.13.15.16.23.14.32.29.64.41.97.06.16.11.33.11.49,0,.38-.04.75-.03,1.13.01.32.09.63.12.95.04.52.02,1.03-.42,1.47-.35.35-.72.7-1.07,1.05-.53.52-.42.89.37,1.17.27.09.59.12.89.12.34,0,.68-.05,1.01-.11.27-.04.53-.11.78-.19.27-.08.53-.17.8-.26.31-.11.57-.27.75-.49.26-.32.52-.64.78-.97.17-.22.17-.44-.02-.56-.13-.08-.29-.16-.45-.2-.45-.14-.92-.25-1.38-.38-.36-.11-.71-.23-.82-.56-.05-.14-.15-.28-.22-.41-.06-.11-.16-.22-.15-.32.03-.39.06-.78.15-1.16.13-.53.59-.91,1.11-1.25.21-.13.43-.25.64-.38.15-.1.17-.28.02-.33-.34-.13-.7-.23-1.06-.35-.05-.03-.09-.04-.14-.06-.03,0-.05,0-.08,0-.09-.03-.17-.04-.27-.06-.06,0-.11,0-.16-.01-.03-.03-.06-.04-.11-.06-.36-.02-.7-.05-1.05-.07-.06.02-.11.04-.18.07-.05.02-.08.04-.13.07-.21.1-.41.2-.63.31-.21-.07-.45-.18-.72-.25-.31-.07-.65-.07-.95-.16-.49-.14-.97-.3-1.43-.49-.54-.22-1.04-.51-1.7-.41,0,0,0-.03.02-.03.64-.09,1.23-.23,1.8-.42.52-.17,1.01-.14,1.5.08.62.27,1.24.54,1.87.79.33.13.7.18,1.07.13.18-.02.36-.07.55-.1.56-.07,1.11-.14,1.67-.21.73-.09,1.45-.24,2.12-.48.48-.17.93-.08,1.39.05.53.14,1.04.31,1.62.31m-17.32,10.02c.26-.06.52-.11.77-.17.43-.11.89-.19,1.29-.34.68-.25.68-.92.04-1.23-.12-.06-.23-.13-.36-.19-.23-.11-.47-.22-.76-.2-.24.01-.5.05-.72,0-.54-.14-1.09-.29-1.59-.49-.32-.13-.56-.13-.83.03-.24.14-.36.31-.31.53.04.19.24.27.46.31.27.06.45.17.42.42,0,.04.02.08.03.11.16.37.33.74.15,1.14-.08.17.04.27.27.25.37-.04.74-.11,1.15-.16Z"/><path class="uuid-b187d892-cd39-47f4-82d1-e587cf9e2dfa" d="m37.7,10.53s-.09-.09-.14-.14c-.13-.12-.27-.23-.39-.35-.24-.23-.45-.49-.73-.7-.32-.24-.76-.31-1.2-.34-.47-.03-.91-.15-1.32-.32-.06-.03-.13-.05-.19-.08-.06-.03-.13-.06-.17-.1-.18-.18-.06-.67.19-.78.4-.17.54-.44.56-.77.02-.44.03-.88.05-1.33,0-.04.01-.09.04-.13.25-.3.23-.59.04-.91-.14-.24-.23-.51-.29-.78-.05-.19.04-.24.31-.24.31,0,.63.01.94,0,.26-.01.51-.06.8-.09.05,0,.07,0,.09,0,.03,0,.06,0,.1,0,.06,0,.11,0,.16.01.34.05.67.09,1.03.12.09,0,.17,0,.25.01.13.03.26.04.41.05.03,0,.05,0,.08.01.07.03.15.04.24.05.08,0,.14,0,.2.01.05.03.09.04.13.06.19.07.48.04.53.29.03.16.07.32.14.47.2.43.42.85.64,1.27.06.11.12.23.18.34.1.21.15.45.29.64.26.36.1.7-.12,1-.28.38-.68.7-1.02,1.06-.24.25-.46.52-.69.78-.2.25-.38.5-.4.81-.08.03-.14.05-.21.06-.13,0-.26,0-.41,0-.03,0-.05,0-.08,0-.01,0-.03,0-.03,0Z"/><path class="uuid-ae321d13-8778-4c0e-9721-2bf0f95c707a" d="m37.96,2.33s0,.02-.01.03c-.38.11-.75.19-1.12.28-.21.05-.41.11-.61.15-.34.07-.68.14-1.02.21-.24-.13-.47-.27-.71-.4-.09-.05-.18-.09-.28-.14.07-.06.16-.12.25-.19.02-.01.04-.01.08,0,.05,0,.07-.03.09-.04.12-.05.24-.09.39-.14.05-.02.07-.04.09-.06.02,0,.04,0,.08,0,.05-.02.07-.04.09-.06.02,0,.04,0,.09,0,.08-.02.13-.04.18-.07,0,0,.02,0,.05,0,.14-.02.25-.04.36-.07.22-.06.43-.13.65-.2.02,0,.04,0,.09,0,.27-.07.51-.13.75-.2.02,0,.04,0,.09,0,.06-.02.1-.04.13-.07.46-.17.92-.34,1.39-.5.18-.06.37-.1.58-.15.05-.02.07-.04.1-.06.05-.01.09-.02.17-.04.05-.02.07-.04.09-.06.02,0,.04,0,.08,0,.21-.05.39-.11.58-.18.02,0,.04,0,.07,0,.24-.02.47-.02.69-.05.32-.03.64-.11.96-.11.54,0,1.1,0,1.63.07.53.06,1.04.2,1.57.31.25.05.5.11.75.15.51.09,1.02.19,1.54.24.42.04.85.04,1.27.03.51-.02,1.01-.08,1.51-.12.02,0,.04,0,.06,0,.55-.02,1.1-.06,1.65-.07,1.48,0,2.95,0,4.43,0,.75,0,1.43.18,2.1.44.52.2,1.03.41,1.57.57.44.13.9.21,1.35.31.47.1.94.18,1.4.3.14.04.28.16.36.26.14.19.25.39.36.59.02.04.04.1.02.13-.08.14-.01.24.13.33,0,.01-.02.01-.04,0-.1-.02-.18-.04-.26-.06-.13,0-.27,0-.42,0-.05,0-.08,0-.1,0-.05,0-.09,0-.16-.01-.14-.07-.27-.1-.37.01-.07,0-.15,0-.26,0-.05.02-.07.04-.09.06-.26.1-.54.19-.78.32-.59.33-1.23.36-1.91.23-.7-.13-1.4-.27-2.09-.42-.42-.09-.7-.31-.84-.64-.09-.21-.21-.43-.38-.62-.12-.14-.3-.26-.5-.33-.34-.12-.71-.2-1.07-.27-.2-.04-.41-.01-.63-.03.1-.05.21-.1.32-.1.25.01.51.02.75.08.55.15,1.14.24,1.62.52.23.14.47.28.54.51.06.21.14.3.43.33.5.05,1.01.12,1.51.13,1.35.03,2.7.03,4.05.04.07,0,.13-.03.23-.05-.06-.05-.08-.08-.12-.1-.36-.16-.7-.33-1.08-.46-.69-.24-1.39-.48-2.1-.69-.6-.18-1.22-.32-1.83-.49-.21-.06-.41-.14-.61-.21-.09-.03-.17-.1-.26-.11-.36-.04-.73-.09-1.1-.11-.39-.02-.8.03-1.18-.02-.8-.1-1.6-.24-2.42-.16-.29.03-.58.02-.87.04-.48.04-.95.1-1.43.12-.71.03-1.43.04-2.14.03-.39,0-.79,0-1.18-.14-.3-.1-.63-.16-.95-.22-.53-.1-1.06-.22-1.6-.29-.4-.05-.78-.25-1.22-.12-.05.02-.13-.01-.19-.02-.14-.02-.27-.04-.41-.04-.54,0-1.04.12-1.55.23-.89.19-1.79.38-2.68.58-.38.09-.8.15-1.12.32-.37.19-.66.48-.99.72-.08.06-.19.09-.29.13-.04.01-.08.02-.12.03.09.04.16.05.24.04.33-.04.66-.08.98-.12.18-.02.37-.05.55-.08Z"/><path class="uuid-003f51e3-fbc8-4c06-8df5-5e47c8da0800" d="m35.2,3.02c.34-.08.68-.14,1.02-.22.21-.04.41-.1.61-.15.37-.09.74-.18,1.12-.27.67-.11,1.17.17,1.71.39.46.19.94.35,1.43.49.3.08.64.08.95.16.27.06.51.17.72.25.22-.11.42-.21.63-.3-.04.05-.08.09-.15.12-.2.07-.3.17-.23.34-.04.02-.11.04-.13.06-.25.56-.33,1.13-.32,1.71.01.62,0,1.25,0,1.87,0,.49-.13.94-.41,1.38-.07.11-.14.22-.18.34-.15.43-.56.7-1.01.93-.34.18-.7.34-1.05.51-.09.04-.2.07-.31.09-.02-.03-.02-.04-.02-.07,0-.04,0-.06.02-.09.03-.03.05-.07.07-.11,0,0,0-.02.02-.03.03-.03.05-.07.07-.11.06-.12.12-.22.19-.33.06-.09.11-.18.16-.27,0-.03,0-.04.01-.06.03-.02.05-.04.08-.08.06-.08.12-.16.17-.23.24-.31.47-.63.71-.94.37-.48.75-.96.89-1.53.1-.4.03-.76-.29-1.09-.29-.3-.57-.6-.86-.9-.17-.17-.33-.36-.54-.5-.27-.18-.59-.32-.88-.48-.2-.11-.42-.15-.66-.15-.06,0-.12,0-.2-.01-.09-.03-.16-.04-.24-.05-.02,0-.04,0-.08,0-.15-.03-.27-.04-.4-.06-.08,0-.15,0-.25-.01-.34-.16-.68-.12-1.03-.12-.05,0-.09,0-.16,0-.05,0-.07,0-.1,0-.02,0-.04,0-.07,0-.14-.04-.26-.08-.38-.13-.22-.1-.43-.21-.64-.33Z"/><path class="uuid-003f51e3-fbc8-4c06-8df5-5e47c8da0800" d="m37.69,10.53s.04,0,.05.01c.06.04.1.06.15.09.09.05.17.09.26.14.06.04.11.06.18.1.21.13.41.26.69.23-.19.26-.52.36-.88.4-.18.02-.37,0-.55-.03-.35-.07-.45-.33-.63-.53-.25-.29-.54-.51-1-.6-.26-.05-.53-.12-.76-.23-.43-.21-.9-.26-1.38-.25-.43,0-.64-.2-.88-.39-.1-.08-.2-.17-.29-.26-.08-.09-.15-.18-.22-.29.21.05.44.1.64.17.83.29,1.68.56,2.48.88.43.17.87.28,1.34.37.26.05.52.12.79.19Z"/><path class="uuid-058031ff-7c53-4f6c-b335-8022ce6f34ca" d="m33.54,5.26c-.02-.15-.03-.31-.03-.49.02.15.03.31.03.49Z"/><path class="uuid-058031ff-7c53-4f6c-b335-8022ce6f34ca" d="m33.54,3.97c-.02-.08-.03-.16-.02-.25.02.08.03.16.02.25Z"/><path class="uuid-058031ff-7c53-4f6c-b335-8022ce6f34ca" d="m33.62,3.3s-.02-.05-.02-.09c.02.02.02.05.02.09Z"/><path class="uuid-c45dd4f3-b889-4314-92ff-ddcf1032abe8" d="m32.39,8.9s-.03.01-.05,0c0-.01,0-.03,0-.03,0,0,0,0,0,0,.01,0,.02.01.04.03Z"/><path class="uuid-b904b3ee-9634-48d9-9400-1e0c6441557a" d="m72.98,10.69c-.06.01-.12.02-.2.02.06-.01.12-.02.2-.02Z"/><path class="uuid-b904b3ee-9634-48d9-9400-1e0c6441557a" d="m73.52,10.75c-.05,0-.11-.01-.17-.04.05,0,.11.01.17.04Z"/><path class="uuid-b904b3ee-9634-48d9-9400-1e0c6441557a" d="m73.71,11.03s.03-.06.06-.1c0,.03-.03.06-.06.1Z"/><path class="uuid-b904b3ee-9634-48d9-9400-1e0c6441557a" d="m73.58,11.1s.03-.04.06-.06c0,.02-.03.04-.06.06Z"/><path class="uuid-b904b3ee-9634-48d9-9400-1e0c6441557a" d="m73.4,11.17s.03-.04.06-.06c0,.02-.03.04-.06.06Z"/><path class="uuid-058031ff-7c53-4f6c-b335-8022ce6f34ca" d="m29.32,9.62s0-.03.01-.06c-.01-.04-.03-.05-.05-.07-.06-.06-.12-.12-.18-.2-.06-.07-.12-.12-.18-.17-.23-.15-.45-.3-.68-.45-.23-.14-.49-.09-.72,0-.5.19-1,.39-1.49.58-.5.19-.94.21-1.41-.15-.09-.07-.23-.12-.38-.2-.07.15-.13.28-.21.43-.03.01-.05.01-.07,0,0-.05,0-.08.01-.13.03-.05.05-.09.08-.14,0-.05,0-.08.02-.12.03-.03.05-.05.07-.08.03-.05.06-.09.09-.13.07-.02.13-.03.21-.05.04,0,.07,0,.12,0,.05.03.08.04.11.06.05.02.09.05.16.08.08.06.14.11.2.15.28.21.73.27,1.08.14.55-.21,1.09-.43,1.64-.64.06-.02.14-.04.22-.06.09,0,.16,0,.27,0,.11,0,.19.02.26.03.08.04.15.07.25.11.24.21.47.43.7.64.1.09.2.17.19.32,0,.12.14.09.25.05.44-.17.88-.34,1.33-.5.18-.06.39-.08.62-.11.08,0,.13-.02.18-.03.09,0,.18,0,.29,0-.06.05-.15.09-.26.15-.1,0-.18-.01-.26-.02-.34-.01-.63.11-.93.22-.33.13-.66.26-1,.39-.08.03-.18.02-.31.03-.15.06-.18-.02-.22-.07Z"/><path class="uuid-4cd81d94-7e9a-421c-916b-d21ad4abd9a0" d="m31.99,8.9s-.09.03-.15.04c.04-.02.09-.03.15-.04Z"/><path class="uuid-058031ff-7c53-4f6c-b335-8022ce6f34ca" d="m32.34,8.88s0,.01,0,.02c0,0,0,0,0,0,0,0,0-.02.01-.03Z"/><path class="uuid-52138a6b-d0be-4b4a-ad83-29e3008bdd01" d="m36.59,1.61c-.21.08-.42.15-.64.21-.11.03-.22.05-.35.07,0-.02.02-.06.04-.06.31-.08.62-.15.94-.22Z"/><path class="uuid-52138a6b-d0be-4b4a-ad83-29e3008bdd01" d="m37.42,1.42c-.22.07-.46.13-.71.2.22-.07.46-.13.71-.2Z"/><path class="uuid-52138a6b-d0be-4b4a-ad83-29e3008bdd01" d="m40.63.37c-.17.06-.35.12-.55.18.17-.06.35-.12.55-.18Z"/><path class="uuid-52138a6b-d0be-4b4a-ad83-29e3008bdd01" d="m35.53,1.89s-.08.04-.15.07c.03-.02.08-.04.15-.07Z"/><path class="uuid-52138a6b-d0be-4b4a-ad83-29e3008bdd01" d="m37.64,1.35s-.05.04-.1.07c.02-.02.05-.04.1-.07Z"/><path class="uuid-52138a6b-d0be-4b4a-ad83-29e3008bdd01" d="m35.27,1.96s-.03.04-.06.06c0-.02.03-.04.06-.06Z"/><path class="uuid-52138a6b-d0be-4b4a-ad83-29e3008bdd01" d="m39.71.65s-.03.04-.06.06c0-.02.03-.04.06-.06Z"/><path class="uuid-52138a6b-d0be-4b4a-ad83-29e3008bdd01" d="m39.97.54s-.03.04-.06.06c0-.02.03-.04.06-.06Z"/><path class="uuid-52138a6b-d0be-4b4a-ad83-29e3008bdd01" d="m34.62,2.23s-.03.03-.07.04c.01-.02.03-.03.07-.04Z"/><path class="uuid-52138a6b-d0be-4b4a-ad83-29e3008bdd01" d="m35.1,2.03s-.03.04-.06.06c0-.02.03-.04.06-.06Z"/><path class="uuid-98279319-f863-4ec3-97a8-0f49c5ab4eb0" d="m25.02,8.88c.12-.05.29-.06.28-.21,0-.02.05-.05.08-.05.44-.04.87-.1,1.31-.09.16,0,.28.03.42-.06.06-.04.2-.02.31-.02,0,.01.01.03.02.04-.12.06-.24.12-.36.18-.07.04-.14.08-.22.11-.04.02-.11.04-.13.03-.26-.18-.46,0-.69.06-.31.09-.63.18-.99.08-.02-.03-.02-.04-.02-.06Z"/><path class="uuid-4cd81d94-7e9a-421c-916b-d21ad4abd9a0" d="m25,8.87s.01.03.01.06c0,.02,0,.02,0,.04-.06-.04-.12-.09-.18-.14.05,0,.1.02.17.05Z"/><path class="uuid-4cd81d94-7e9a-421c-916b-d21ad4abd9a0" d="m24.66,8.73s-.06-.02-.09-.04c.02-.01.04-.01.08-.02.02.02.02.03.02.06Z"/><path class="uuid-058031ff-7c53-4f6c-b335-8022ce6f34ca" d="m63.78,4.12c-.02.08-.04.17-.08.26-.01-.05-.01-.11-.02-.18,0-.01,0-.01.01-.02.03-.02.06-.04.08-.06Z"/><path class="uuid-b5534e0c-a63a-4e19-9b63-f137c19fa2fd" d="m63.85,5.84s-.08.07-.14.1c-.02-.01-.02-.03-.02-.06.05-.02.1-.03.16-.05Z"/><path class="uuid-98279319-f863-4ec3-97a8-0f49c5ab4eb0" d="m23.96,9.21s0,.07-.01.12c-.03.01-.05.02-.08.02-.09.05-.16.11-.24.15-.18.1-.35.22-.55.27-.15.04-.34-.03-.37.16,0,.01-.08.02-.12.02-.08,0-.15,0-.26.01.09.15.04.21-.13.25-.16.04-.31.13-.47.15-.25.04-.51.06-.76.05-.25-.01-.49-.08-.69-.12-.1.07-.18.13-.25.19-.07-.06-.14-.12-.23-.19h-.19c-.02.07-.04.12-.06.19-.12,0-.23,0-.34,0-.11,0-.24,0-.31.05-.21.13-.42.19-.7.15-.05.05-.08.09-.12.14-.03.03-.06.04-.1.06-.16-.13-.32-.15-.53-.11-.21.04-.43.04-.65.04-.48,0-.96.01-1.45,0-.44-.02-.89-.07-1.27-.26-.16-.08-.29-.26-.34-.4-.06-.2-.03-.41.11-.6.04-.05.04-.12.05-.18,0,0,0,0,0,0,.16-.03.35.07.48-.09.08-.01.15-.01.26,0,.26,0,.48-.03.71-.04.02,0,.04,0,.09,0,.2-.02.36-.05.52-.07.06,0,.12,0,.2,0,.41-.02.8-.05,1.19-.07.03,0,.06-.03.1-.05.14-.01.27-.01.43-.01.13,0,.24,0,.35,0,.23-.02.45-.04.67-.07.08,0,.14-.05.22-.08.04-.01.07-.01.12-.01.24.02.46.05.69.06.07,0,.13-.07.2-.11.05-.01.1-.01.16-.01,0,.16.1.23.3.2.21-.02.44-.01.56-.2.02-.03.1-.04.15-.04.59-.02,1.18-.04,1.78-.07.07,0,.14-.05.21-.08.06-.01.12-.01.2,0,.04.1-.05.23.17.25.02-.12.06-.23.27-.21v.28c-.09.04-.16.07-.23.11.05.05.1.1.15.15.01.01.04,0,.07.01.02,0,.03,0,.03,0m-3.79-.16s-.02.08-.03.12c.05,0,.09-.01.14-.02-.03-.03-.05-.07-.11-.1m1.79,1.17l.08-.1s-.07,0-.11,0c0,.03,0,.07.03.1Z"/><path class="uuid-c45dd4f3-b889-4314-92ff-ddcf1032abe8" d="m23.92,9.21s-.05,0-.06-.01c-.05-.05-.1-.1-.15-.15.07-.03.15-.07.23-.11v-.28c-.2-.02-.25.09-.27.21-.22-.03-.12-.15-.15-.25.22-.04.44-.06.69-.08,0,.06,0,.12.01.18-.03.05-.06.09-.1.14-.03.04-.05.06-.07.09,0,.03,0,.07-.02.11-.05.06-.08.1-.12.15Z"/><path class="uuid-c45dd4f3-b889-4314-92ff-ddcf1032abe8" d="m28.48,8.42c-.08,0-.15,0-.25-.02.07-.01.16-.13.25.02Z"/><path class="uuid-33a96d65-fa2a-4c81-844a-b9af9cbef257" d="m63.8,4.12s-.06.04-.1.06c.02-.15.05-.31.07-.49.08,0,.16.02.25.05-.06.13-.14.25-.23.38Z"/><path class="uuid-0505f00b-451c-4aa6-b81a-d627574dbcbb" d="m13.89,9.38c0,.06,0,.13-.03.18-.14.19-.17.41-.11.6.05.15.17.32.34.4.37.19.82.25,1.27.26.48.02.96,0,1.45,0,.22,0,.44,0,.65-.04.22-.04.38-.02.53.12.03.09.04.16.05.24-.25.05-.16.14-.03.22-.22.06-.45.11-.67.17-.09.02-.17.06-.26.09-.04.01-.09.04-.13.04-.47,0-.94.01-1.41,0-.78-.02-1.57-.04-2.35-.11-.43-.03-.85-.14-1.26-.24-.3-.07-.59-.17-.87-.26-.67-.23-1.11-.61-1.21-1.19.11-.04.23-.06.35-.1.21-.04.42-.06.64-.08.09,0,.16,0,.24-.02.02-.01.04-.01.08,0,.06,0,.1-.02.14-.04.05,0,.09,0,.17,0,.17.01.33.09.4-.08.03,0,.06,0,.11,0,.2,0,.38-.01.58-.02.09-.02.16-.03.26-.04.05,0,.1.04.13.03.17-.03.33-.07.5-.12.15-.01.3-.01.47-.01Z"/><path class="uuid-ae14e2ac-0e04-4709-8cea-19391a127717" d="m39.37,14.75s-.04,0-.07,0c-.24.03-.46.07-.7.09.05-.04.11-.06.21-.1-.09-.03-.14-.05-.2-.06-.25-.06-.51-.13-.76-.19-.31-.08-.61-.16-.93-.23-.27-.06-.55-.09-.82-.15-.13-.03-.25-.09-.36-.14.09-.03.16-.05.24-.05.27-.02.54-.02.81-.05.23-.02.47-.08.7-.09,1.26-.02,2.51-.03,3.77-.04.06,0,.12-.04.19-.06.04,0,.06,0,.09,0,.49.01.97.02,1.45.02.04,0,.07-.04.13-.06.25,0,.49,0,.74,0,.09.01.16.02.23.02.59,0,1.18-.04,1.77-.03.26,0,.5.02.73-.1.11,0,.2,0,.3-.02.07,0,.14-.05.2-.04.25,0,.51.02.76.03.16,0,.32-.02.5-.03.12,0,.23,0,.34,0,.14,0,.26,0,.4,0,.12.01.22.03.32.03.47,0,.94,0,1.43,0,.05-.02.08-.04.14-.07.18-.02.34-.05.52-.07.13-.03.25-.05.36-.08.15-.04.29-.11.44-.12.57-.06,1.14-.11,1.72-.16-.02-.07-.03-.11-.04-.15.02,0,.05,0,.07,0,.46.17.91.04,1.37,0,.3-.03.59-.06.89-.06.63,0,1.26.01,1.88,0,1.28-.03,2.56-.09,3.84-.13.75-.02,1.5-.01,2.25-.04.54-.02,1.09-.08,1.63-.12.07,0,.13,0,.22,0,.06,0,.1-.02.14-.04.06,0,.12-.01.21-.01.13-.02.22-.04.31-.06.05-.01.1-.02.18-.02.12,0,.21-.03.3-.05.05,0,.09,0,.17,0,.11,0,.19,0,.25.01.29.06.57.15.86.2.44.08.88.14,1.32.2.12.02.17.05.16.14-.05.01-.09.02-.17.04-.05.02-.07.04-.09.06-.46.11-.92.23-1.39.31-.32.06-.66.07-.99.09-.75.05-1.49.09-2.24.13-.64.04-1.29.09-1.93.14-.48.04-.95.09-1.43.13-.37.03-.74.05-1.11.07-.74.05-1.48.09-2.22.13-.08,0-.16,0-.24,0-.74.01-1.47.03-2.21.03-.58,0-1.15-.01-1.73-.03-.7-.03-1.39-.07-2.09-.1-.65-.02-1.3-.05-1.95-.03-.47.02-.95.07-1.39.24-.18.07-.42.08-.64.08-.97,0-1.95,0-2.92,0-.44,0-.87-.02-1.31,0-.49.03-.98.1-1.46.17-.57.07-1.14.16-1.71.23-.29.04-.59.08-.88.11-.12.01-.25.02-.4.02-.08.01-.13.02-.18.03Z"/><path class="uuid-1ad3cfdf-4b0e-47fe-a713-d76909df2c78" d="m48.32,13.47c-.16.01-.32.03-.48.03-.25,0-.51-.02-.76-.03-.07,0-.13.03-.2.04-.09.01-.19.02-.3.01-.02-.02-.02-.03-.02-.05.06-.06.12-.11.18-.16-.08-.03-.15-.07-.23-.1-.11-.03-.22-.05-.36-.08.27-.11.51-.23.76-.32.2-.07.41-.15.63-.17.53-.04.98-.21,1.39-.44.25-.13.44-.32.67-.48.03,0,.05,0,.07,0,.08.01.15.03.23.03.76,0,1.53-.02,2.29-.03.35,0,.69-.04,1.06-.07-.05.24-.37.3-.56.46-.11.1-.23.2-.34.3.17.05.34.11.51.15.36.09.72.18,1.1.27.02.04.03.08.05.15-.58.05-1.15.1-1.72.16-.15.02-.29.08-.44.12-.11.03-.23.05-.37.06-.04-.02-.05-.05-.07-.05-.38-.03-.75-.06-1.13-.07-.4-.01-.81-.02-1.22,0-.23.01-.46.08-.68.13-.04,0-.05.07-.08.1Z"/><path class="uuid-1ad3cfdf-4b0e-47fe-a713-d76909df2c78" d="m70.07,12.86c0-.09-.06-.12-.18-.14-.44-.06-.88-.12-1.32-.2-.29-.05-.57-.14-.86-.2-.07-.01-.14,0-.24,0,.13-.03.29-.09.44-.09.8,0,1.57-.14,2.35-.23.22-.03.45-.04.67-.05.37-.02.69-.11.99-.29.01,0,.02.02.02.02-.17.15-.33.3-.5.44-.05.04-.12.08-.21.13-.19.12-.36.23-.53.34-.08.04-.17.08-.26.12-.13.05-.25.1-.39.14Z"/><path class="uuid-1ad3cfdf-4b0e-47fe-a713-d76909df2c78" d="m66.79,12.38c-.08.03-.18.05-.29.07.08-.03.18-.05.29-.07Z"/><path class="uuid-1ad3cfdf-4b0e-47fe-a713-d76909df2c78" d="m67.27,12.31c-.08.03-.17.04-.28.06.08-.03.18-.05.28-.06Z"/><path class="uuid-5738e7c9-8ab0-4c9b-90f9-214cb21608a5" d="m71.96,11.67s-.02-.01-.02-.02c.02-.03.04-.05.07-.07,0,.03-.02.06-.06.09Z"/><path class="uuid-1ad3cfdf-4b0e-47fe-a713-d76909df2c78" d="m66.26,12.46s-.06.03-.1.04c.02-.02.06-.03.1-.04Z"/><path class="uuid-505b6d1f-e169-401e-b6e5-cd98052d878a" d="m37.98,2.32c-.2.03-.38.06-.57.08-.33.04-.66.08-.98.12-.08,0-.15,0-.24-.04.04,0,.08-.01.12-.03.1-.04.21-.07.29-.13.33-.24.62-.53.99-.72.32-.16.74-.23,1.12-.32.89-.2,1.78-.39,2.68-.58.51-.11,1.02-.23,1.55-.23.14,0,.27.03.41.04.06,0,.14.03.19.02.44-.13.82.07,1.22.12.54.07,1.07.18,1.6.29.32.06.65.12.95.22.38.13.78.13,1.18.14.71.01,1.43,0,2.14-.03.48-.02.95-.09,1.43-.12.29-.02.58-.01.87-.04.82-.08,1.62.06,2.42.16.38.05.79,0,1.18.02.37.02.73.06,1.1.11.09.01.17.07.26.11.2.07.4.16.61.21.61.17,1.23.31,1.83.49.71.21,1.41.44,2.1.69.37.13.72.31,1.08.46.04.02.06.05.12.1-.09.02-.16.05-.23.05-1.35,0-2.7,0-4.05-.04-.51-.01-1.01-.08-1.51-.13-.29-.03-.37-.12-.43-.33-.06-.23-.3-.38-.54-.51-.48-.28-1.07-.37-1.62-.52-.23-.06-.5-.07-.75-.08-.11,0-.22.05-.33.09-.04.01-.07.01-.13.01-.08.02-.13.04-.18.07-.02,0-.04,0-.09,0-.06.02-.1.04-.13.07-.03,0-.06,0-.13,0-.34.05-.66.11-.96.17-.14.03-.27.07-.4.1-.03,0-.06,0-.13,0-.07.02-.1.04-.14.06-.09,0-.18,0-.28,0-.59,0-1.11-.17-1.63-.31-.45-.12-.9-.22-1.39-.05-.67.24-1.39.39-2.12.48-.56.07-1.12.14-1.67.21-.18.02-.36.08-.55.1-.37.05-.74,0-1.07-.13-.63-.25-1.26-.51-1.87-.79-.49-.22-.98-.25-1.5-.08-.57.19-1.17.34-1.8.42Z"/><path class="uuid-67ed3027-fc53-43a6-aa14-e7522d565226" d="m55.24,8.57s-.02-.05-.01-.1c.02-.05.02-.08.03-.11,0-.04,0-.09.01-.15.08-.12.15-.22.23-.31.02-.02.02-.04.03-.08,0-.13,0-.24.01-.36-.01-.02-.03-.04-.05-.08-.13-.43-.27-.85-.39-1.27,0-.02-.03-.04-.05-.08-.05-.21-.09-.4-.12-.6,0-.02-.03-.04-.05-.08-.09-.49-.33-.89-.93-1.12-.09-.03-.18-.1-.22-.18-.12-.21-.32-.29-.6-.28-.06-.22.27-.47.55-.41.06.01.13.04.19.04.74-.02,1.21.38,1.77.64.31.15.66.25.98.39.1.04.18.13.23.22.06.09.05.2.1.29.05.08.13.19.22.2.6.12,1.21.2,1.83.15.05,0,.1,0,.15,0,.23.04.46.1.69.14.18.03.2.1.11.22-.26.36-.68.59-1.08.84-.14.09-.29.17-.41.27-.29.25-.54.51-.62.85-.04.16-.19.23-.36.28-.59.19-1.18.37-1.77.55-.15.05-.29.09-.46.13Z"/><path class="uuid-058031ff-7c53-4f6c-b335-8022ce6f34ca" d="m55.52,7.46c0,.11,0,.23-.01.36-.02.04-.02.06-.03.08-.07.1-.13.2-.21.3-.04,0-.06,0-.08-.03.28-.26.25-.55.18-.83-.08-.35-.24-.69-.35-1.03-.12-.37-.23-.75-.32-1.12-.09-.37-.31-.66-.75-.85-.12-.05-.28-.12-.3-.2-.06-.23-.3-.25-.5-.28-.47-.06-.94-.07-1.41-.11-.31-.03-.62-.09-.93-.11-.24-.02-.5-.03-.74,0-.33.03-.65.1-.98.16-.11.02-.24.07-.32.14-.16.16-.3.33-.44.5-.41.45-.8.92-1.23,1.36-.35.36-.74.69-1.11,1.03-.13.12-.09.2.1.25.22.06.44.11.66.18.07.02.12.08.17.12-.24-.07-.47-.15-.7-.2-.48-.1-.49-.11-.3-.44-.01-.02-.02-.03-.04-.06.13-.1.28-.17.39-.28.43-.41.86-.82,1.26-1.24.24-.25.44-.53.67-.79.18-.2.36-.4.57-.57.07-.06.24-.05.37-.08.31-.06.61-.15.93-.19.29-.03.59-.01.88.01.51.05,1.01.12,1.52.18.2.02.4.04.62.06.3,0,.51.07.62.28.04.07.13.14.22.18.6.23.84.62.93,1.13.01.04.03.06.04.07.04.19.09.39.13.6.01.04.03.06.04.07.13.42.26.84.4,1.28.02.04.03.06.04.07Z"/><path class="uuid-8819d12a-85f0-4104-9138-3a3ed5741cfa" d="m52.15,2.41c.12-.04.25-.09.39-.11.31-.06.62-.11.95-.17-.02.03-.05.08-.1.09-.41.07-.82.14-1.24.19Z"/><path class="uuid-33a96d65-fa2a-4c81-844a-b9af9cbef257" d="m62.74,3.68c.08-.12.2-.08.33-.01-.1.01-.21.01-.33.01Z"/><path class="uuid-ae321d13-8778-4c0e-9721-2bf0f95c707a" d="m53.87,2.06s.08-.04.15-.07c-.03.02-.08.04-.15.07Z"/><path class="uuid-8819d12a-85f0-4104-9138-3a3ed5741cfa" d="m53.65,2.13s.05-.04.1-.07c-.02.02-.05.04-.1.07Z"/><path class="uuid-8819d12a-85f0-4104-9138-3a3ed5741cfa" d="m51.89,2.46s.05-.04.11-.06c-.02.02-.05.04-.11.06Z"/><path class="uuid-33a96d65-fa2a-4c81-844a-b9af9cbef257" d="m63.25,3.69s.04-.02.08-.01c-.02.01-.04.02-.08.01Z"/><path class="uuid-33a96d65-fa2a-4c81-844a-b9af9cbef257" d="m62.38,3.74s.03-.04.06-.06c0,.02-.03.04-.06.06Z"/><path class="uuid-28afc537-df90-4842-a722-14d22f6eceec" d="m70.72,12.59c.15-.11.32-.22.5-.33-.15.11-.32.22-.5.33Z"/><path class="uuid-52138a6b-d0be-4b4a-ad83-29e3008bdd01" d="m48.02,7.49s.05.03.08.07c.07.07.14.12.21.17.01.03.03.06.05.11.05.06.09.09.13.13.03.02.05.03.09.06.12.18.2.36.34.51.29.29.64.55.92.84.18.18.29.41.41.62.05.09.07.19.12.3.01.02.01.04.01.08,0,.13,0,.23-.02.34-.11,0-.2,0-.29,0-.08-.27-.13-.55-.24-.81-.06-.13-.21-.24-.33-.35-.24-.21-.51-.39-.72-.61-.25-.26-.45-.55-.66-.83-.08-.11-.15-.23-.23-.34-.14-.18-.26-.19-.54-.15-.14.02-.3,0-.44-.03-.4-.1-.78-.21-1.18-.32-.21-.05-.25-.11-.14-.25.08-.1.19-.19.3-.29-.18.33-.16.34.31.44.23.05.46.13.7.2.04,0,.06,0,.1.01.12.04.21.08.31.09.23.02.47.02.7.04Z"/><path class="uuid-c7b06fee-7aa7-4236-8af0-0aa980d3dfae" d="m55.24,8.36s0,.06-.01.1c0-.03,0-.06.01-.1Z"/><path class="uuid-e7617948-1747-4da5-ab45-d560b244d5a5" d="m50.39,10.7c0-.1,0-.21,0-.32.16.06.24.3.14.47-.17.3-.41.57-.78.76-.02,0-.02,0-.02-.01.07-.07.14-.13.19-.19.2-.22.51-.4.46-.71Z"/><path class="uuid-e7617948-1747-4da5-ab45-d560b244d5a5" d="m49.69,11.73s-.04.01-.08,0c.03-.05.07-.09.12-.12,0,0,0,0,0,0-.01.04-.02.07-.04.12Z"/><path class="uuid-b193ae21-9ad9-4027-b362-5075b4460981" d="m48.87,17.51s.09-.06.15-.06c.16,0,.33,0,.52,0-.03.02-.09.06-.15.06-.16,0-.33,0-.52,0Z"/><path class="uuid-b193ae21-9ad9-4027-b362-5075b4460981" d="m36.74,16.07s.05,0,.08.02c-.02,0-.05,0-.08-.02Z"/><path class="uuid-1655319c-aa36-4918-9d06-b6628f7e2168" d="m35.73,13.97c.12.05.24.11.37.13.27.06.55.09.82.15.31.07.62.15.93.23.25.06.51.13.76.19.06.01.12.04.2.06-.1.04-.16.06-.23.1-.09.01-.18.01-.3,0-.08,0-.13,0-.19.01-.02,0-.04,0-.09,0-.11.02-.19.04-.26.06-.47,0-.94,0-1.43-.01-.08-.03-.14-.04-.2-.05-.02,0-.04,0-.08,0-.05,0-.07,0-.1,0-.1,0-.21,0-.33-.01-.09-.03-.17-.04-.24-.05-.03,0-.07,0-.13-.01-.15,0-.28,0-.4,0-.22,0-.44,0-.7,0-.26-.01-.48-.02-.71-.02-.16,0-.32.02-.49.03-.4,0-.79,0-1.21-.01-.15-.03-.28-.04-.41-.05-.06,0-.12,0-.21,0-.11,0-.19,0-.27,0-.1,0-.21,0-.33-.01-.11-.03-.2-.04-.28-.05-.05,0-.09,0-.16,0-.05,0-.07,0-.1,0-.18,0-.35,0-.55-.01-.12-.03-.23-.04-.33-.05-.03,0-.07,0-.12,0-.06,0-.1,0-.14,0-.13,0-.27,0-.42-.01-.26-.03-.49-.04-.72-.05-.15,0-.29,0-.48,0-.15,0-.26,0-.36,0-.07,0-.14.04-.21.06-.15,0-.29,0-.47,0-.07,0-.11,0-.14,0-.05,0-.09,0-.17,0-.11.02-.19.04-.27.06-.15,0-.29,0-.48,0-.07.02-.1.04-.14.06-.06,0-.12,0-.21,0-.05,0-.07,0-.1,0-.02,0-.04,0-.09,0-.08.02-.13.04-.18.06-.07,0-.15,0-.26,0-.08.02-.13.04-.18.06-.05,0-.09,0-.16,0-.05,0-.07,0-.1,0-.02,0-.04,0-.09,0-.06.02-.1.04-.13.07-.09,0-.18,0-.3,0-.07.02-.1.04-.14.06-.05,0-.09,0-.16,0-.05,0-.07,0-.1,0-.02,0-.04,0-.09,0-.05.02-.07.04-.09.06-.07,0-.15,0-.26,0-.13,0-.22,0-.31-.01-.25-.14-.5-.27-.75-.4-.02.01-.05.03-.07.04.06.08.12.16.17.24.03.06.08.14.05.18-.03.04-.14.08-.22.07-.77,0-1.54-.02-2.31-.03-.04,0-.08-.02-.1-.04.12-.01.23-.02.34-.02.67,0,1.34.02,2.01.03.06,0,.16-.02.16-.04,0-.05-.02-.11-.06-.15-.03-.03-.1-.05-.14-.07-.21-.11-.41-.23-.62-.35.1-.07.2-.12.31-.18-.28-.13-.34-.12-.43.09,0,.01-.03.02-.07.03-.24-.1-.47-.2-.7-.31-.04-.02-.05-.06-.06-.09.26,0,.51,0,.75,0,0-.02,0-.04,0-.06-.07,0-.14-.01-.2,0-.13,0-.19-.03-.15-.14.06,0,.11,0,.17,0,.19.04.36.09.53.09.33-.01.67-.06,1-.1.26-.03.53-.07.79-.09.11-.01.23,0,.35,0,.23,0,.46.02.7.02.2,0,.4-.03.6-.02.38.01.76.04,1.14.07.03,0,.06.03.1.03.28.07.56.16.85.19.54.05,1.08.05,1.63.07.14,0,.28,0,.42,0,.07,0,.15.03.21.07.17.12.24.13.46,0-.1-.02-.18-.04-.26-.05-.15-.01-.19-.07-.11-.17.39.03.75.07,1.12.12,0,.09-.01.19.14.18.15,0,.34.05.41-.13.15,0,.29,0,.42.01.07.01.15.02.23.02.05,0,.08,0,.12.01.11.05.22.09.33.12.1.02.21.05.31.03.16-.03.32-.09.47-.14.05-.02.08-.06.13-.09.07-.02.11-.04.18-.06.11,0,.2,0,.3,0,.49.01.96.02,1.44.03.02.15.15.17.3.16.18-.02.13-.12.16-.2.09,0,.17,0,.25,0,.05,0,.08-.02.14-.04.27-.01.52-.03.77-.04m-10.23.3c.07-.03.15-.05.22-.08,0-.02,0-.04,0-.06-.14-.03-.29-.07-.43-.08-.04,0-.11.07-.12.12,0,.03.08.08.13.1.05.02.11,0,.21,0Z"/><path class="uuid-e7e0761c-b4c9-4230-9c7a-da451ec743eb" d="m76.11,15.34c-.29.05-.57.09-.85.14-.24.04-.48.07-.71.11-.33.05-.65.11-.98.15-.83.11-1.66.23-2.49.32-.72.08-1.44.14-2.16.2-.27.02-.54.03-.81.04-1.15.01-2.29.04-3.44.03-.67,0-1.36-.02-2.02-.11-.76-.1-1.51-.02-2.29-.06-.1-.12,0-.13.12-.14.62-.02,1.23-.05,1.85-.07.79-.02,1.57-.03,2.36-.03.38,0,.76.03,1.13.03.78-.01,1.57-.04,2.35-.07.63-.02,1.26-.06,1.89-.1.4-.02.8-.04,1.19-.07.7-.06,1.39-.13,2.09-.2.79-.09,1.59-.2,2.38-.3.17-.02.34-.02.51-.04l.04.05c-.06.03-.12.06-.18.11Z"/><path class="uuid-dc255047-6ae0-42b8-b7d7-4c199229b12a" d="m30.81,15.61s0,.03-.02.04c-.47,0-.92-.02-1.38-.02-.09,0-.18.02-.29.03-.05,0-.08,0-.13,0-.15-.01-.29-.02-.43-.04-.35-.02-.7-.02-1.06-.02-.65,0-1.28,0-1.92,0-.72-.05-1.43-.08-2.14-.13-.2-.01-.4-.06-.61-.09.04-.04.06-.06.09-.08.23.01.47.02.74.03.07-.02.1-.04.14-.07.39-.05.78-.08,1.15-.16,1.03-.23,2.08-.31,3.13-.23.68.05,1.34.22,2.01.35.17.03.35.08.5.15.1.05.16.16.23.25Z"/><path class="uuid-b904b3ee-9634-48d9-9400-1e0c6441557a" d="m45.46,16.06c-.48.06-.93.15-1.39.18-.52.03-1.05.03-1.57,0-.62-.04-1.24-.13-1.86-.18-.59-.04-1.18-.07-1.77-.06-.42,0-.84.06-1.26.09-.05,0-.11,0-.16,0,0-.02-.01-.03-.02-.05.25-.09.49-.2.75-.27.79-.22,1.6-.28,2.43-.23.52.03,1.03.12,1.55.18.6.07,1.2.13,1.8.06.09-.01.18,0,.26,0,.7-.03,1.41-.07,2.11-.1.08,0,.17,0,.25.02-.34.2-.74.26-1.14.37Z"/><path class="uuid-b904b3ee-9634-48d9-9400-1e0c6441557a" d="m55.36,14.89c.67-.12,1.32-.19,1.98-.12.58.06,1.16.09,1.73.14.24.02.48.08.73.1.8.06,1.6.09,2.38-.09.36-.09.72-.18,1.08-.26.05-.01.11-.01.16-.02,0,.05,0,.1-.02.13-.12.11-.24.23-.39.31-.34.2-.74.29-1.17.31-.22,0-.45.07-.67.06-.64-.03-1.29-.08-1.93-.12-.38-.03-.77-.06-1.15-.07-.46-.02-.92-.04-1.38-.03-.78.01-1.57.04-2.34.16-.13.02-.27.02-.41.01.41-.25.86-.43,1.4-.5Z"/><path class="uuid-e7e0761c-b4c9-4230-9c7a-da451ec743eb" d="m22.9,15.28s-.04.05-.08.09c.22.03.41.07.61.09.71.04,1.42.08,2.13.14-.48.08-.95.14-1.43.2-.49.05-.98.09-1.46.14-.5.05-.96-.28-1.12-.64-.05-.11-.03-.17.14-.18.12,0,.23-.04.35-.07.09,0,.18,0,.29,0,.2.07.39.14.58.23Z"/><path class="uuid-b904b3ee-9634-48d9-9400-1e0c6441557a" d="m68.96,15.59c-.38,0-.76,0-1.16-.01-.02-.03-.02-.04-.02-.06.33-.22.72-.33,1.14-.25.45.08.86.02,1.29-.04.23-.03.46-.08.73-.11.07-.02.1-.04.14-.07.05,0,.09,0,.17,0,.04.02.04.04.05.06-.16.09-.33.18-.53.27-.05.02-.07.04-.09.07-.02,0-.04,0-.09,0-.05.02-.07.04-.09.06-.05,0-.09,0-.17,0-.05.01-.07.02-.09.03-.12.01-.24.02-.4.03-.32,0-.6,0-.88,0Z"/><path class="uuid-c287d401-0033-4fcd-a3e3-be1b570a9795" d="m58.4,16.23s-.08.08-.14.09c-.48.08-.97.14-1.45.22-.5.08-.99.17-1.49.24-.61.09-1.22.17-1.84.26-.26.04-.53.08-.79.11-.14.02-.29.02-.44,0,.05-.03.1-.05.15-.09.37-.06.74-.1,1.11-.16.41-.06.82-.13,1.23-.2.5-.08.98-.19,1.48-.26.59-.08,1.19-.12,1.79-.18.12-.01.24-.02.39-.03Z"/><path class="uuid-0505f00b-451c-4aa6-b81a-d627574dbcbb" d="m78.5,13.63c-.48-.03-.94-.07-1.4-.1-.17,0-.35.02-.53,0,.2-.14.42-.24.68-.24.36,0,.72.06,1.08.07.28,0,.56-.03.83-.05.09,0,.2-.08.24.06-.13.05-.27.08-.43.12-.05.02-.07.04-.09.06-.05,0-.09,0-.17,0-.05.02-.07.04-.09.07-.03,0-.07,0-.11,0Z"/><path class="uuid-ae14e2ac-0e04-4709-8cea-19391a127717" d="m32.97,14.79c.15-.02.31-.04.47-.04.22,0,.45,0,.68.02-.13.02-.28.04-.43.04-.24,0-.48,0-.73-.02Z"/><path class="uuid-e7e0761c-b4c9-4230-9c7a-da451ec743eb" d="m68.97,15.6c.27,0,.55,0,.85,0,0,.02-.04.06-.06.06-.26-.01-.52-.03-.79-.05Z"/><path class="uuid-ae14e2ac-0e04-4709-8cea-19391a127717" d="m27.7,14.53c.23,0,.46.01.7.04-.23,0-.46-.01-.7-.04Z"/><path class="uuid-ae14e2ac-0e04-4709-8cea-19391a127717" d="m26.66,14.58s.12-.06.19-.06c.11-.01.21,0,.34,0-.05.02-.12.06-.19.06-.11.01-.21,0-.34,0Z"/><path class="uuid-ae14e2ac-0e04-4709-8cea-19391a127717" d="m31.34,14.73c.13,0,.26.01.39.04-.13,0-.26-.01-.39-.04Z"/><path class="uuid-ae14e2ac-0e04-4709-8cea-19391a127717" d="m34.86,14.79c.11-.02.24-.02.37-.02-.11.02-.24.02-.37.02Z"/><path class="uuid-ae14e2ac-0e04-4709-8cea-19391a127717" d="m29.1,14.59c.1,0,.2.01.3.04-.1,0-.2-.01-.3-.04Z"/><path class="uuid-e7e0761c-b4c9-4230-9c7a-da451ec743eb" d="m71.3,15.11s-.03-.03-.05-.06c.05-.03.11-.06.17-.08.01.02.03.04.04.06-.05.03-.1.05-.16.08Z"/><path class="uuid-ae14e2ac-0e04-4709-8cea-19391a127717" d="m30.24,14.66c.08,0,.17.01.26.04-.08,0-.17-.01-.26-.04Z"/><path class="uuid-ae14e2ac-0e04-4709-8cea-19391a127717" d="m37.76,14.91c.06-.02.14-.04.23-.06-.06.02-.14.04-.23.06Z"/><path class="uuid-ae14e2ac-0e04-4709-8cea-19391a127717" d="m30.86,14.72c.07-.02.15-.02.24-.02-.07.02-.15.02-.24.02Z"/><path class="uuid-ae14e2ac-0e04-4709-8cea-19391a127717" d="m25.6,14.64c.06-.02.14-.04.23-.07-.06.02-.14.04-.23.07Z"/><path class="uuid-ae14e2ac-0e04-4709-8cea-19391a127717" d="m35.38,14.79c.07,0,.14.01.21.04-.07,0-.14-.01-.21-.04Z"/><path class="uuid-c287d401-0033-4fcd-a3e3-be1b570a9795" d="m23.98,14.85s.08-.04.15-.07c-.03.02-.08.04-.15.07Z"/><path class="uuid-ae14e2ac-0e04-4709-8cea-19391a127717" d="m36.12,14.86c.05,0,.11.01.17.04-.05,0-.11-.01-.17-.04Z"/><path class="uuid-ae14e2ac-0e04-4709-8cea-19391a127717" d="m38.11,14.86s.1-.02.16-.02c-.04.01-.1.02-.16.02Z"/><path class="uuid-ae14e2ac-0e04-4709-8cea-19391a127717" d="m24.42,14.78s.08-.04.14-.07c-.03.02-.08.04-.14.07Z"/><path class="uuid-e7e0761c-b4c9-4230-9c7a-da451ec743eb" d="m23.77,15.25s-.05.04-.1.07c.02-.02.05-.04.1-.07Z"/><path class="uuid-ae14e2ac-0e04-4709-8cea-19391a127717" d="m28.84,14.59s.07-.02.12-.02c-.03.01-.07.02-.12.02Z"/><path class="uuid-ae14e2ac-0e04-4709-8cea-19391a127717" d="m26.03,14.59s.07-.02.12-.02c-.03.01-.07.02-.12.02Z"/><path class="uuid-e7e0761c-b4c9-4230-9c7a-da451ec743eb" d="m67.75,15.52s.02.03.02.06c-.04,0-.07,0-.11-.02.03-.01.05-.03.09-.04Z"/><path class="uuid-ae14e2ac-0e04-4709-8cea-19391a127717" d="m24.99,14.71s.05-.04.1-.06c-.02.02-.05.04-.1.06Z"/><path class="uuid-e7e0761c-b4c9-4230-9c7a-da451ec743eb" d="m71.05,15.05s-.05.04-.1.07c.02-.02.05-.04.1-.07Z"/><path class="uuid-c287d401-0033-4fcd-a3e3-be1b570a9795" d="m23.05,14.98s.05-.04.1-.07c-.02.02-.05.04-.1.07Z"/><path class="uuid-c287d401-0033-4fcd-a3e3-be1b570a9795" d="m23.49,14.91s.05-.04.1-.07c-.02.02-.05.04-.1.07Z"/><path class="uuid-e7e0761c-b4c9-4230-9c7a-da451ec743eb" d="m70.68,15.45s.03-.04.06-.06c0,.02-.03.04-.06.06Z"/><path class="uuid-e7e0761c-b4c9-4230-9c7a-da451ec743eb" d="m70.5,15.52s.03-.04.06-.06c0,.02-.03.04-.06.06Z"/><path class="uuid-e7e0761c-b4c9-4230-9c7a-da451ec743eb" d="m70.24,15.57s.03-.03.07-.04c-.01.02-.04.03-.07.04Z"/><path class="uuid-ae14e2ac-0e04-4709-8cea-19391a127717" d="m29.98,14.65s.04-.02.08-.01c-.02.01-.04.02-.08.01Z"/><path class="uuid-ae14e2ac-0e04-4709-8cea-19391a127717" d="m24.67,14.72s.04-.02.07-.02c-.02.01-.04.02-.07.02Z"/><path class="uuid-c287d401-0033-4fcd-a3e3-be1b570a9795" d="m23.71,14.86s.04-.02.07-.02c-.02.01-.04.02-.07.02Z"/><path class="uuid-ae14e2ac-0e04-4709-8cea-19391a127717" d="m35.95,14.86s.04-.02.08-.01c-.02.01-.04.02-.08.01Z"/><path class="uuid-28afc537-df90-4842-a722-14d22f6eceec" d="m78.63,13.63s.03-.04.06-.06c0,.02-.03.04-.06.06Z"/><path class="uuid-28afc537-df90-4842-a722-14d22f6eceec" d="m78.89,13.56s.03-.04.06-.06c0,.02-.03.04-.06.06Z"/><path class="uuid-c287d401-0033-4fcd-a3e3-be1b570a9795" d="m22.78,14.99s.04-.02.07-.02c-.02.01-.04.02-.07.02Z"/><path class="uuid-c287d401-0033-4fcd-a3e3-be1b570a9795" d="m22.61,15.05s.03-.04.06-.06c0,.02-.03.04-.06.06Z"/><path class="uuid-022d358d-394d-4a71-869c-166c7d0147fd" d="m20.49,14.51c.21.11.41.23.62.34.05.03.11.04.14.07.04.04.06.1.06.15,0,.02-.11.04-.16.04-.67,0-1.34-.02-2.01-.03-.11,0-.22,0-.36.02-.33,0-.62,0-.92,0-.03-.03-.05-.05-.07-.05-.33,0-.67,0-1,0-.04,0-.07.04-.12.06-.03,0-.05,0-.07,0-.15,0-.29,0-.47-.02-.08-.04-.13-.07-.19-.08-.78-.14-1.56-.27-2.34-.41-.1-.02-.2-.02-.3-.04-.03,0-.07,0-.12-.01-.21-.05-.4-.08-.59-.12-.02,0-.04,0-.08,0-.05,0-.07,0-.1,0-.03,0-.07,0-.12-.01-.12-.1-.23-.11-.36-.05-.05,0-.09,0-.16-.01-.08-.03-.14-.04-.19-.05-.03,0-.06,0-.12,0-.06,0-.1,0-.14,0-.03,0-.07,0-.12-.01-.14-.03-.25-.04-.37-.05-.07,0-.15,0-.25,0-.08,0-.13,0-.18,0-.05,0-.09,0-.16-.01-.17-.03-.31-.04-.46-.05-.03,0-.06,0-.13,0-.17,0-.3,0-.44,0-.02,0-.04,0-.08-.01-.18-.03-.34-.05-.5-.07-.34-.04-.67-.08-1.01-.12-.03,0-.06,0-.12-.01-.09-.08-.16-.15-.21-.22.66-.01,1.3-.02,1.93-.03.16,0,.32,0,.48,0,.46-.01.92-.02,1.41-.03.23.04.45.08.66.12.19.03.38.15.6.06.03,0,.05,0,.07.02.29.13.61.16.94.14.03,0,.05,0,.08.02.22.02.44.03.66.04.09,0,.17.01.26.03.41.02.82.02,1.23.04.03-.01.06-.04.1-.06.06,0,.11,0,.17,0,.27-.01.52-.03.79-.06.08,0,.14-.01.22-.01.08,0,.14,0,.22-.02.05,0,.08,0,.13,0,.11,0,.21.01.3,0,.1-.01.2-.04.32-.06.05,0,.08,0,.13,0,.4,0,.78,0,1.17,0,.12.05.23.09.35.12.02.03.04.08.08.09.23.11.46.21.71.32.08.03.13.04.18.06Z"/><path class="uuid-c287d401-0033-4fcd-a3e3-be1b570a9795" d="m16.59,15.13s.04-.01.09-.01c.42,0,.8,0,1.18,0,.29,0,.59,0,.9,0,.06.01.1.03.14.03.77.01,1.54.03,2.31.03.08,0,.19-.03.22-.07.03-.04-.02-.12-.05-.18-.05-.08-.11-.16-.17-.24.02-.01.05-.03.07-.04.25.13.5.26.75.4-.11.03-.23.07-.35.08-.17.01-.19.06-.14.18.17.36.62.69,1.12.64.49-.05.98-.09,1.46-.14.48-.05.96-.12,1.45-.19.64,0,1.27,0,1.94,0,.26.01.48.02.71.02.12,0,.24,0,.35,0,.13.01.27.02.42.04.06.03.11.04.17.05.11,0,.2,0,.29.01.03.01.06.02.1.02.05.01.08.02.12.03-.18.05-.35.11-.53.13-.74.07-1.49.12-2.23.17-.49.03-.97.05-1.46.07-.83.03-1.66.08-2.49.06-.74-.02-1.48-.12-2.22-.22-.56-.07-1.11-.18-1.66-.28-.34-.06-.66-.16-1-.23-.3-.06-.61-.11-.9-.18-.2-.05-.4-.12-.6-.19Z"/><path class="uuid-e7e0761c-b4c9-4230-9c7a-da451ec743eb" d="m29.69,15.79c-.05-.01-.09-.02-.14-.04-.05-.01-.07-.02-.1-.03-.09,0-.18,0-.29-.01-.02-.03-.02-.04-.02-.06.09-.01.18-.03.27-.03.45,0,.9.02,1.38.03,0,.19-.11.27-.35.27-.22,0-.44.03-.61-.12-.02-.02-.08-.01-.14-.02Z"/><path class="uuid-5738e7c9-8ab0-4c9b-90f9-214cb21608a5" d="m39.38,14.76s.09-.03.15-.04c-.04.02-.09.03-.15.04Z"/><path class="uuid-1ad3cfdf-4b0e-47fe-a713-d76909df2c78" d="m69.8,12.96s.03-.04.06-.06c0,.02-.03.04-.06.06Z"/><path class="uuid-80f4efd3-0351-4e98-a40c-c1661ff3253a" d="m15.89,14.04s-.09,0-.17,0c-.05,0-.07,0-.11,0-.19,0-.36,0-.52,0-.23,0-.46.02-.69.02-.08,0-.15-.01-.26-.03-.24-.02-.45-.03-.66-.04-.02,0-.04,0-.08-.02-.33-.05-.63-.09-.94-.14-.02,0-.04,0-.08-.02-.29-.07-.55-.12-.81-.19-.29-.07-.57-.14-.88-.21-.03,0-.05,0-.08-.01-.34-.05-.67-.09-1-.13-.15-.02-.3-.04-.46-.06-.03,0-.05,0-.08-.01-.13-.07-.34-.08-.21-.26.03,0,.06,0,.13,0,.05-.02.07-.04.09-.06.03,0,.07,0,.13,0,.14-.04.25-.09.35-.13.21-.04.43-.08.64-.12.11-.02.22-.04.35-.04.09.04.16.06.22.09.12.07.24.16.37.22.51.23,1.05.42,1.66.47.36.03.72.14,1.07.22.32.07.64.13.99.11.29-.01.58-.01.87,0,.53.03.97-.17,1.44-.3.67-.19,1.36-.36,2.07-.44.76-.08,1.51-.04,2.25.1.34.07.7.1,1.05.12.54.03,1.08.04,1.62.04.77,0,1.55-.03,2.32-.03,1.21,0,2.41.02,3.62.03.19,0,.39-.03.58-.06.34-.06.63.04.91.17.54.23,1.12.33,1.7.19.46-.11.9-.28,1.32-.47.5-.22.98-.46,1.56-.54.33-.05.64-.14.97-.18.16-.02.33,0,.5.03.87.15,1.73.1,2.6-.02.36-.05.73-.1,1.1-.12.38-.03.74.04,1.07.18.26.11.51.1.78.05.77-.16,1.5-.39,2.22-.65.34-.12.68-.1,1,.05.1.05.2.1.3.14.3.14.51.12.76-.07.29-.23.6-.44.88-.68.46-.39,1.01-.59,1.72-.54.11,0,.2,0,.31,0,.06.31-.24.49-.44.71-.06.06-.13.12-.19.19-.05.05-.09.09-.13.13-.22.17-.41.36-.66.49-.42.22-.86.4-1.39.44-.21.01-.43.1-.63.17-.25.09-.5.2-.76.32.13.03.25.04.36.08.08.02.16.06.23.1-.06.05-.11.1-.19.16-.18.04-.33.08-.48.08-.69.02-1.37.02-2.06.04-.05,0-.11.02-.16.03-.23,0-.47,0-.74,0-.49,0-.95,0-1.4,0-.06,0-.12.02-.18.03-.02,0-.04,0-.1,0-1.18,0-2.33.03-3.47.03-.7,0-1.4.03-2.08.14-.31.05-.62.09-.95.14-.05,0-.08,0-.13,0-.69,0-1.35.02-2.02.03-.04,0-.08.02-.12.03-.09,0-.18,0-.3,0-.27.02-.5.06-.73.06-.45,0-.9-.02-1.35-.03-.25-.01-.49-.04-.74-.06-.35-.03-.7-.07-1.07-.1-.05,0-.08,0-.12-.01-.48-.04-.95-.06-1.42-.09-.32-.02-.64-.04-.95-.06-.43-.03-.87-.06-1.32-.1-.12,0-.23,0-.34-.01-.62-.01-1.23-.02-1.84-.02-.02,0-.05.02-.09.03-.17,0-.31,0-.48,0-.29.02-.55.04-.83.07-.03,0-.05,0-.09,0-.17,0-.31,0-.46,0-.77.05-1.54.11-2.31.16-.07,0-.13.02-.2.04-.03,0-.06,0-.13,0-.13,0-.22-.01-.32,0-.1.01-.2.04-.31.06-.03,0-.06,0-.12,0-.09,0-.16,0-.22.02-.06,0-.13.01-.22.01-.28.01-.54.03-.79.06Z"/><path class="uuid-40fa37d4-3cd3-4175-8642-8b0d6f7bc6d3" d="m18.26,11.37c.19.05.39.07.57.14.21.08.25.25.11.4-.11.11-.25.23-.4.3-.34.15-.68.3-1.05.4-.32.08-.67.08-1,.12-.19.02-.38.03-.55.08-.52.15-.62.03-.83-.35,0-.04,0-.05,0-.07.02,0,.04,0,.09,0,.06,0,.1-.02.13-.03.18-.03.37-.04.37-.24,0-.03.07-.08.13-.1.37-.14.77-.22,1.19-.24.12,0,.25,0,.37,0,.3,0,.55-.07.67-.33.06-.03.09-.05.14-.07.03,0,.05,0,.07,0Z"/><path class="uuid-c45dd4f3-b889-4314-92ff-ddcf1032abe8" d="m18.17,11.37s-.07.04-.12.07c-.02-.02-.03-.04-.05-.06-.13-.09-.23-.18.02-.23-.01-.08-.02-.15-.03-.23.03-.03.06-.04.1-.08.05-.06.09-.1.12-.14.26.04.48-.02.69-.15.07-.05.2-.04.31-.05.11,0,.22,0,.34,0,.02-.07.04-.13.06-.19h.19c.09.07.16.13.23.19.08-.06.15-.11.25-.19.2.04.44.11.69.12.25.01.51-.01.76-.05.16-.03.31-.12.47-.15.17-.04.23-.11.13-.25.1,0,.18,0,.26-.01.04,0,.12,0,.12-.02.03-.2.22-.13.37-.16.2-.05.37-.17.55-.27.08-.04.15-.1.24-.14-.07.28-.39.36-.65.49-.33.16-.66.31-.98.48-.32.17-.65.3-1.04.31-.02,0-.04,0-.09,0-.15-.04-.27-.09-.38-.13-.18-.07-.35-.1-.53,0-.06.04-.17.02-.26.03-.09,0-.18,0-.26.01-.39.07-.77.15-1.15.23-.3.06-.35.11-.35.35,0,.08,0,.17,0,.25Z"/><path class="uuid-33a96d65-fa2a-4c81-844a-b9af9cbef257" d="m43.02,3.83c-.08-.18.03-.28.22-.35.06-.02.11-.07.16-.12.04-.03.07-.06.13-.07.08-.02.13-.05.18-.08.34.02.68.05,1.04.08.05.03.08.04.11.06.05,0,.09,0,.16.01.11.03.19.04.28.06.02,0,.04,0,.08.01.06.03.1.04.14.06.35.11.71.21,1.06.34.14.05.12.24-.02.33-.21.13-.43.25-.64.38-.52.34-.98.71-1.11,1.25-.09.38-.12.78-.15,1.16,0,.11.09.22.15.32.07.14.17.27.22.41.11.33.47.46.82.56.45.14.92.25,1.38.38.16.05.31.12.45.2.19.11.19.33.02.56-.25.33-.51.65-.78.97-.18.22-.44.39-.75.49-.26.09-.53.18-.8.26-.26.07-.52.14-.78.19-.33.05-.67.11-1.01.11-.3,0-.63-.02-.89-.12-.79-.28-.89-.65-.37-1.17.36-.35.72-.7,1.07-1.05.44-.44.47-.95.42-1.47-.03-.32-.11-.63-.12-.95-.01-.37.04-.75.03-1.13,0-.16-.05-.33-.11-.49-.13-.32-.27-.65-.41-.97-.04-.08-.1-.15-.16-.23Z"/><path class="uuid-649330af-51e8-4d75-84b5-681b8a7fd84d" d="m29.31,9.63c.06.04.09.12.22.06,0,.04,0,.07-.02.13.35,0,.69.02,1.03,0,.43-.03.67.17.86.4.39.48.61,1.02.81,1.55.14.37-.1.6-.63.61-.36,0-.71.01-1.07.04-.4.03-.79.08-1.19.1-.18.01-.38,0-.55-.04-.46-.1-.91-.22-1.36-.34-.37-.1-.47-.34-.5-.61-.03-.27-.05-.54-.1-.8-.02-.08-.11-.17-.2-.23-.3-.19-.48-.45-.67-.7-.13-.18-.04-.31.22-.31.6.01,1.17-.06,1.74-.2.07-.02.16-.02.24,0,.16.03.28.07.22.24-.1.29-.08.3.32.29.17,0,.33-.02.5-.03.15,0,.11-.09.13-.16Z"/><path class="uuid-33a96d65-fa2a-4c81-844a-b9af9cbef257" d="m34.23,12.49c-.39.06-.75.13-1.13.16-.23.02-.34-.08-.27-.25.19-.4,0-.77-.15-1.14-.02-.04-.04-.08-.03-.11.03-.24-.15-.36-.42-.42-.22-.05-.42-.12-.46-.31-.04-.22.08-.4.31-.53.28-.16.51-.16.83-.03.5.2,1.05.36,1.59.49.22.05.48.02.72,0,.3-.01.53.09.76.2.12.06.23.13.36.19.64.31.64.97-.04,1.23-.41.15-.86.23-1.29.34-.26.06-.52.11-.79.17Z"/><path class="uuid-21cbe297-c985-49cb-abe8-c1e0843d1a06" d="m38.14,10.77c-.08-.04-.16-.08-.25-.14-.03-.04-.04-.07-.06-.1.13,0,.26,0,.4,0,.07,0,.13-.03.22-.05.1.22.36.06.51.15,0,.02,0,.05.02.07.04.04.09.08.14.09.02,0,.11-.05.11-.08,0-.04-.06-.08-.09-.12-.04-.06-.11-.11-.11-.17-.01-.26,0-.52,0-.79-.08.01-.13.02-.18.02.23-.26.44-.52.68-.77.34-.36.73-.68,1.02-1.06.22-.29.37-.63.12-1-.14-.2-.19-.43-.29-.64-.05-.12-.12-.23-.18-.34-.21-.42-.44-.84-.64-1.27-.07-.15-.11-.31-.14-.47-.05-.24-.33-.21-.53-.29-.04-.02-.09-.03-.13-.06.23,0,.45.03.65.14.29.16.61.3.88.48.21.14.37.33.54.5.29.3.57.6.86.9.32.33.39.69.29,1.09-.14.57-.52,1.05-.89,1.53-.24.31-.48.63-.71.94-.06.07-.11.15-.18.23-.04.03-.06.06-.08.08,0,.01,0,.03-.02.06-.06.1-.11.19-.16.28-.06.1-.11.21-.19.33-.04.05-.06.08-.07.11,0,0,0,.02-.02.03-.03.04-.05.08-.07.11,0,.03,0,.05-.01.09-.02.04-.02.06-.03.08-.09.19-.29.27-.51.37-.3.03-.5-.09-.71-.24-.02-.1-.05-.17-.18-.1Z"/><path class="uuid-40fa37d4-3cd3-4175-8642-8b0d6f7bc6d3" d="m21.2,10.65c.39-.03.72-.15,1.04-.32.32-.17.66-.32.98-.48.26-.13.57-.21.66-.49.02-.01.04-.01.07-.01.03,0,.05,0,.09,0,.21.02.41.06.61.06.3.01.42.14.32.35-.19.4-.49.74-.89,1.03-.39.28-.71.6-1,.95-.13.16-.31.29-.46.44-.14.14-.35.17-.56.19-.16.01-.26-.06-.29-.18-.08-.29-.16-.58-.26-.86-.05-.15-.16-.28-.23-.43-.04-.08-.05-.17-.08-.27Z"/><path class="uuid-058031ff-7c53-4f6c-b335-8022ce6f34ca" d="m18.18,11.37c-.01-.08-.02-.17-.02-.25,0-.24.05-.29.35-.35.38-.07.77-.15,1.15-.23.08-.02.17,0,.26-.01.09,0,.2,0,.26-.03.18-.11.35-.07.53,0,.12.04.24.08.37.13-.02.17-.16.2-.34.15-.11-.03-.21-.08-.32-.1-.11-.02-.23-.05-.34-.04-.44.06-.88.12-1.31.19-.14.02-.28.06-.4.11-.06.02-.1.09-.12.15-.02.08,0,.17,0,.27-.02.02-.04.02-.07.02Z"/><path class="uuid-649330af-51e8-4d75-84b5-681b8a7fd84d" d="m31.78,9.06c.07,0,.15,0,.24.02-.08.12-.16.09-.24-.02Z"/><path class="uuid-003f51e3-fbc8-4c06-8df5-5e47c8da0800" d="m45.29,3.4c-.08,0-.16-.02-.25-.05.08,0,.16.02.25.05Z"/><path class="uuid-649330af-51e8-4d75-84b5-681b8a7fd84d" d="m28.92,9.12c.06.04.11.09.17.15-.06-.04-.11-.09-.17-.15Z"/><path class="uuid-003f51e3-fbc8-4c06-8df5-5e47c8da0800" d="m43.7,3.21s-.09.05-.15.07c.04-.03.09-.05.15-.07Z"/><path class="uuid-003f51e3-fbc8-4c06-8df5-5e47c8da0800" d="m45.51,3.47s-.08-.02-.12-.05c.04,0,.08.02.12.05Z"/><path class="uuid-003f51e3-fbc8-4c06-8df5-5e47c8da0800" d="m44.85,3.33s-.05-.02-.08-.05c.03,0,.05.02.08.05Z"/><path class="uuid-d05e8995-ae00-432b-927b-70f13b9c4f95" d="m39.56,10.73s0-.04.02-.07c.01.01.01.03.01.06,0,.01-.02.01-.03.01Z"/><path class="uuid-649330af-51e8-4d75-84b5-681b8a7fd84d" d="m29.27,9.49s.04.03.05.05c-.02-.01-.04-.03-.05-.05Z"/><path class="uuid-d05e8995-ae00-432b-927b-70f13b9c4f95" d="m38.84,9.66c.05-.02.1-.02.18-.03,0,.27,0,.53,0,.79,0,.06.07.12.11.17.03.04.09.08.09.12,0,.02-.08.08-.11.08-.06-.02-.1-.06-.14-.09-.02-.02-.01-.05-.02-.07-.15-.08-.41.07-.5-.15,0-.31.18-.55.38-.81Z"/><path class="uuid-d05e8995-ae00-432b-927b-70f13b9c4f95" d="m36.56,3.49c.34-.01.69-.05,1,.11-.33-.02-.67-.06-1-.11Z"/><path class="uuid-21cbe297-c985-49cb-abe8-c1e0843d1a06" d="m37.84,3.62c.12,0,.25.02.38.04-.12,0-.25-.02-.38-.04Z"/><path class="uuid-21cbe297-c985-49cb-abe8-c1e0843d1a06" d="m38.32,3.69c.07,0,.14.02.21.04-.07,0-.14-.02-.21-.04Z"/><path class="uuid-d05e8995-ae00-432b-927b-70f13b9c4f95" d="m37.82,10.53s.04.05.06.09c-.04-.02-.08-.04-.13-.08.02-.01.04-.01.07-.01Z"/><path class="uuid-d05e8995-ae00-432b-927b-70f13b9c4f95" d="m36.3,3.48s.04-.02.08-.01c-.02.01-.04.02-.08.01Z"/><path class="uuid-d05e8995-ae00-432b-927b-70f13b9c4f95" d="m39.95,9.98c.04-.08.08-.17.15-.26-.04.08-.09.17-.15.26Z"/><path class="uuid-d05e8995-ae00-432b-927b-70f13b9c4f95" d="m39.69,10.43s.02-.06.06-.1c0,.03-.02.06-.06.1Z"/><path class="uuid-d05e8995-ae00-432b-927b-70f13b9c4f95" d="m39.6,10.56s.02-.06.06-.1c0,.03-.02.06-.06.1Z"/><path class="uuid-d05e8995-ae00-432b-927b-70f13b9c4f95" d="m40.13,9.65s.03-.04.06-.07c0,.02-.03.04-.06.07Z"/><path class="uuid-d05e8995-ae00-432b-927b-70f13b9c4f95" d="m38.15,10.78c.12-.08.15-.02.17.08-.05-.01-.11-.04-.17-.08Z"/><path class="uuid-4cd81d94-7e9a-421c-916b-d21ad4abd9a0" d="m23.93,9.21s.06-.09.11-.13c0,.04-.03.08-.06.13-.02,0-.03,0-.05,0Z"/><path class="uuid-4cd81d94-7e9a-421c-916b-d21ad4abd9a0" d="m24.07,8.95s.02-.05.05-.07c0,.02-.02.04-.05.07Z"/><path class="uuid-c45dd4f3-b889-4314-92ff-ddcf1032abe8" d="m20.19,9.05s.07.06.09.1c-.05,0-.09.01-.14.02.01-.04.02-.08.05-.12Z"/><path class="uuid-c45dd4f3-b889-4314-92ff-ddcf1032abe8" d="m21.95,10.22s-.02-.07-.02-.1c.04,0,.07,0,.11,0-.03.03-.05.07-.09.1Z"/><path class="uuid-0505f00b-451c-4aa6-b81a-d627574dbcbb" d="m18.2,10.7s-.05.08-.1.13c.02-.04.05-.08.1-.13Z"/><path class="uuid-28afc537-df90-4842-a722-14d22f6eceec" d="m48.34,13.47s.02-.09.06-.1c.23-.05.45-.12.68-.13.4-.02.81-.02,1.22,0,.38.01.75.05,1.13.07.02,0,.03.02.05.05-.16.04-.32.06-.52.08-.07.02-.1.04-.14.07-.47,0-.94,0-1.42,0-.1,0-.2-.02-.33-.04-.15,0-.28,0-.4,0-.1,0-.21,0-.33,0Z"/><path class="uuid-ce8ae868-dec8-4a45-b375-ee68963357b1" d="m34.94,13.98c.31-.05.62-.09.93-.14.69-.11,1.38-.14,2.08-.14,1.15,0,2.29-.02,3.46-.03-.04.02-.1.06-.16.06-1.26.01-2.51.02-3.77.04-.23,0-.46.07-.7.09-.27.02-.54.03-.81.05-.08,0-.15.03-.24.05-.26.02-.51.03-.78.04-.02,0-.02-.02-.02-.02Z"/><path class="uuid-ce8ae868-dec8-4a45-b375-ee68963357b1" d="m43.86,13.65s.09-.04.15-.04c.69-.01,1.37-.02,2.06-.04.15,0,.31-.05.48-.07.02,0,.02.01.02.03-.21.14-.45.12-.71.12-.59,0-1.18.02-1.77.03-.07,0-.14,0-.23-.02Z"/><path class="uuid-ce8ae868-dec8-4a45-b375-ee68963357b1" d="m41.54,13.68s.11-.04.17-.04c.45,0,.9,0,1.38,0-.02.02-.05.06-.09.06-.48,0-.96,0-1.45-.02Z"/><path class="uuid-1ad3cfdf-4b0e-47fe-a713-d76909df2c78" d="m48.69,13.47c.11-.02.24-.02.37-.02-.11.02-.24.02-.37.02Z"/><path class="uuid-1ad3cfdf-4b0e-47fe-a713-d76909df2c78" d="m50.84,13.5s.05-.04.1-.07c-.02.02-.05.04-.1.07Z"/><path class="uuid-c7b06fee-7aa7-4236-8af0-0aa980d3dfae" d="m55.09,6.1s-.04-.03-.05-.05c.02,0,.04.03.05.05Z"/><path class="uuid-c7b06fee-7aa7-4236-8af0-0aa980d3dfae" d="m55.49,7.9s0-.04.02-.06c0,.02,0,.04-.02.06Z"/><path class="uuid-c7b06fee-7aa7-4236-8af0-0aa980d3dfae" d="m55.53,7.45s-.04-.03-.05-.05c.02,0,.04.03.05.05Z"/><path class="uuid-c7b06fee-7aa7-4236-8af0-0aa980d3dfae" d="m54.92,5.43s-.04-.03-.05-.05c.02,0,.04.03.05.05Z"/><path class="uuid-058031ff-7c53-4f6c-b335-8022ce6f34ca" d="m48.02,7.48c-.23,0-.47,0-.7-.02-.1,0-.19-.05-.3-.09.06,0,.12,0,.19,0,.19,0,.38.03.57,0,.13-.01.19,0,.24.1Z"/><path class="uuid-058031ff-7c53-4f6c-b335-8022ce6f34ca" d="m48.32,7.72c-.07-.04-.14-.09-.21-.15.07.04.14.09.21.15Z"/><path class="uuid-058031ff-7c53-4f6c-b335-8022ce6f34ca" d="m48.49,7.95s-.08-.06-.12-.11c.04.02.08.06.12.11Z"/><path class="uuid-d8db2378-6c58-46c9-b667-ecf2a82e5f62" d="m21.9,13.64c.15,0,.29,0,.47,0,.64.01,1.25.02,1.86.02.03,0,.05-.02.08-.03.1,0,.21,0,.33.02.04.02.06.04.08.04,1.02.08,2.05.16,3.07.24.18.01.37-.02.56-.03.03,0,.06,0,.11.01.02.03.02.04.02.05-.06.1-.03.16.13.17.08,0,.16.03.26.05-.22.12-.29.11-.46,0-.05-.04-.13-.07-.21-.07-.14-.01-.28,0-.42,0-.54-.02-1.09-.03-1.63-.07-.29-.03-.57-.12-.85-.19-.03,0-.06-.03-.1-.03-.38-.03-.76-.06-1.14-.07-.2,0-.4.02-.6.02-.23,0-.46-.01-.7-.02-.12,0-.23-.01-.35,0-.27.02-.53.06-.79.09-.33.04-.66.09-1,.1-.17,0-.35-.05-.52-.1.12-.02.23-.02.34-.04.17-.02.34-.06.51-.09.02,0,.04,0,.09,0,.13.01.23.03.33.02.17-.02.34-.06.51-.09Z"/><path class="uuid-ce8ae868-dec8-4a45-b375-ee68963357b1" d="m28.5,13.97s-.02-.03-.02-.05c.35.02.7.06,1.05.09.24.02.49.05.74.06.45.02.9.04,1.35.03.23,0,.46-.04.71-.06-.03.02-.08.04-.16.07-.43.02-.83.04-1.23.07-.03,0-.07,0-.13-.01-.09-.01-.16-.02-.23-.02-.13,0-.27,0-.44,0-.2-.02-.37-.04-.53-.06-.37-.03-.74-.07-1.12-.1Z"/><path class="uuid-ce8ae868-dec8-4a45-b375-ee68963357b1" d="m20.96,13.7c-.15.03-.32.07-.49.1-.11.02-.23.01-.35.03-.06.01-.11.01-.19.01-.27.02-.51.04-.75.07-.39,0-.77.02-1.17.01.05-.02.12-.04.19-.05.77-.06,1.54-.11,2.31-.16.14,0,.29,0,.46,0Z"/><path class="uuid-ce8ae868-dec8-4a45-b375-ee68963357b1" d="m32.67,14.05s.06-.04.1-.04c.67-.01,1.33-.03,2.02-.02.02.03.02.04.02.05-.08,0-.15,0-.26,0-.17.01-.31.02-.44.03-.47,0-.95,0-1.43-.02Z"/><path class="uuid-d8db2378-6c58-46c9-b667-ecf2a82e5f62" d="m19.18,13.92c.23-.03.47-.06.73-.08,0,.1.06.14.19.14.07,0,.14,0,.2,0,0,.02,0,.04,0,.06-.24,0-.49,0-.75,0-.14-.04-.25-.07-.37-.12Z"/><path class="uuid-d8db2378-6c58-46c9-b667-ecf2a82e5f62" d="m30.94,14.19c.4-.03.79-.06,1.21-.08-.02.03-.05.07-.1.09-.15.05-.31.11-.47.14-.1.02-.21,0-.31-.03-.11-.03-.22-.07-.33-.12Z"/><path class="uuid-d8db2378-6c58-46c9-b667-ecf2a82e5f62" d="m25.48,14.27c-.08,0-.14.01-.19,0-.05-.02-.14-.07-.13-.1.01-.05.09-.12.12-.12.15.01.29.05.43.08,0,.02,0,.04,0,.06-.07.03-.15.05-.24.08Z"/><path class="uuid-d8db2378-6c58-46c9-b667-ecf2a82e5f62" d="m29.62,14.09c.16,0,.33.03.51.05-.03.19-.22.13-.37.13-.15,0-.14-.09-.14-.18Z"/><path class="uuid-d8db2378-6c58-46c9-b667-ecf2a82e5f62" d="m34.1,14.09c.13-.02.27-.04.42-.05,0,.08.06.19-.12.2-.15.01-.27,0-.3-.16Z"/><path class="uuid-d8db2378-6c58-46c9-b667-ecf2a82e5f62" d="m20.49,14.5c-.05,0-.11-.02-.17-.05,0-.02.04-.03.04-.04.1-.21.16-.22.43-.09-.11.06-.21.11-.31.18Z"/><path class="uuid-d8db2378-6c58-46c9-b667-ecf2a82e5f62" d="m30.59,14.15c.06,0,.13,0,.21.01-.06,0-.13,0-.21-.01Z"/><path class="uuid-d8db2378-6c58-46c9-b667-ecf2a82e5f62" d="m34.81,14.05s0-.04,0-.06c.03-.01.07-.01.11-.01.02,0,.01.02.01.03-.04.02-.08.04-.12.05Z"/><path class="uuid-e7e0761c-b4c9-4230-9c7a-da451ec743eb" d="m28.56,15.62c-.11.01-.23.01-.34,0-.23,0-.45,0-.69-.02.33,0,.68,0,1.03.01Z"/><path class="uuid-b193ae21-9ad9-4027-b362-5075b4460981" d="m29.13,15.66s.02.03.02.06c-.04,0-.09-.02-.13-.04.03-.01.06-.01.11-.01Z"/><path class="uuid-1655319c-aa36-4918-9d06-b6628f7e2168" d="m17.86,15.1c-.38.01-.76.01-1.16.01.01-.02.05-.06.09-.06.33,0,.67,0,1,0,.02,0,.04.02.07.05Z"/><path class="uuid-ce8ae868-dec8-4a45-b375-ee68963357b1" d="m17.26,13.97c.08-.02.18-.05.29-.06.09,0,.19,0,.3,0-.08.02-.18.05-.29.06-.09,0-.19,0-.3,0Z"/><path class="uuid-b193ae21-9ad9-4027-b362-5075b4460981" d="m29.45,15.74s.05,0,.08.02c-.02,0-.05,0-.08-.02Z"/><path class="uuid-ce8ae868-dec8-4a45-b375-ee68963357b1" d="m28.34,13.9c-.17.02-.36.05-.54.04-1.02-.07-2.05-.16-3.07-.24-.02,0-.03-.02-.06-.04.43.02.86.05,1.29.08.32.02.64.04.95.06.47.03.94.06,1.42.09Z"/><path class="uuid-ce8ae868-dec8-4a45-b375-ee68963357b1" d="m24.3,13.63s-.04.04-.06.04c-.61,0-1.22,0-1.84-.02.01-.02.03-.04.06-.04.61,0,1.22,0,1.84.02Z"/><path class="uuid-ce8ae868-dec8-4a45-b375-ee68963357b1" d="m21.88,13.64c-.15.03-.32.07-.49.09-.1.01-.2,0-.32-.02.25-.03.52-.06.8-.08Z"/></g></svg>