<?xml version="1.0" encoding="UTF-8"?><svg id="uuid-66a6cfe7-cecf-4ba8-8f6f-d785faeddf20" xmlns="http://www.w3.org/2000/svg" viewBox="0 0 35.83 31.62"><defs><style>.uuid-f04cf580-6c57-492a-a9b2-3e980fc62199{fill:#f4c06f;}.uuid-f04cf580-6c57-492a-a9b2-3e980fc62199,.uuid-f117fff4-771a-41da-91a7-92a8f28507f2,.uuid-0fc70d91-30e7-4acb-8d8f-e25739a23bef,.uuid-2114e967-e6a1-4e83-86e8-d24ab9b196c6,.uuid-7a4fdaa4-a58f-4494-98c0-84edbb036559,.uuid-dbe35a07-477b-43a9-bba7-eaa0ce1e276a,.uuid-c8c83dbb-76a4-4b4b-9300-656ae9d1e17e,.uuid-baa98569-f7f6-43c2-96ea-3268594fa4b3,.uuid-886f7fb1-7a73-427c-90fa-01d5ee193f64,.uuid-5ab2ff74-1173-4b62-a6e5-64c0ccabb65f,.uuid-bbb58933-38e8-424c-8a14-d189e6650e63,.uuid-7bbcb5a3-46b6-4ac9-8bf3-6ca38a124bc6,.uuid-f9075716-f20a-4b29-84fa-c1133294b3e5,.uuid-02304ff9-5c66-4de6-a6e9-56003810ebff,.uuid-58a9f2f6-b935-42fe-9fe9-01a028f52b60,.uuid-daeb89ca-0ef1-4eb4-9653-c17a2911a552,.uuid-46f90470-2fd9-4393-83c7-129cd0103f8c,.uuid-e2f2a559-8fab-45f1-aa39-829dd2e66052,.uuid-a5e868ec-6a40-4792-acd6-65b80cdb35cd,.uuid-f9a0b4e3-e34d-49b1-a81f-5582589019d3,.uuid-5c93be0e-596d-4152-bf70-6239ee8dd8fb,.uuid-579c0a7a-b763-4085-bb26-3c5ffca3fb2c,.uuid-fafe64ef-c978-4a23-8786-3a9c74c41d0f,.uuid-3aa58bda-40e5-4d12-bb25-a75da44d8221,.uuid-45ac408a-1ad7-4532-88c1-df40f13fa7ca,.uuid-cc99e825-e234-4826-b3a9-c9e79fbfdc45{stroke-width:0px;}.uuid-f117fff4-771a-41da-91a7-92a8f28507f2{fill:#f9e3be;}.uuid-0fc70d91-30e7-4acb-8d8f-e25739a23bef{fill:#f9e3bd;}.uuid-2114e967-e6a1-4e83-86e8-d24ab9b196c6{fill:#f8e3be;}.uuid-7a4fdaa4-a58f-4494-98c0-84edbb036559{fill:#6188b6;}.uuid-dbe35a07-477b-43a9-bba7-eaa0ce1e276a{fill:#78a995;}.uuid-c8c83dbb-76a4-4b4b-9300-656ae9d1e17e{fill:#74a997;}.uuid-baa98569-f7f6-43c2-96ea-3268594fa4b3{fill:#6fb6b2;}.uuid-886f7fb1-7a73-427c-90fa-01d5ee193f64{fill:#3c6899;}.uuid-5ab2ff74-1173-4b62-a6e5-64c0ccabb65f{fill:#d9855f;}.uuid-bbb58933-38e8-424c-8a14-d189e6650e63{fill:#e2b165;}.uuid-7bbcb5a3-46b6-4ac9-8bf3-6ca38a124bc6{fill:#e0b166;}.uuid-f9075716-f20a-4b29-84fa-c1133294b3e5{fill:#bee3f5;}.uuid-02304ff9-5c66-4de6-a6e9-56003810ebff{fill:#bee3f4;}.uuid-58a9f2f6-b935-42fe-9fe9-01a028f52b60{fill:#bee3f3;}.uuid-daeb89ca-0ef1-4eb4-9653-c17a2911a552{fill:#bfe3f4;}.uuid-46f90470-2fd9-4393-83c7-129cd0103f8c{fill:#bfe3f3;}.uuid-e2f2a559-8fab-45f1-aa39-829dd2e66052{fill:#bfe3f5;}.uuid-a5e868ec-6a40-4792-acd6-65b80cdb35cd{fill:#bde2f5;}.uuid-f9a0b4e3-e34d-49b1-a81f-5582589019d3{fill:#bde3f4;}.uuid-5c93be0e-596d-4152-bf70-6239ee8dd8fb{fill:#6b849b;}.uuid-579c0a7a-b763-4085-bb26-3c5ffca3fb2c{fill:#ef857e;}.uuid-fafe64ef-c978-4a23-8786-3a9c74c41d0f{fill:#edf6ef;}.uuid-3aa58bda-40e5-4d12-bb25-a75da44d8221{fill:#ecf4f0;}.uuid-45ac408a-1ad7-4532-88c1-df40f13fa7ca{fill:#ecf5f0;}.uuid-cc99e825-e234-4826-b3a9-c9e79fbfdc45{fill:#eef5ee;}</style></defs><g id="uuid-eb999bf0-50dd-491b-9bea-f01e17b8d477"><path class="uuid-579c0a7a-b763-4085-bb26-3c5ffca3fb2c" d="m.26,0C.2.09.11.19.01.28c-.01-.09-.01-.18-.01-.28h.26Z"/><path class="uuid-baa98569-f7f6-43c2-96ea-3268594fa4b3" d="m35.82,11.57s0,.06,0,.09c0,3.43,0,6.86-.02,10.31-5.12.02-10.22.02-15.32.02-1.35,0-2.7,0-4.05-.01,0-.03-.02-.04-.02-.07,0-.05,0-.09,0-.12,0-2.92-.01-5.85-.02-8.77,0-.01,0-.02,0-.05,0-.18,0-.35,0-.53,0-.04,0-.06.02-.1.01-.26.01-.52.01-.76.13-.05.22-.1.31-.13.69-.25,1.39-.5,2.08-.75.58-.21,1.16-.42,1.75-.63.39-.14.78-.29,1.17-.44.48-.18.97-.34,1.46-.52.35-.12.69-.26,1.04-.38.36-.13.73-.28,1.09-.4.37-.12.72-.36,1.15-.16.31.15.64.24.96.36.36.13.73.27,1.09.4.52.19,1.04.37,1.56.56.57.21,1.15.43,1.72.64.28.1.57.2.85.3.3.11.6.25.9.36.52.19,1.04.36,1.57.55.22.08.45.15.67.23m-11.53,6.41q0,.29.28.29c1.14,0,2.27,0,3.41,0,.35,0,.31.06.31-.35v-4.42h-3.99c0,1.5,0,2.97,0,4.48m6.28,0q0,.29.3.29c1.13,0,2.26,0,3.39,0,.35,0,.31.06.31-.35v-4.42c-.1-.01-.19-.03-.27-.03-1.17,0-2.35,0-3.52,0-.16,0-.21.05-.21.21,0,1.42,0,2.84,0,4.29m-8.56-.06c0-1.41,0-2.83,0-4.24,0-.17-.05-.2-.21-.2-1.19,0-2.38,0-3.58,0-.17,0-.22.05-.21.22,0,1.42,0,2.84,0,4.29q0,.29.28.29c1.17,0,2.34,0,3.52,0,.15,0,.22-.05.2-.2,0-.04,0-.08,0-.15Z"/><path class="uuid-f04cf580-6c57-492a-a9b2-3e980fc62199" d="m16.41,12.97s0,.02,0,.03c0,2.92.01,5.85.02,8.77,0,.03,0,.07-.02.12-.04.04-.06.06-.1.08-3.01,0-6.01,0-9.01,0-2.27,0-4.55,0-6.82,0,0-.03,0-.07,0-.1,0-2.97,0-5.94.02-8.93.06-.02.1-.03.13-.04.44-.19.89-.37,1.33-.56.92-.4,1.85-.8,2.77-1.19.63-.27,1.27-.53,1.9-.79.57-.24,1.15-.48,1.72-.72.05-.02.13-.03.18,0,.32.13.64.27.97.41.63.26,1.25.53,1.88.79.29.12.58.24.87.36.64.27,1.28.55,1.92.83.74.32,1.49.63,2.23.95m-14.38,5.01c0,.32-.04.28.27.28,1.12,0,2.25,0,3.37,0q.31,0,.32-.35v-4.43c-.15,0-.28,0-.4,0-1.13,0-2.25,0-3.38,0-.11,0-.19,0-.19.15,0,1.44,0,2.87,0,4.34m8.17,0c0,.33-.04.29.29.29,1.13,0,2.26,0,3.39,0,.35,0,.32.08.32-.35,0-1.42,0-2.84,0-4.26,0-.14-.03-.19-.18-.18-1.22,0-2.43,0-3.65,0-.12,0-.18.03-.18.17,0,1.44,0,2.87,0,4.34Z"/><path class="uuid-5ab2ff74-1173-4b62-a6e5-64c0ccabb65f" d="m.49,22c2.27-.02,4.55-.02,6.82-.02,3,0,5.99,0,9.02,0,.06,0,.08,0,.11,0,1.35,0,2.7,0,4.05,0,5.1,0,10.2,0,15.31,0,.02.38.02.76.02,1.17-.2,0-.4,0-.59,0-.13,0-.26,0-.39,0-.14-.01-.18.05-.18.18,0,.82,0,1.64,0,2.45,0,1.88,0,3.75,0,5.63,0,.06,0,.13,0,.2h-1.15c0-.06,0-.12,0-.18,0-.51,0-1.03,0-1.54,0-.07-.05-.17-.11-.21-1.27-.92-2.54-1.82-3.81-2.74-.88-.63-1.77-1.26-2.65-1.89-.06-.05-.13-.09-.22-.15v6.71h-1.16v-6.73c-.25.18-.48.33-.7.49-1.98,1.42-3.97,2.84-5.96,4.26-.12.09-.16.17-.16.32,0,.5,0,.99,0,1.49,0,.14-.03.2-.18.19-.27-.01-.55-.01-.82,0-.13,0-.17-.04-.17-.17,0-.51,0-1.03,0-1.54,0-.13-.03-.22-.15-.3-1.92-1.37-3.84-2.74-5.76-4.11-.24-.17-.47-.34-.71-.51-.05-.04-.1-.07-.19-.12v6.75h-1.15v-6.69c-.06.03-.1.05-.14.08-2.18,1.56-4.37,3.12-6.56,4.68-.09.06-.12.13-.12.23,0,.5,0,.99,0,1.49,0,.06,0,.13,0,.2h-1.15c0-.07,0-.14,0-.22,0-2.68,0-5.35,0-8.03,0-.18-.05-.23-.23-.22-.3.01-.61,0-.93,0,0-.39,0-.76,0-1.15m3.66,1.15h-1.34v5.63c.06-.04.1-.07.15-.1.78-.56,1.57-1.12,2.35-1.68,1.4-1,2.8-2,4.2-3,.04-.03.08-.08.09-.12,0-.24,0-.47,0-.73-1.82,0-3.62,0-5.45,0m29.36,4.22v-4.2h-6.8c0,.19,0,.38,0,.56,0,.14.04.22.15.3,2.11,1.51,4.23,3.02,6.34,4.53.09.07.2.13.31.2v-1.38m-11.27-1.1c.96-.69,1.91-1.39,2.88-2.05.33-.22.48-.46.43-.85-.02-.17-.05-.22-.23-.22-2.13,0-4.25,0-6.38,0-.06,0-.12,0-.19,0v5.6c1.17-.84,2.32-1.66,3.48-2.49m-9.77-1.17c1.59,1.14,3.18,2.28,4.77,3.41.1.07.2.14.31.21v-5.57h-.22c-1.48,0-2.96,0-4.43,0-.64,0-1.29,0-1.93,0-.17,0-.23.05-.21.22.01.13,0,.26,0,.38,0,.07.05.16.1.2.52.38,1.05.76,1.6,1.15Z"/><path class="uuid-7a4fdaa4-a58f-4494-98c0-84edbb036559" d="m7.09,8.62c0-.82,0-1.64.02-2.47.07-.03.13-.05.18-.07,1.32-.55,2.64-1.11,3.96-1.66.76-.32,1.51-.64,2.27-.96.71-.3,1.42-.58,2.13-.88.14-.06.26-.12.41-.05.66.28,1.32.56,1.98.83,1.03.43,2.06.86,3.09,1.3.76.32,1.51.63,2.27.95.43.18.86.35,1.29.53,0,.26,0,.52,0,.8-.04.04-.08.06-.12.08-1.61.59-3.22,1.17-4.84,1.76-1.06.39-2.13.77-3.19,1.16-.06.02-.13.09-.13.14,0,.34,0,.69,0,1.05-.01.11-.02.21-.05.3-.13-.05-.24-.1-.35-.14-2.49-1.05-4.97-2.1-7.46-3.15-.07-.03-.17-.03-.25,0-.26.1-.5.21-.76.31-.16.06-.33.12-.49.17m10.82.32v-4.4h-3.99c0,1.49,0,2.97,0,4.48,0,.33-.04.28.29.28,1.14,0,2.28,0,3.43,0q.28,0,.28-.29s0-.02,0-.07Z"/><path class="uuid-f117fff4-771a-41da-91a7-92a8f28507f2" d="m7.12,5.54c-.01-.05-.04-.11-.04-.16,0-.38,0-.76,0-1.14,0-.06.05-.15.1-.17.86-.37,1.73-.73,2.59-1.09,1.15-.48,2.31-.97,3.46-1.45.85-.36,1.71-.71,2.57-1.06.06-.02.15-.02.21,0,.86.35,1.71.71,2.56,1.07,1.18.49,2.36.99,3.54,1.49.82.34,1.63.68,2.45,1.02.1.04.15.09.14.21,0,.42,0,.84-.02,1.28-.04,0-.07,0-.1-.01-2.85-1.19-5.7-2.39-8.56-3.57-.08-.03-.19-.03-.26,0-2.38.99-4.76,1.99-7.14,2.98-.51.21-1.01.42-1.52.62Z"/><path class="uuid-2114e967-e6a1-4e83-86e8-d24ab9b196c6" d="m16.44,11.11c0-.34-.01-.69,0-1.03,0-.05.08-.12.13-.14,1.06-.39,2.13-.78,3.19-1.16,1.61-.59,3.22-1.17,4.84-1.76.04-.01.07-.03.12-.06.33-.12.66-.19.96-.34.36-.18.67-.1,1.01.03.81.31,1.63.6,2.44.9.76.28,1.53.56,2.29.84,1.02.37,2.03.73,3.05,1.1.43.15.85.31,1.27.48.04.02.09.1.09.15,0,.33,0,.65-.01.99-.23-.06-.44-.14-.65-.22-1.36-.49-2.72-.99-4.08-1.48-1.61-.58-3.21-1.17-4.82-1.75-.08-.03-.2-.03-.28,0-1.42.51-2.83,1.03-4.24,1.54-1.76.64-3.53,1.28-5.3,1.92Z"/><path class="uuid-0fc70d91-30e7-4acb-8d8f-e25739a23bef" d="m7.08,8.63c.17-.07.34-.12.5-.18.25-.1.5-.22.76-.31.07-.03.18-.03.25,0,2.49,1.05,4.97,2.1,7.46,3.15.11.05.23.09.35.16.02.31.03.61.04.9,0,.02,0,.05-.02.08-.49-.19-.96-.39-1.43-.59-1.09-.46-2.19-.93-3.28-1.39-1.04-.44-2.07-.88-3.11-1.31-.07-.03-.17-.03-.24,0-.96.4-1.91.8-2.87,1.2-1.66.7-3.33,1.41-4.99,2.11,0-.29,0-.58,0-.88,0-.06.06-.15.12-.18.47-.21.95-.4,1.43-.6.41-.17.81-.35,1.22-.52.57-.24,1.13-.49,1.7-.72.68-.29,1.36-.57,2.04-.86.03-.01.05-.03.08-.06Z"/><path class="uuid-886f7fb1-7a73-427c-90fa-01d5ee193f64" d="m7.12,5.56c.51-.22,1.02-.43,1.53-.64,2.38-.99,4.76-1.99,7.14-2.98.07-.03.19-.03.26,0,2.85,1.19,5.71,2.38,8.56,3.57.03.01.05.02.09.03.02.19.02.37.02.57-.43-.16-.87-.33-1.3-.51-.76-.31-1.52-.63-2.27-.95-1.03-.43-2.06-.86-3.09-1.3-.66-.28-1.32-.55-1.98-.83-.16-.07-.28,0-.41.05-.71.3-1.42.58-2.13.88-.76.32-1.51.64-2.27.96-1.32.56-2.64,1.11-3.96,1.66-.05.02-.11.04-.18.05,0-.19,0-.38,0-.58Z"/><path class="uuid-dbe35a07-477b-43a9-bba7-eaa0ce1e276a" d="m16.45,12.33c-.02-.28-.03-.58-.04-.89,0-.11.02-.21.03-.32,1.77-.66,3.53-1.3,5.3-1.94,1.41-.51,2.83-1.03,4.24-1.54.08-.03.2-.03.28,0,1.61.58,3.21,1.16,4.82,1.75,1.36.49,2.72.99,4.08,1.48.21.08.43.16.65.24.01.14.01.28.01.44-.23-.06-.45-.14-.67-.22-.52-.18-1.05-.36-1.57-.55-.3-.11-.6-.24-.9-.36-.28-.11-.57-.2-.85-.3-.57-.21-1.15-.43-1.72-.64-.52-.19-1.04-.37-1.56-.56-.36-.13-.73-.27-1.09-.4-.32-.12-.65-.21-.96-.36-.43-.21-.78.04-1.15.16-.37.12-.73.26-1.09.4-.35.13-.69.26-1.04.38-.48.17-.97.34-1.46.52-.39.14-.78.29-1.17.44-.58.21-1.16.42-1.75.63-.69.25-1.39.5-2.08.75-.09.03-.18.08-.31.13,0,.24,0,.49-.01.76Z"/><path class="uuid-7bbcb5a3-46b6-4ac9-8bf3-6ca38a124bc6" d="m.49,12.46c1.66-.72,3.33-1.42,4.99-2.13.96-.4,1.91-.81,2.87-1.2.07-.03.17-.02.24,0,1.04.43,2.07.87,3.11,1.31,1.09.46,2.19.93,3.28,1.39.47.2.94.4,1.43.6.01.17.01.34,0,.52-.75-.3-1.5-.62-2.24-.94-.64-.27-1.28-.55-1.92-.83-.29-.12-.58-.24-.87-.36-.63-.26-1.25-.52-1.88-.79-.32-.14-.64-.28-.97-.41-.05-.02-.13-.01-.18,0-.58.24-1.15.48-1.72.72-.63.26-1.27.52-1.9.79-.93.39-1.85.79-2.77,1.19-.44.19-.89.37-1.33.56-.04.02-.08.02-.13.02-.01-.15-.02-.3-.02-.47Z"/><path class="uuid-45ac408a-1ad7-4532-88c1-df40f13fa7ca" d="m18.02,17.94c0-1.42,0-2.84,0-4.26,0-.17.04-.22.21-.22,1.19,0,2.38,0,3.58,0,.16,0,.21.04.21.2,0,1.41,0,2.83-.02,4.26-.91.02-1.8.02-2.7.02-.43,0-.85,0-1.28,0m2.08-2.41c.12,0,.24,0,.37,0,.1,0,.15-.03.14-.14,0-.17,0-.34,0-.51,0-.1-.04-.13-.14-.13-.31,0-.62,0-.93,0-.1,0-.14.03-.13.13,0,.17,0,.34,0,.51,0,.11.04.14.14.14.17,0,.34,0,.54,0m-.45,1.05c.27,0,.55,0,.82,0,.11,0,.15-.03.14-.14,0-.17,0-.34,0-.51,0-.09-.03-.13-.12-.13-.32,0-.64,0-.96,0-.04,0-.1.07-.11.11-.01.15,0,.3,0,.45-.01.16.04.23.23.2m-.23.72c0,.3-.03.26.26.27.13,0,.27,0,.4,0,.17,0,.41.05.5-.05.09-.09.02-.33.04-.5,0-.13-.05-.16-.16-.15-.21,0-.42,0-.63,0q-.4,0-.4.44m1.19-3.19c0-.3.03-.26-.26-.26-.16,0-.31,0-.47,0-.48,0-.47,0-.46.48,0,.11.03.16.15.15.24,0,.48,0,.72,0q.33,0,.33-.37m-1.44.75s-.06-.09-.09-.09c-.2,0-.41-.01-.61,0-.04,0-.1.07-.1.12-.01.17,0,.35,0,.52,0,.09.03.13.12.12.19,0,.37,0,.56,0,.1,0,.13-.04.13-.14,0-.17,0-.34,0-.54m2.42-.1c-.19,0-.38,0-.58,0-.11,0-.16.04-.16.15,0,.16,0,.31,0,.47,0,.1.04.15.14.15.18,0,.36,0,.54,0,.04,0,.11-.06.12-.1.02-.2.02-.39.02-.59,0-.02-.04-.05-.09-.07m-2.61,1.82c.17.03.21-.05.2-.2-.01-.14,0-.28,0-.42,0-.1-.04-.15-.14-.15-.18,0-.36,0-.54,0-.09,0-.12.03-.12.12,0,.17,0,.35,0,.52,0,.09.03.13.12.12.15,0,.3,0,.49,0m2.69-.47c0-.34.05-.3-.29-.3-.04,0-.08,0-.12,0-.39,0-.4-.08-.39.4,0,.42-.05.37.37.37.44,0,.44,0,.44-.47m-2.49,1.02q0-.27-.27-.27c-.08,0-.16,0-.24,0-.34,0-.29-.04-.29.3,0,.4,0,.4.4.4q.4,0,.4-.43m2.09-.27c-.41,0-.41-.08-.4.4,0,.04,0,.08,0,.12-.02.13.03.2.17.18.1-.01.2,0,.3,0q.34,0,.34-.34t-.4-.36m-2.89-2.95c0,.08,0,.15,0,.23,0,.34,0,.34.34.34.55,0,.45.09.46-.47,0-.03,0-.06,0-.09-.01-.03-.04-.06-.07-.06-.24,0-.48.02-.73.06m2.79-.06q-.3,0-.3.3c0,.06,0,.12,0,.17,0,.1.05.16.16.15.17,0,.34,0,.51,0,.09,0,.13-.02.14-.13.03-.51.03-.51-.51-.51Z"/><path class="uuid-45ac408a-1ad7-4532-88c1-df40f13fa7ca" d="m30.58,17.94c0-1.42,0-2.84,0-4.26,0-.16.04-.21.21-.21,1.17,0,2.35,0,3.52,0,.08,0,.16.02.27.03,0,1.48,0,2.95-.02,4.43-1.19.02-2.36.02-3.54.02-.15,0-.29,0-.44,0m1.91-2.41c.19,0,.37,0,.56,0,.09,0,.13-.03.13-.12,0-.17,0-.35,0-.52,0-.1-.04-.13-.13-.13-.25,0-.5,0-.75,0-.36,0-.31-.05-.31.3,0,.47,0,.47.51.47m.35.28c-.24,0-.48,0-.72,0-.1,0-.15.03-.14.14,0,.16,0,.33,0,.49,0,.12.04.15.15.15.19,0,.37,0,.56,0,.15,0,.36.05.43-.03.08-.09.04-.29.05-.45,0-.34.05-.29-.33-.29m.14,1.75c.16.03.22-.04.2-.2-.01-.12,0-.24,0-.37,0-.1-.03-.13-.13-.13-.31,0-.62,0-.93,0-.11,0-.14.04-.14.14,0,.14,0,.28,0,.42,0,.11.03.14.14.14.27,0,.55,0,.86,0m-.99-3.52c0,.1,0,.2,0,.3,0,.11.04.14.14.14.3,0,.61,0,.91,0,.1,0,.15-.03.14-.14,0-.12,0-.23,0-.35,0-.12-.04-.15-.15-.15-.3,0-.59,0-.89,0-.13,0-.16.05-.15.2m2.28,2.23c0-.11,0-.21,0-.32,0-.1-.05-.16-.16-.15-.18,0-.36,0-.54,0-.1,0-.14.03-.13.13,0,.16,0,.33,0,.49,0,.12.05.16.16.15.13,0,.27,0,.4,0q.27,0,.28-.3m-.03-1.47s-.02-.04-.03-.04c-.24,0-.48,0-.73.01-.02.19-.03.38-.05.57,0,0,0,.01,0,.02,0,.12.05.17.18.16.16,0,.33,0,.49,0,.11,0,.16-.04.16-.13,0-.19,0-.37-.02-.59m-2.49.14c-.01-.08.05-.2-.12-.2-.19,0-.38,0-.58,0-.04,0-.11.07-.11.11-.01.18,0,.36,0,.54,0,.09.04.12.13.12.19,0,.37,0,.56,0,.09,0,.13-.03.12-.12,0-.14,0-.28,0-.45m0,1.05c.02-.15-.04-.21-.2-.2-.16.01-.33,0-.49,0-.09,0-.13.03-.12.12,0,.16,0,.33,0,.49,0,.12.03.18.16.16.04,0,.08,0,.12,0,.17,0,.41.05.48-.04.09-.1.04-.33.05-.53m1.79.85s-.09.09-.1.13c-.01.14,0,.29,0,.44,0,.1.04.13.13.13.18,0,.36,0,.54,0,.05,0,.14-.07.15-.12.01-.15,0-.31-.01-.47,0-.04-.08-.1-.13-.11-.18-.01-.36,0-.57,0m-2.59.26s0,.07,0,.1q0,.33.33.33c.48,0,.47,0,.48-.48,0-.17-.06-.23-.22-.22-.12,0-.23,0-.35,0q-.24,0-.24.26m2.49-2.75s.08.1.12.1c.2.01.4.02.59,0,.16-.01.14-.16.12-.26-.01-.13.1-.3-.12-.37-.01,0-.02,0-.03,0-.18,0-.36,0-.54,0-.11,0-.15.04-.14.15,0,.12,0,.23,0,.38m-1.78.1s.09-.05.09-.08c0-.15.01-.3,0-.45,0-.04-.08-.09-.13-.1-.18-.01-.36,0-.54,0-.1,0-.13.04-.13.14,0,.12,0,.25,0,.37,0,.1.04.13.13.13.18,0,.36,0,.58,0Z"/><path class="uuid-45ac408a-1ad7-4532-88c1-df40f13fa7ca" d="m24.3,17.94v-4.45h3.99c0,1.47,0,2.95-.02,4.44-.96.02-1.9.02-2.84.02-.38,0-.76,0-1.14,0m1.41-3.15c0,.21-.01.42,0,.63,0,.04.05.1.08.1.36,0,.73,0,1.11,0,0-.24,0-.46,0-.67,0-.03-.07-.09-.11-.09-.35,0-.7,0-1.07.03m.43,1.02c-.09,0-.19,0-.28,0-.12,0-.17.03-.16.16,0,.16,0,.31,0,.47,0,.1.02.15.13.15.31,0,.62,0,.93,0,.1,0,.14-.03.14-.13,0-.17,0-.34,0-.51,0-.11-.04-.14-.14-.14-.19,0-.38,0-.61,0m-.44,1.22c0,.13,0,.27,0,.4,0,.09.02.14.13.14.31,0,.63,0,.94,0,.09,0,.13-.03.12-.12,0-.15,0-.3,0-.45,0-.09-.03-.13-.12-.13-.32,0-.64,0-.96,0-.1,0-.12.05-.11.16m.03-3.17c-.01.16-.02.33-.04.49,0,.1.04.13.14.13.31,0,.62,0,.92,0,.05,0,.13-.06.13-.1.01-.17,0-.34,0-.52-.4,0-.77,0-1.16,0m1.6,1.67c.17,0,.34,0,.51,0,.1,0,.14-.04.14-.14,0-.16,0-.33,0-.49,0-.1-.04-.15-.14-.15-.19,0-.37,0-.56,0-.11,0-.14.05-.14.15,0,.15,0,.3,0,.45,0,.13.03.19.2.17m-.03,1.05c.18,0,.35,0,.53,0,.1,0,.15-.04.15-.15,0-.16,0-.33,0-.49,0-.1-.05-.14-.14-.13-.19,0-.37,0-.56,0-.1,0-.14.04-.14.14,0,.16,0,.33,0,.49,0,.05.08.1.16.15m-2.02-.77c-.17,0-.34,0-.51,0-.09,0-.14.02-.14.13,0,.17,0,.35,0,.52,0,.09.03.12.12.12.19,0,.37,0,.56,0,.1,0,.13-.04.13-.14,0-.17,0-.34,0-.51,0-.1-.03-.14-.17-.13m.16-.35c0-.19,0-.38,0-.58,0-.08-.02-.13-.11-.13-.19,0-.38,0-.58,0-.04,0-.11.07-.11.11-.01.19,0,.37,0,.56,0,.03.05.1.07.09.24,0,.48-.02.73-.06m1.89,1.4c-.15-.02-.22.04-.2.2.01.13,0,.26,0,.38,0,.09.03.12.12.12.2,0,.4,0,.59,0,.09,0,.13-.03.12-.12,0-.15,0-.3,0-.45,0-.1-.04-.13-.14-.13-.16,0-.31,0-.51,0m-2.69.23c0,.12,0,.23,0,.35,0,.09.03.12.12.12.19,0,.37,0,.56,0,.1,0,.13-.04.13-.14,0-.15,0-.29,0-.44,0-.1-.04-.13-.13-.13-.16,0-.32.01-.47,0-.16-.01-.23.03-.2.23m2.72-2.62c.13,0,.27-.01.4,0,.17.02.21-.05.21-.21-.02-.49.06-.42-.41-.42-.5,0-.42-.08-.43.43,0,.16.05.21.24.19m-2.29-.63c-.11,0-.22,0-.33,0-.04,0-.1.05-.1.08,0,.17-.03.36.03.51.02.05.26.03.39.03.02,0,.05,0,.07,0q.31,0,.31-.3t-.37-.33Z"/><path class="uuid-c8c83dbb-76a4-4b4b-9300-656ae9d1e17e" d="m24.3,17.96c.38-.01.76,0,1.14,0,.94,0,1.88,0,2.84,0,.02.38.06.31-.29.32-1.14,0-2.27,0-3.41,0q-.28,0-.28-.31Z"/><path class="uuid-c8c83dbb-76a4-4b4b-9300-656ae9d1e17e" d="m30.57,17.96c.15-.01.29,0,.44,0,1.17,0,2.35,0,3.54,0,.01.38.06.32-.29.32-1.13,0-2.26,0-3.39,0q-.3,0-.29-.31Z"/><path class="uuid-c8c83dbb-76a4-4b4b-9300-656ae9d1e17e" d="m18.02,17.96c.43-.01.85,0,1.28,0,.89,0,1.79,0,2.7,0,.02.04.01.08.02.12.02.15-.05.2-.2.2-1.17,0-2.34,0-3.52,0q-.28,0-.28-.31Z"/><path class="uuid-7bbcb5a3-46b6-4ac9-8bf3-6ca38a124bc6" d="m16.45,21.97s-.05.01-.09.01c0-.02.03-.04.06-.07.02.01.02.03.03.05Z"/><path class="uuid-cc99e825-e234-4826-b3a9-c9e79fbfdc45" d="m10.2,17.95c0-1.44,0-2.87,0-4.31,0-.14.05-.17.18-.17,1.22,0,2.43,0,3.65,0,.14,0,.18.05.18.18,0,1.42,0,2.84-.02,4.28-1.34.02-2.66.02-3.98.02m2.53-2.13c-.33,0-.67,0-1,0-.12,0-.17.04-.16.16,0,.16,0,.32,0,.47,0,.09.02.14.13.14.33,0,.65,0,.98,0,.04,0,.11-.04.11-.07,0-.23-.02-.46-.06-.7m-.1-1.05c-.17,0-.34,0-.51,0q-.57,0-.55.57s0,.02,0,.03c0,.11.05.17.17.16.3,0,.61,0,.91,0,.1,0,.15-.02.15-.14,0-.17,0-.34,0-.51,0-.1-.04-.14-.17-.13m-.69,2.8c.24,0,.49,0,.73,0,.09,0,.13-.03.13-.12,0-.15,0-.3,0-.45,0-.1-.04-.13-.13-.13-.24,0-.49,0-.73,0-.41,0-.36-.04-.36.37,0,.34,0,.34.37.34m-.37-3.25c-.02.13.04.17.17.17.2,0,.4,0,.59,0,.5,0,.5,0,.47-.51,0-.09-.04-.12-.13-.12-.22,0-.44,0-.66,0q-.44,0-.44.47m-1.05.64c0,.15,0,.29,0,.44,0,.09.02.14.13.14.2,0,.4,0,.6,0,.04,0,.11-.07.11-.1.01-.17,0-.34,0-.51,0-.1-.05-.16-.16-.15-.17,0-.35,0-.53,0-.13,0-.16.05-.15.2m.07.86s-.05.02-.05.04c0,.22-.01.43,0,.65,0,.03.08.08.13.08.19,0,.39,0,.58,0,.09,0,.13-.03.13-.12,0-.17,0-.34,0-.51,0-.11-.04-.15-.15-.15-.2,0-.4,0-.63,0m2.46.23c0,.14,0,.28,0,.42,0,.09.04.12.12.12.19,0,.37,0,.56,0,.09,0,.13-.03.13-.12,0-.17,0-.35,0-.52,0-.1-.04-.13-.13-.13-.16,0-.32.01-.47,0-.16-.01-.23.04-.2.23m0-.64c0,.08.01.13.11.13.19,0,.38,0,.58,0,.09,0,.12-.04.12-.13,0-.17,0-.35,0-.52,0-.09-.03-.12-.12-.12-.19,0-.37,0-.56,0-.1,0-.13.04-.13.14,0,.16,0,.31,0,.5m-1.68,1.8c0-.06,0-.13,0-.19,0-.09-.03-.14-.13-.14-.19,0-.39,0-.58,0-.1,0-.13.05-.13.14,0,.15,0,.29,0,.44,0,.09.04.12.12.12.13,0,.26,0,.39,0q.33,0,.33-.37m1.68.24c-.01.1.03.14.13.13.14,0,.28,0,.42,0,.29,0,.26.03.26-.27q0-.44-.44-.44t-.37.36c0,.06,0,.12,0,.21m-2.36-3.58c-.21-.03-.16.13-.16.24,0,.39,0,.39.39.39.49,0,.49,0,.45-.49,0-.09-.04-.14-.14-.14-.17,0-.34,0-.54,0m3.07,0c-.16,0-.33.01-.49,0-.18-.02-.23.04-.22.22.01.41,0,.41.41.41.4,0,.41,0,.4-.4,0-.08-.04-.15-.1-.23Z"/><path class="uuid-fafe64ef-c978-4a23-8786-3a9c74c41d0f" d="m2.03,17.95c0-1.44,0-2.87,0-4.31,0-.16.08-.15.19-.15,1.13,0,2.25,0,3.38,0,.13,0,.25,0,.4,0,0,1.49,0,2.96-.02,4.44-1.33.02-2.64.02-3.95.02m2.59-1.84c0-.06,0-.12,0-.17,0-.09-.03-.13-.12-.13-.33,0-.66,0-1,0-.04,0-.1.07-.11.11-.01.17,0,.35,0,.52,0,.11.05.14.15.13.22,0,.43,0,.65,0q.44,0,.44-.47m-1.03-1.35c-.17-.03-.21.05-.2.2.01.14,0,.29,0,.44,0,.1.03.13.13.13.32,0,.64,0,.96,0,.11,0,.14-.05.13-.15,0-.15,0-.3,0-.45,0-.13-.05-.18-.17-.17-.27,0-.55,0-.86,0m.59,2.8c.1,0,.2,0,.3,0,.11,0,.15-.03.14-.14,0-.13,0-.27,0-.4,0-.11-.03-.16-.15-.16-.31,0-.62,0-.93,0-.1,0-.15.04-.15.14,0,.15,0,.29,0,.44,0,.09.03.12.12.12.21,0,.42,0,.67,0m-.75-3.71c-.01.16-.02.32-.04.48,0,.11.03.14.14.14.22,0,.43,0,.65,0,.46,0,.46,0,.44-.47,0-.12-.05-.17-.17-.16-.33,0-.66,0-1.03.01m1.44,2.32c0,.08,0,.16,0,.24-.01.12.03.17.16.16.12,0,.24,0,.37,0,.32,0,.28.04.28-.29,0-.15.04-.36-.04-.45-.07-.08-.28-.03-.43-.03-.33,0-.33,0-.33.37m0-.91c0,.29-.03.26.26.27.04,0,.08,0,.12,0q.43,0,.43-.43t-.34-.34-.47.51m-2.52-.1c0,.06,0,.12,0,.17-.02.15.03.22.19.2.1-.01.2,0,.3,0q.32,0,.32-.32,0-.45-.44-.45-.36,0-.36.4m0,.81c0,.16,0,.31,0,.47,0,.09.02.14.13.14.19,0,.37,0,.56,0,.09,0,.13-.03.12-.12,0-.17,0-.35,0-.52,0-.09-.03-.13-.12-.13-.19,0-.38,0-.58,0-.1,0-.12.05-.11.17m3.33,1.42c0-.13,0-.27,0-.4,0-.09-.02-.14-.13-.14-.19,0-.37,0-.56,0-.09,0-.13.03-.12.12,0,.15,0,.3,0,.45,0,.09.03.13.12.13.19,0,.38,0,.58,0,.1,0,.12-.05.11-.17m-3.33-.14s0,.05,0,.07q0,.23.22.23c.11,0,.22,0,.33,0q.25,0,.25-.25,0-.45-.44-.45-.37,0-.37.4m.3-3.42s-.07,0-.1,0c-.15-.02-.22.03-.2.19.01.1,0,.21,0,.31,0,.1.04.13.13.13.18,0,.36,0,.54,0,.09,0,.13-.03.14-.13.03-.5.03-.5-.51-.5m2.22.33s0,.07,0,.1c-.02.15.03.21.19.2.16-.01.31,0,.47,0,.1,0,.15-.02.15-.14,0-.12,0-.23,0-.35,0-.1-.04-.15-.14-.15-.12,0-.24,0-.37,0-.34,0-.29-.04-.3.33Z"/><path class="uuid-bbb58933-38e8-424c-8a14-d189e6650e63" d="m10.2,17.96c1.32-.02,2.64-.02,3.98-.02.02.4.05.32-.3.32-1.13,0-2.26,0-3.39,0-.32,0-.29.05-.29-.3Z"/><path class="uuid-bbb58933-38e8-424c-8a14-d189e6650e63" d="m2.03,17.97c1.31-.02,2.62-.02,3.95-.02q.02.31-.3.31c-1.12,0-2.25,0-3.37,0-.31,0-.27.04-.27-.3Z"/><path class="uuid-3aa58bda-40e5-4d12-bb25-a75da44d8221" d="m13.92,8.97v-4.44h3.99c0,1.47,0,2.93-.01,4.42-1.33.02-2.65.02-3.97.02m1.37-1.57c.02.09,0,.21.15.21.32,0,.64,0,.96,0,.1,0,.12-.04.12-.13,0-.14-.01-.28,0-.42.02-.18-.07-.22-.22-.22-.27,0-.55,0-.82,0-.14,0-.2.06-.19.2,0,.11,0,.22,0,.36m1.23-1.25c0-.35,0-.36-.23-.37-.27,0-.55,0-.82,0-.12,0-.17.06-.17.17,0,.15,0,.29,0,.44,0,.12.04.17.16.16.23,0,.47,0,.7,0q.36,0,.36-.4m-.4,2.44c.08,0,.16,0,.24,0,.12.01.17-.03.16-.15,0-.14,0-.28,0-.42,0-.08-.02-.13-.12-.13-.33,0-.65,0-.98,0-.05,0-.12.07-.13.12-.02.14-.01.28,0,.42,0,.11.06.17.19.17.2-.01.4,0,.63,0m.31-3.68c-.33,0-.65,0-.98,0-.11,0-.17.03-.15.15.01.1.05.2.03.29-.04.16.04.16.16.16.24,0,.48,0,.72,0,.33,0,.33,0,.33-.33,0-.09-.04-.17-.1-.26m-2.18,1.21c0,.09,0,.19,0,.28,0,.11.04.16.15.16.18,0,.35,0,.53,0,.1,0,.13-.04.13-.13,0-.17,0-.34,0-.51,0-.1-.04-.13-.13-.13-.16,0-.33,0-.49,0-.13,0-.2.04-.18.18,0,.04,0,.08,0,.16m3.33.07c0-.4.08-.41-.4-.4-.04,0-.08,0-.12,0-.33,0-.28-.04-.28.29,0,.48,0,.48.48.48q.33,0,.33-.37m-3.3.7c0,.21-.02.43-.02.64,0,.03.07.07.11.08.19,0,.39,0,.58,0,.04,0,.11-.07.11-.11.01-.19,0-.37,0-.56,0-.03-.05-.09-.07-.09-.23,0-.45.02-.71.04m3.3.62c0-.17,0-.34,0-.51,0-.05-.06-.13-.1-.13-.2-.02-.4-.03-.61-.02-.03,0-.09.08-.09.12-.01.18,0,.36,0,.54,0,.03.05.1.08.1.21,0,.43,0,.64,0,.02,0,.05-.04.07-.09m-2.89.38s-.06,0-.09,0c-.39,0-.35-.04-.35.34q0,.36.43.36t.38-.37-.37-.33m2.88.67c0-.17.02-.35,0-.52,0-.05-.08-.13-.13-.14-.17-.02-.34-.01-.51,0-.1,0-.17.05-.16.17.01.13,0,.27,0,.4,0,.04.07.11.1.11.22,0,.44,0,.69-.03m.01-3.48c.02-.13-.04-.18-.17-.17-.14,0-.29.01-.44,0-.16-.01-.21.03-.21.2.01.4,0,.4.41.4s.4,0,.4-.43m-3.23-.16c-.16.02-.09.14-.09.22,0,.43-.05.38.36.38.47,0,.47,0,.44-.47,0-.1-.04-.13-.14-.13-.18,0-.36,0-.58,0Z"/><path class="uuid-5c93be0e-596d-4152-bf70-6239ee8dd8fb" d="m13.92,8.99c1.32-.02,2.64-.02,3.98-.02.02,0,.02.02.02.03q0,.29-.28.29c-1.14,0-2.28,0-3.43,0-.33,0-.29.04-.29-.3Z"/><path class="uuid-f9a0b4e3-e34d-49b1-a81f-5582589019d3" d="m20.09,15.53c-.19,0-.36,0-.52,0-.1,0-.15-.03-.14-.14,0-.17,0-.34,0-.51,0-.1.04-.13.13-.13.31,0,.62,0,.93,0,.09,0,.14.03.14.13,0,.17,0,.34,0,.51,0,.11-.04.14-.14.14-.12,0-.24,0-.38,0Z"/><path class="uuid-02304ff9-5c66-4de6-a6e9-56003810ebff" d="m19.64,16.58c-.18.03-.23-.04-.22-.2.01-.15,0-.3,0-.45,0-.04.07-.11.11-.11.32,0,.64,0,.96,0,.09,0,.12.04.12.13,0,.17,0,.34,0,.51,0,.11-.03.14-.14.14-.27,0-.55,0-.84,0Z"/><path class="uuid-a5e868ec-6a40-4792-acd6-65b80cdb35cd" d="m19.42,17.28q0-.42.4-.42c.21,0,.42,0,.63,0,.12,0,.17.02.16.15-.01.17.05.41-.04.5-.09.09-.33.04-.5.05-.13,0-.27,0-.4,0-.29,0-.26.03-.26-.28Z"/><path class="uuid-02304ff9-5c66-4de6-a6e9-56003810ebff" d="m20.62,14.13q0,.35-.33.35c-.24,0-.48,0-.72,0-.12,0-.15-.04-.15-.15,0-.48-.01-.48.46-.48.16,0,.31,0,.47,0,.29,0,.26-.03.26.28Z"/><path class="uuid-02304ff9-5c66-4de6-a6e9-56003810ebff" d="m19.18,14.87c0,.19,0,.35,0,.52,0,.09-.03.14-.13.14-.19,0-.37,0-.56,0-.09,0-.12-.04-.12-.12,0-.17,0-.35,0-.52,0-.04.06-.12.1-.12.2-.01.41,0,.61,0,.03,0,.06.06.09.11Z"/><path class="uuid-02304ff9-5c66-4de6-a6e9-56003810ebff" d="m21.61,14.76s.08.05.08.07c0,.2,0,.39-.02.59,0,.04-.07.1-.12.1-.18.01-.36,0-.54,0-.11,0-.15-.04-.14-.15,0-.16,0-.31,0-.47,0-.11.05-.16.16-.15.19,0,.38,0,.59,0Z"/><path class="uuid-02304ff9-5c66-4de6-a6e9-56003810ebff" d="m18.96,16.58c-.17,0-.32,0-.47,0-.09,0-.12-.04-.12-.12,0-.17,0-.35,0-.52,0-.09.03-.13.12-.12.18,0,.36,0,.54,0,.11,0,.15.05.14.15,0,.14-.01.28,0,.42.01.16-.03.23-.22.2Z"/><path class="uuid-02304ff9-5c66-4de6-a6e9-56003810ebff" d="m21.67,16.13c0,.45,0,.46-.44.45-.42,0-.37.05-.37-.37,0-.48,0-.39.39-.4.04,0,.08,0,.12,0,.34,0,.29-.04.29.32Z"/><path class="uuid-f9075716-f20a-4b29-84fa-c1133294b3e5" d="m19.18,17.15q0,.42-.4.42c-.4,0-.41,0-.4-.4,0-.34-.05-.3.29-.3.08,0,.16,0,.24,0q.27,0,.27.28Z"/><path class="uuid-02304ff9-5c66-4de6-a6e9-56003810ebff" d="m21.28,16.86q.39,0,.39.36t-.34.34c-.1,0-.2,0-.3,0-.15.02-.19-.05-.17-.18,0-.04,0-.08,0-.12,0-.48,0-.39.42-.4Z"/><path class="uuid-02304ff9-5c66-4de6-a6e9-56003810ebff" d="m18.38,13.9c.25-.03.49-.04.73-.04.02,0,.05.04.07.06.01.02,0,.06,0,.09,0,.57.08.47-.46.47-.34,0-.34,0-.34-.34,0-.08,0-.15,0-.24Z"/><path class="uuid-02304ff9-5c66-4de6-a6e9-56003810ebff" d="m21.18,13.85c.52,0,.52,0,.49.51,0,.1-.04.13-.14.13-.17,0-.34,0-.51,0-.11,0-.16-.05-.16-.15,0-.06,0-.12,0-.17q0-.3.32-.3Z"/><path class="uuid-02304ff9-5c66-4de6-a6e9-56003810ebff" d="m32.47,15.53c-.49,0-.49,0-.49-.47,0-.35-.05-.3.31-.3.25,0,.5,0,.75,0,.1,0,.14.03.13.13,0,.17,0,.35,0,.52,0,.09-.04.12-.13.12-.19,0-.37,0-.58,0Z"/><path class="uuid-02304ff9-5c66-4de6-a6e9-56003810ebff" d="m32.85,15.81c.36,0,.32-.04.32.29,0,.15.04.36-.05.45-.07.08-.28.03-.43.03-.19,0-.37,0-.56,0-.11,0-.16-.03-.15-.15,0-.16,0-.33,0-.49,0-.11.04-.14.14-.14.24,0,.48,0,.73,0Z"/><path class="uuid-a5e868ec-6a40-4792-acd6-65b80cdb35cd" d="m32.95,17.57c-.29,0-.56,0-.84,0-.11,0-.15-.04-.14-.14,0-.14,0-.28,0-.42,0-.1.03-.15.14-.14.31,0,.62,0,.93,0,.1,0,.14.04.13.13,0,.12-.01.25,0,.37.02.16-.04.23-.22.2Z"/><path class="uuid-02304ff9-5c66-4de6-a6e9-56003810ebff" d="m31.97,14.03c-.01-.13.02-.19.15-.18.3,0,.59,0,.89,0,.11,0,.16.03.15.15,0,.12,0,.23,0,.35,0,.11-.04.14-.14.14-.3,0-.61,0-.91,0-.1,0-.15-.03-.14-.14,0-.1,0-.2,0-.31Z"/><path class="uuid-daeb89ca-0ef1-4eb4-9653-c17a2911a552" d="m34.25,16.3q0,.29-.28.29c-.13,0-.27,0-.4,0-.11,0-.16-.04-.16-.15,0-.16,0-.33,0-.49,0-.1.04-.13.13-.13.18,0,.36,0,.54,0,.11,0,.16.05.16.15,0,.11,0,.21,0,.33Z"/><path class="uuid-daeb89ca-0ef1-4eb4-9653-c17a2911a552" d="m34.22,14.83c.01.2.02.39.02.57,0,.09-.06.14-.16.13-.16,0-.33,0-.49,0-.12,0-.17-.05-.18-.16,0,0,0-.01,0-.02.02-.19.03-.38.05-.57.24,0,.48,0,.73-.01.01,0,.02.03.04.05Z"/><path class="uuid-02304ff9-5c66-4de6-a6e9-56003810ebff" d="m31.73,14.97c0,.16,0,.3,0,.44,0,.09-.03.12-.12.12-.19,0-.37,0-.56,0-.09,0-.13-.02-.13-.12,0-.18,0-.36,0-.54,0-.04.07-.1.11-.11.19-.01.38,0,.58,0,.16,0,.1.12.12.21Z"/><path class="uuid-02304ff9-5c66-4de6-a6e9-56003810ebff" d="m31.73,16.03c0,.19.04.42-.05.52-.08.09-.32.03-.48.04-.04,0-.08,0-.12,0-.13.02-.16-.04-.16-.16,0-.16,0-.33,0-.49,0-.09.03-.13.12-.12.16,0,.33,0,.49,0,.16-.01.22.05.2.22Z"/><path class="uuid-e2f2a559-8fab-45f1-aa39-829dd2e66052" d="m33.53,16.86c.2,0,.38,0,.56,0,.05,0,.13.07.13.11.02.15.03.31.01.47,0,.05-.09.11-.15.12-.18.01-.36,0-.54,0-.1,0-.14-.03-.13-.13,0-.15,0-.29,0-.44,0-.05.06-.09.11-.14Z"/><path class="uuid-f9075716-f20a-4b29-84fa-c1133294b3e5" d="m30.92,17.11q0-.25.24-.25c.12,0,.23,0,.35,0,.16,0,.23.05.22.22,0,.48,0,.48-.48.48q-.33,0-.33-.33s0-.07,0-.12Z"/><path class="uuid-46f90470-2fd9-4393-83c7-129cd0103f8c" d="m33.41,14.36c0-.13,0-.25,0-.36,0-.1.04-.15.14-.15.18,0,.36,0,.54,0,.01,0,.02,0,.03,0,.21.07.1.24.12.37.01.1.04.24-.12.26-.2.01-.4,0-.59,0-.04,0-.08-.06-.12-.11Z"/><path class="uuid-02304ff9-5c66-4de6-a6e9-56003810ebff" d="m31.61,14.48c-.2,0-.38,0-.56,0-.1,0-.14-.03-.13-.13,0-.12,0-.25,0-.37,0-.09.02-.14.13-.14.18,0,.36,0,.54,0,.05,0,.13.06.13.1.02.15.01.3,0,.45,0,.03-.06.05-.11.08Z"/><path class="uuid-02304ff9-5c66-4de6-a6e9-56003810ebff" d="m25.72,14.78c.36-.01.71-.02,1.06-.02.04,0,.11.06.11.09,0,.22,0,.43,0,.67-.38,0-.75,0-1.11,0-.03,0-.08-.07-.08-.1,0-.21,0-.42.02-.64Z"/><path class="uuid-02304ff9-5c66-4de6-a6e9-56003810ebff" d="m26.15,15.81c.21,0,.4,0,.59,0,.1,0,.15.03.14.14,0,.17,0,.34,0,.51,0,.1-.04.13-.14.13-.31,0-.62,0-.93,0-.11,0-.14-.05-.13-.15,0-.16,0-.31,0-.47,0-.13.04-.17.16-.16.09,0,.19,0,.3,0Z"/><path class="uuid-f9075716-f20a-4b29-84fa-c1133294b3e5" d="m25.7,17.01c0-.1.01-.15.11-.15.32,0,.64,0,.96,0,.09,0,.12.04.12.13,0,.15,0,.3,0,.45,0,.09-.03.12-.12.12-.31,0-.63,0-.94,0-.1,0-.13-.04-.13-.14,0-.13,0-.27,0-.42Z"/><path class="uuid-02304ff9-5c66-4de6-a6e9-56003810ebff" d="m25.75,13.86c.38,0,.75,0,1.15,0,0,.18,0,.35,0,.52,0,.04-.09.1-.13.1-.31,0-.62,0-.92,0-.09,0-.15-.02-.14-.13.01-.16.02-.33.05-.5Z"/><path class="uuid-daeb89ca-0ef1-4eb4-9653-c17a2911a552" d="m27.32,15.53c-.15.02-.19-.04-.18-.17.01-.15,0-.3,0-.45,0-.1.03-.15.14-.15.19,0,.37,0,.56,0,.11,0,.15.05.14.15,0,.16,0,.33,0,.49,0,.1-.04.14-.14.14-.17,0-.34,0-.52,0Z"/><path class="uuid-daeb89ca-0ef1-4eb4-9653-c17a2911a552" d="m27.29,16.58c-.06-.05-.14-.09-.15-.15-.02-.16,0-.33,0-.49,0-.1.04-.14.14-.14.19,0,.37,0,.56,0,.09,0,.14.04.14.13,0,.16,0,.33,0,.49,0,.1-.04.15-.15.15-.18,0-.35,0-.54,0Z"/><path class="uuid-02304ff9-5c66-4de6-a6e9-56003810ebff" d="m25.31,15.81c.11-.01.15.03.15.13,0,.17,0,.34,0,.51,0,.09-.03.14-.13.14-.19,0-.37,0-.56,0-.09,0-.12-.03-.12-.12,0-.17,0-.35,0-.52,0-.1.04-.13.14-.13.17,0,.34,0,.52,0Z"/><path class="uuid-02304ff9-5c66-4de6-a6e9-56003810ebff" d="m25.45,15.48c-.25.03-.49.04-.73.04-.02,0-.07-.06-.07-.09,0-.19,0-.37,0-.56,0-.04.07-.1.11-.11.19-.01.38,0,.58,0,.1,0,.12.05.11.13,0,.19,0,.38,0,.59Z"/><path class="uuid-daeb89ca-0ef1-4eb4-9653-c17a2911a552" d="m27.35,16.86c.17,0,.33,0,.49,0,.09,0,.14.03.14.13,0,.15,0,.3,0,.45,0,.09-.04.12-.12.12-.2,0-.4,0-.59,0-.09,0-.13-.03-.12-.12,0-.13,0-.26,0-.38-.01-.16.05-.22.22-.2Z"/><path class="uuid-f9075716-f20a-4b29-84fa-c1133294b3e5" d="m24.65,17.08c-.03-.18.05-.23.2-.22.16.01.31,0,.47,0,.1,0,.14.03.13.13,0,.15,0,.29,0,.44,0,.09-.02.14-.13.14-.19,0-.37,0-.56,0-.09,0-.13-.03-.12-.12,0-.12,0-.23,0-.37Z"/><path class="uuid-46f90470-2fd9-4393-83c7-129cd0103f8c" d="m27.35,14.48c-.17.02-.22-.04-.22-.19.01-.51-.07-.43.43-.43.48,0,.4-.07.41.42,0,.16-.04.23-.21.21-.13-.01-.27,0-.42,0Z"/><path class="uuid-02304ff9-5c66-4de6-a6e9-56003810ebff" d="m25.1,13.85q.35,0,.35.33t-.31.3s-.05,0-.07,0c-.14,0-.37.02-.39-.03-.06-.15-.04-.34-.03-.51,0-.03.06-.08.1-.08.11-.01.22,0,.35,0Z"/><path class="uuid-02304ff9-5c66-4de6-a6e9-56003810ebff" d="m12.75,15.82c.03.23.04.46.04.69,0,.02-.07.07-.11.07-.33,0-.65,0-.98,0-.1,0-.13-.04-.13-.14,0-.16,0-.32,0-.47,0-.12.04-.17.16-.16.33,0,.67,0,1.01,0Z"/><path class="uuid-02304ff9-5c66-4de6-a6e9-56003810ebff" d="m12.65,14.76c.11-.01.15.03.15.13,0,.17,0,.34,0,.51,0,.11-.05.14-.15.14-.3,0-.61,0-.91,0-.12,0-.17-.05-.17-.16,0-.01,0-.02,0-.03q-.02-.57.55-.57c.17,0,.34,0,.52,0Z"/><path class="uuid-f9075716-f20a-4b29-84fa-c1133294b3e5" d="m11.92,17.57c-.35,0-.35,0-.35-.34,0-.41-.05-.36.36-.37.24,0,.49,0,.73,0,.1,0,.14.03.13.13,0,.15,0,.3,0,.45,0,.09-.04.12-.13.12-.24,0-.49,0-.75,0Z"/><path class="uuid-02304ff9-5c66-4de6-a6e9-56003810ebff" d="m11.57,14.3q0-.45.44-.45c.22,0,.44,0,.66,0,.09,0,.12.03.13.12.03.51.04.51-.47.51-.2,0-.4,0-.59,0-.13,0-.19-.03-.17-.18Z"/><path class="uuid-02304ff9-5c66-4de6-a6e9-56003810ebff" d="m10.52,14.94c-.01-.13.02-.19.15-.18.17.01.35,0,.53,0,.11,0,.16.05.16.15,0,.17,0,.34,0,.51,0,.04-.07.1-.11.1-.2.01-.4,0-.6,0-.1,0-.13-.04-.13-.14,0-.15,0-.29,0-.45Z"/><path class="uuid-daeb89ca-0ef1-4eb4-9653-c17a2911a552" d="m10.6,15.81c.21,0,.41,0,.61,0,.1,0,.15.04.15.15,0,.17,0,.34,0,.51,0,.09-.04.12-.13.12-.19,0-.39,0-.58,0-.05,0-.13-.05-.13-.08,0-.22,0-.43,0-.65,0-.01.03-.02.07-.04Z"/><path class="uuid-58a9f2f6-b935-42fe-9fe9-01a028f52b60" d="m13.04,16.03c-.03-.18.05-.23.2-.22.16.01.31,0,.47,0,.1,0,.14.03.13.13,0,.17,0,.35,0,.52,0,.09-.04.12-.13.12-.19,0-.37,0-.56,0-.09,0-.13-.03-.12-.12,0-.14,0-.28,0-.44Z"/><path class="uuid-02304ff9-5c66-4de6-a6e9-56003810ebff" d="m13.04,15.38c0-.17,0-.33,0-.49,0-.09.02-.14.13-.14.19,0,.37,0,.56,0,.09,0,.13.03.12.12,0,.17,0,.35,0,.52,0,.09-.02.13-.12.13-.19,0-.38,0-.58,0-.1,0-.12-.05-.11-.15Z"/><path class="uuid-e2f2a559-8fab-45f1-aa39-829dd2e66052" d="m11.36,17.22q0,.35-.33.35c-.13,0-.26,0-.39,0-.09,0-.13-.03-.12-.12,0-.15,0-.29,0-.44,0-.09.03-.14.13-.14.19,0,.39,0,.58,0,.1,0,.14.05.13.14,0,.06,0,.13,0,.21Z"/><path class="uuid-02304ff9-5c66-4de6-a6e9-56003810ebff" d="m13.04,17.42c0-.07,0-.13,0-.19q0-.36.37-.36t.44.44c0,.3.03.26-.26.27-.14,0-.28,0-.42,0-.1,0-.14-.04-.13-.15Z"/><path class="uuid-daeb89ca-0ef1-4eb4-9653-c17a2911a552" d="m10.7,13.85c.19,0,.35,0,.52,0,.1,0,.13.04.14.14.04.49.04.49-.45.49-.39,0-.39,0-.39-.39,0-.11-.05-.27.18-.24Z"/><path class="uuid-58a9f2f6-b935-42fe-9fe9-01a028f52b60" d="m13.77,13.85c.04.08.08.15.08.23,0,.4,0,.4-.4.4-.41,0-.4,0-.41-.41,0-.18.05-.24.22-.22.16.02.33,0,.5,0Z"/><path class="uuid-02304ff9-5c66-4de6-a6e9-56003810ebff" d="m4.63,16.13q0,.45-.44.45c-.22,0-.43,0-.65,0-.1,0-.15-.02-.15-.13,0-.17,0-.35,0-.52,0-.04.07-.11.11-.11.33,0,.66,0,1,0,.09,0,.12.04.12.13,0,.06,0,.12,0,.19Z"/><path class="uuid-02304ff9-5c66-4de6-a6e9-56003810ebff" d="m3.62,14.76c.29,0,.57,0,.84,0,.13,0,.18.04.17.17,0,.15,0,.3,0,.45,0,.1-.02.15-.13.15-.32,0-.64,0-.96,0-.1,0-.14-.03-.13-.13,0-.15.01-.29,0-.44-.01-.16.03-.23.22-.2Z"/><path class="uuid-f9075716-f20a-4b29-84fa-c1133294b3e5" d="m4.17,17.57c-.23,0-.44,0-.65,0-.09,0-.13-.03-.12-.12,0-.15,0-.29,0-.44,0-.11.05-.14.15-.14.31,0,.62,0,.93,0,.12,0,.15.05.15.16,0,.13,0,.27,0,.4,0,.11-.04.15-.14.14-.1,0-.2,0-.32,0Z"/><path class="uuid-02304ff9-5c66-4de6-a6e9-56003810ebff" d="m3.45,13.86c.35,0,.68,0,1.01,0,.12,0,.16.04.17.16.01.47.02.47-.44.47-.22,0-.43,0-.65,0-.11,0-.15-.04-.14-.14.01-.16.02-.32.05-.48Z"/><path class="uuid-02304ff9-5c66-4de6-a6e9-56003810ebff" d="m4.87,16.16c0-.35,0-.35.33-.35.15,0,.36-.05.43.03.08.09.04.29.04.45,0,.33.04.29-.28.29-.12,0-.24,0-.37,0-.12,0-.17-.04-.16-.16,0-.08,0-.16,0-.26Z"/><path class="uuid-02304ff9-5c66-4de6-a6e9-56003810ebff" d="m4.87,15.25q0-.49.47-.49t.34.34-.43.43s-.08,0-.12,0c-.29,0-.25.03-.26-.28Z"/><path class="uuid-02304ff9-5c66-4de6-a6e9-56003810ebff" d="m2.35,15.15q0-.38.36-.38t.44.45-.32.32c-.1,0-.2,0-.3,0-.16.02-.21-.04-.19-.2,0-.06,0-.12,0-.19Z"/><path class="uuid-02304ff9-5c66-4de6-a6e9-56003810ebff" d="m2.35,15.96c0-.1.01-.15.11-.15.19,0,.38,0,.58,0,.09,0,.12.04.12.13,0,.17,0,.35,0,.52,0,.09-.03.12-.12.12-.19,0-.37,0-.56,0-.1,0-.13-.04-.13-.14,0-.16,0-.31,0-.49Z"/><path class="uuid-02304ff9-5c66-4de6-a6e9-56003810ebff" d="m5.68,17.42c0,.1-.01.15-.11.15-.19,0-.38,0-.58,0-.09,0-.12-.04-.12-.13,0-.15,0-.3,0-.45,0-.09.03-.12.12-.12.19,0,.37,0,.56,0,.1,0,.13.04.13.14,0,.13,0,.27,0,.42Z"/><path class="uuid-f9075716-f20a-4b29-84fa-c1133294b3e5" d="m2.35,17.25q0-.38.37-.38t.44.45q0,.25-.25.25c-.11,0-.22,0-.33,0q-.22,0-.22-.23s0-.05,0-.09Z"/><path class="uuid-02304ff9-5c66-4de6-a6e9-56003810ebff" d="m2.67,13.85c.52,0,.52,0,.49.5,0,.1-.04.13-.14.13-.18,0-.36,0-.54,0-.1,0-.14-.03-.13-.13,0-.1.01-.21,0-.31-.02-.16.05-.21.2-.19.03,0,.07,0,.12,0Z"/><path class="uuid-58a9f2f6-b935-42fe-9fe9-01a028f52b60" d="m4.87,14.16c0-.36-.05-.31.3-.31.12,0,.24,0,.37,0,.11,0,.15.04.14.15,0,.12,0,.23,0,.35,0,.11-.05.14-.15.14-.16,0-.32-.01-.47,0-.16.01-.21-.04-.19-.2,0-.03,0-.07,0-.12Z"/><path class="uuid-02304ff9-5c66-4de6-a6e9-56003810ebff" d="m15.29,7.39c0-.13,0-.24,0-.35-.01-.14.05-.2.19-.2.27,0,.55,0,.82,0,.15,0,.24.05.22.22-.01.14,0,.28,0,.42,0,.08-.02.13-.12.13-.32,0-.64,0-.96,0-.15,0-.13-.11-.15-.22Z"/><path class="uuid-02304ff9-5c66-4de6-a6e9-56003810ebff" d="m16.51,6.17q0,.38-.36.38c-.23,0-.47,0-.7,0-.12,0-.17-.04-.16-.16,0-.15,0-.29,0-.44,0-.11.06-.17.17-.17.27,0,.55,0,.82,0,.23,0,.23.01.23.38Z"/><path class="uuid-02304ff9-5c66-4de6-a6e9-56003810ebff" d="m16.09,8.59c-.22,0-.41,0-.61,0-.13,0-.18-.05-.19-.17,0-.14-.01-.28,0-.42,0-.04.08-.11.13-.12.33-.01.65,0,.98,0,.1,0,.12.05.12.13,0,.14,0,.28,0,.42,0,.13-.04.17-.16.15-.08,0-.16,0-.26,0Z"/><path class="uuid-02304ff9-5c66-4de6-a6e9-56003810ebff" d="m16.43,4.91c.04.09.08.18.08.26,0,.33,0,.33-.33.33-.24,0-.48,0-.72,0-.11,0-.19,0-.16-.16.02-.09-.01-.19-.03-.29-.01-.12.04-.15.15-.15.33,0,.65,0,.99,0Z"/><path class="uuid-02304ff9-5c66-4de6-a6e9-56003810ebff" d="m14.24,6.1c0-.06,0-.1,0-.14-.02-.14.05-.19.18-.18.16,0,.33,0,.49,0,.1,0,.14.03.13.13,0,.17,0,.34,0,.51,0,.1-.03.14-.13.13-.18,0-.35,0-.53,0-.11,0-.16-.05-.15-.16,0-.09,0-.19,0-.3Z"/><path class="uuid-02304ff9-5c66-4de6-a6e9-56003810ebff" d="m17.57,6.21q0,.35-.33.35c-.48,0-.48,0-.48-.48,0-.33-.04-.29.28-.29.04,0,.08,0,.12,0,.49,0,.39,0,.4.42Z"/><path class="uuid-02304ff9-5c66-4de6-a6e9-56003810ebff" d="m14.27,6.88c.24-.02.47-.03.69-.04.02,0,.07.06.07.09,0,.19,0,.37,0,.56,0,.04-.07.1-.11.11-.19.01-.39,0-.58,0-.04,0-.11-.05-.11-.08,0-.21.01-.43.03-.65Z"/><path class="uuid-02304ff9-5c66-4de6-a6e9-56003810ebff" d="m17.56,7.53s-.05.08-.07.08c-.21,0-.43,0-.64,0-.03,0-.08-.06-.08-.1,0-.18,0-.36,0-.54,0-.04.06-.12.09-.12.2,0,.4,0,.61.02.04,0,.1.08.1.13.01.17,0,.34,0,.52Z"/><path class="uuid-02304ff9-5c66-4de6-a6e9-56003810ebff" d="m14.69,7.89q.35,0,.35.33t-.38.37-.43-.36c0-.38-.04-.34.35-.34.03,0,.06,0,.1,0Z"/><path class="uuid-02304ff9-5c66-4de6-a6e9-56003810ebff" d="m17.54,8.57c-.23.01-.45.02-.68.02-.04,0-.1-.07-.1-.11-.01-.13,0-.27,0-.4-.01-.13.06-.17.16-.17.17,0,.34-.01.51,0,.05,0,.13.09.13.14.01.17,0,.35-.02.53Z"/><path class="uuid-02304ff9-5c66-4de6-a6e9-56003810ebff" d="m17.57,5.09q0,.42-.4.42c-.4,0-.4,0-.41-.4,0-.17.05-.21.21-.2.14.01.29.01.44,0,.13,0,.19.04.17.18Z"/><path class="uuid-02304ff9-5c66-4de6-a6e9-56003810ebff" d="m14.35,4.91c.2,0,.38,0,.56,0,.1,0,.13.03.14.13.02.47.03.47-.44.47-.42,0-.37.05-.36-.38,0-.08-.07-.2.11-.22Z"/></g></svg>