<?xml version="1.0" encoding="UTF-8"?><svg id="uuid-6f09b149-0552-4842-960e-4e56c3bee43e" xmlns="http://www.w3.org/2000/svg" viewBox="0 0 104.82 71.75"><defs><style>.uuid-a31ebb77-3f94-40d5-8133-217a86ac0335{fill:#70809d;}.uuid-a31ebb77-3f94-40d5-8133-217a86ac0335,.uuid-0af4b4f5-b417-47ef-a924-db74a0ffe960,.uuid-f18cc2d5-5cdc-42fa-97a5-2d4dbed36e2c,.uuid-6393a831-de67-4b71-8381-0bcda9aa89ec,.uuid-433481bd-213c-482f-b6e1-7c053476323f,.uuid-f0e7a85c-4547-4e39-afb7-9e4af2de9ee2,.uuid-7c149afd-ae6f-45b1-bc2d-f12733e072e4,.uuid-a6e4706b-4606-4694-a008-cd2f7cbff47f,.uuid-4c9edb34-4659-4b2c-8872-2fb295d34aa3,.uuid-5e60a3d8-9d98-41ed-b94d-ce3bcec42919,.uuid-a4feffd5-e887-427e-93c0-4d4d9a4e08e4{stroke-width:0px;}.uuid-0af4b4f5-b417-47ef-a924-db74a0ffe960{fill:#748a4a;}.uuid-f18cc2d5-5cdc-42fa-97a5-2d4dbed36e2c{fill:#4c576a;}.uuid-6393a831-de67-4b71-8381-0bcda9aa89ec{fill:#5c6e3b;}.uuid-433481bd-213c-482f-b6e1-7c053476323f{fill:#566637;}.uuid-f0e7a85c-4547-4e39-afb7-9e4af2de9ee2{fill:#627089;}.uuid-7c149afd-ae6f-45b1-bc2d-f12733e072e4{fill:#546076;}.uuid-a6e4706b-4606-4694-a008-cd2f7cbff47f{fill:#c3cad6;}.uuid-4c9edb34-4659-4b2c-8872-2fb295d34aa3{fill:#dbe2f0;}.uuid-5e60a3d8-9d98-41ed-b94d-ce3bcec42919{fill:#b0d5e4;}.uuid-a4feffd5-e887-427e-93c0-4d4d9a4e08e4{fill:#677b42;}</style></defs><g id="uuid-82f8fb03-387f-4198-9af5-7bd6bd7fd7fd"><path class="uuid-4c9edb34-4659-4b2c-8872-2fb295d34aa3" d="m53.88,27.32l2.56-15.24h0c1.7-.86,3.07-2.25,3.91-3.96h0c.27-.54,1.03-.57,1.34-.05l.36.61.82-1.52c.36-.67,1.25-.81,1.8-.29l.85.8c.32.3.5.72.5,1.16v.86c0,.71.4,1.37,1.03,1.7l2.84,1.47h0c0,1.81,1.14,3.42,2.85,4.02l.38.13,6.92,10.11-26.18.21Z"/><path class="uuid-a6e4706b-4606-4694-a008-cd2f7cbff47f" d="m73.13,17.01l-.38-.13c-1.71-.6-2.85-2.21-2.85-4.02l-2.84-1.47c-.63-.33-1.03-.98-1.03-1.7v-.86c0-.44-.18-.86-.5-1.16l-.85-.8c-.55-.52-1.44-.37-1.8.29l-.82,1.52h0c0,4.6,3.73,8.33,8.33,8.33h2.74Z"/><polygon class="uuid-7c149afd-ae6f-45b1-bc2d-f12733e072e4" points="66.6 18.63 57.39 27.29 60.69 31.03 66.6 18.63"/><path class="uuid-7c149afd-ae6f-45b1-bc2d-f12733e072e4" d="m24.6,12.85h0c0-1.99.82-3.89,2.26-5.25l.24-.23h.35c1.32,0,2.58-.56,3.47-1.54h0s1.18,0,1.18,0c2.15,0,3.9,1.75,3.9,3.9v3.11h-11.4Z"/><path class="uuid-f18cc2d5-5cdc-42fa-97a5-2d4dbed36e2c" d="m73.13,45.06l-17.36-19.59c-3.06-3.46-4.75-7.92-4.75-12.53h0c0-.69-.22-1.37-.62-1.94h0c-1.91-2.68-2.93-5.89-2.93-9.19h0s-2.76-1.81-2.76-1.81l-3.29,4.44h-1.01c-.58,0-1.13.21-1.57.58l-3.89,3.35c-2.52,2.17-5.74,3.36-9.07,3.36h0c-2.38,0-4.31,1.93-4.31,4.31v4.55L0,45.06h73.13Z"/><path class="uuid-7c149afd-ae6f-45b1-bc2d-f12733e072e4" d="m41.21,10.03L0,45.06h73.13l-21.33-12.75c-7.86-4.7-11.86-13.58-10.6-22.28Z"/><path class="uuid-4c9edb34-4659-4b2c-8872-2fb295d34aa3" d="m73.13,45.06l-21.33-12.75c-9.59-5.73-13.44-17.69-8.99-27.94L44.71,0l2.76,1.81h0c0,3.29,1.02,6.5,2.93,9.19h0c.4.57.62,1.24.62,1.94h0c0,4.62,1.69,9.08,4.75,12.53l17.36,19.59Z"/><path class="uuid-a6e4706b-4606-4694-a008-cd2f7cbff47f" d="m55.77,25.46c-3.06-3.46-4.75-7.92-4.75-12.53h0c0-.69-.22-1.37-.62-1.94h0c-1.91-2.68-2.93-5.89-2.93-9.19h0s-1-.66-1-.66c-2.89,9.64,1.07,20.18,9.9,25.46l.9.54-1.49-1.68Z"/><path class="uuid-a31ebb77-3f94-40d5-8133-217a86ac0335" d="m104.82,45.06l-13.68-15.51v-2.6c0-1.13-.22-2.24-.66-3.28l-1.31-3.16-1.38,1.08-1.38-.79c-.45-.26-.96-.39-1.48-.39-.67,0-1.32-.22-1.84-.64l-3.53-2.77s-.35.5-.71,1.01c-.39.55-1.16.67-1.7.25l-.02-.02c-.33-.26-.77-.31-1.16-.15l-3.46,1.47-2.61,5.37v20.11h11.86,0s23.07,0,23.07,0Z"/><path class="uuid-7c149afd-ae6f-45b1-bc2d-f12733e072e4" d="m75.25,18.41l8.37,5.26c.86.54,1.54,1.33,1.95,2.26l1.24,2.81,3.76-4.89c-.02-.06-.05-.13-.07-.19l-1.31-3.16-1.38,1.08-1.44-.82c-.43-.25-.93-.36-1.43-.36-.67,0-1.31-.23-1.84-.64l-3.53-2.77s-.35.5-.71,1.01c-.39.55-1.16.67-1.7.25l-.02-.02c-.33-.26-.77-.31-1.16-.15l-.73.31h0Z"/><path class="uuid-f0e7a85c-4547-4e39-afb7-9e4af2de9ee2" d="m91.14,29.54v-2.6c0-1.06-.2-2.11-.58-3.09l-3.76,4.89v16.32h18.02l-13.68-15.51Z"/><path class="uuid-f0e7a85c-4547-4e39-afb7-9e4af2de9ee2" d="m0,45.06l26.52-22.55c3.22-2.74,8.01-2.52,10.97.5l21.57,22.04H0Z"/><path class="uuid-f0e7a85c-4547-4e39-afb7-9e4af2de9ee2" d="m66.6,18.63l2.19,1.65c.89.67,1.41,1.71,1.41,2.82v.7s.16.38.16.38c2.02,4.91,5.4,9.13,9.73,12.19l12.29,8.67h-38.36l12.58-26.42Z"/><path class="uuid-a31ebb77-3f94-40d5-8133-217a86ac0335" d="m31.13,20.62c.39,7.18,4.26,13.99,10.8,17.9l10.94,6.54h6.19l-21.57-22.04c-1.72-1.76-4.07-2.57-6.36-2.4Z"/><polygon class="uuid-7c149afd-ae6f-45b1-bc2d-f12733e072e4" points="85.67 45.06 68.92 30.87 79.83 45.06 85.67 45.06"/><polygon class="uuid-f18cc2d5-5cdc-42fa-97a5-2d4dbed36e2c" points="79.83 45.06 83.6 45.06 72.78 35.9 79.83 45.06"/><polygon class="uuid-7c149afd-ae6f-45b1-bc2d-f12733e072e4" points="75.39 45.06 66.89 35.1 71.64 45.06 75.39 45.06"/><polygon class="uuid-7c149afd-ae6f-45b1-bc2d-f12733e072e4" points="101.24 45.06 89.07 32.82 96.2 45.06 101.24 45.06"/><polygon class="uuid-7c149afd-ae6f-45b1-bc2d-f12733e072e4" points="6.2 45.06 27.15 27.32 13.51 45.06 6.2 45.06"/><polygon class="uuid-f18cc2d5-5cdc-42fa-97a5-2d4dbed36e2c" points="13.51 45.06 8.79 45.06 22.31 33.61 13.51 45.06"/><polygon class="uuid-7c149afd-ae6f-45b1-bc2d-f12733e072e4" points="19.05 45.06 29.68 32.61 23.74 45.06 19.05 45.06"/><path class="uuid-0af4b4f5-b417-47ef-a924-db74a0ffe960" d="m0,45.06C0,47.81,4.32,50.34,11.54,52.33c2.69.74,2.97,3.38.47,4.41-3.5,1.44-5.49,3.08-5.49,4.83,0,5.62,20.54,10.18,45.89,10.18s45.89-4.56,45.89-10.18c0-1.75-1.99-3.39-5.49-4.83-2.5-1.03-2.22-3.67.47-4.41,7.22-1.99,11.54-4.52,11.54-7.28H0Z"/><path class="uuid-a4feffd5-e887-427e-93c0-4d4d9a4e08e4" d="m93.28,52.33c7.22-1.99,11.54-4.52,11.54-7.28h-10.89s-33.97,1.94-52.62,9.82c16.95,3.02,29.77,6.85,56.66,7.88,0,0,0,.01.01.02-.04.08-.09.15-.13.23.3-.47.45-.95.45-1.43,0-1.75-1.99-3.39-5.49-4.83-2.5-1.03-2.22-3.67.47-4.41Z"/><path class="uuid-5e60a3d8-9d98-41ed-b94d-ce3bcec42919" d="m93.94,45.06H10.89s22.98,1.31,41.52,6.16c18.54-4.85,41.52-6.16,41.52-6.16Z"/><path class="uuid-6393a831-de67-4b71-8381-0bcda9aa89ec" d="m52.41,51.22c-18.54-4.85-41.52-6.16-41.52-6.16H0c0,2.3,3.03,4.45,8.24,6.26,13.97.59,24.1,1.96,33.07,3.56,3.31-1.4,7.1-2.61,11.1-3.65Z"/><path class="uuid-433481bd-213c-482f-b6e1-7c053476323f" d="m90.43,61.79l-2.08-3.58h.55c.44,0,.72-.49.5-.87l-1.92-3.34h.56c.31,0,.5-.38.35-.65l-1.12-1.99h.3c.24,0,.39-.21.27-.41l-1.04-1.75h.29c.17,0,.27-.14.19-.29l-1.1-1.89c-.04-.07-.11-.1-.19-.1s-.15.04-.19.11l-1.1,1.88c-.08.14.02.29.19.29h.29l-1.04,1.75c-.12.21.03.41.27.41h.3l-1.12,1.99c-.16.27.04.65.35.65h.56l-1.92,3.34c-.22.38.06.87.5.87h.55l-2,3.45c2.79.28,5.76.52,8.93.72.06-.18.04-.39-.07-.59Z"/><path class="uuid-433481bd-213c-482f-b6e1-7c053476323f" d="m78.7,59.17c.35,0,.57-.45.4-.75l-1.54-2.73h.44c.25,0,.4-.21.28-.42l-.9-1.5h.24c.19,0,.31-.2.22-.37l-.83-1.44h.23c.13,0,.22-.12.15-.24l-.88-1.52c-.03-.06-.09-.08-.15-.08s-.12.03-.15.09l-.88,1.51c-.07.12.02.24.15.24h.23l-.83,1.44c-.1.17.02.37.22.37h.24l-.9,1.5c-.12.22.03.42.28.42h.44l-1.54,2.73c-.18.31.04.75.4.75h.44l-.9,1.55c1.94.26,3.95.51,6.07.74l-1.33-2.28h.44Z"/><path class="uuid-433481bd-213c-482f-b6e1-7c053476323f" d="m72.98,60.61c.22,0,.36-.33.25-.52l-.96-1.76h.28c.16,0,.25-.13.18-.26l-.56-.94h.15c.12,0,.19-.16.13-.27l-.52-.94h.14c.08,0,.14,0,.09-.07l-.55-.91s-.06-.03-.09-.03-.07.03-.09.07l-.55.88c-.04.07.01.08.09.08h.14l-.52.94c-.06.1.01.27.13.27h.15l-.56.94c-.08.13.02.26.18.26h.28l-.96,1.76s-.03.06-.03.09c.98.15,1.97.29,2.99.44h.23Z"/><path class="uuid-433481bd-213c-482f-b6e1-7c053476323f" d="m67.13,59.17c.35,0,.57-.45.4-.75l-1.54-2.73h.44c.25,0,.4-.21.28-.42l-.9-1.5h.24c.19,0,.31-.2.22-.37l-.83-1.44h.23c.13,0,.22-.12.15-.24l-.88-1.52c-.03-.06-.09-.08-.15-.08s-.12.03-.15.09l-.88,1.51c-.07.12.02.24.15.24h.23l-.83,1.44c-.1.17.02.37.22.37h.24l-.9,1.5c-.12.22.03.42.28.42h.44l-1.54,2.73c-.08.14-.08.31-.02.46,1.63.3,3.3.59,5.02.87l-.34-.58h.44Z"/></g></svg>